<mxfile host="app.diagrams.net" modified="2021-03-14T06:17:31.843Z" agent="5.0 (Windows NT 10.0; Win64; x64) AppleWebKit/537.36 (KHTML, like Gecko) Chrome/89.0.4389.82 Safari/537.36" etag="Bf9A07gOANc9NqMC5jc-" version="14.4.7" type="github">
  <diagram id="FKH595s7NVmemaZR9p0i" name="第 1 页">
    <mxGraphModel dx="981" dy="514" grid="1" gridSize="10" guides="1" tooltips="1" connect="1" arrows="1" fold="1" page="1" pageScale="1" pageWidth="827" pageHeight="1169" background="none" math="0" shadow="0">
      <root>
        <mxCell id="0" />
        <mxCell id="1" parent="0" />
        <mxCell id="hm0pcYK8jrE48RgcLdMb-1" value="" style="shape=image;verticalLabelPosition=bottom;labelBackgroundColor=#ffffff;verticalAlign=top;aspect=fixed;imageAspect=0;image=data:image/png,iVBORw0KGgoAAAANSUhEUgAAAEAAAABACAYAAACqaXHeAAAAOXRFWHRTb2Z0d2FyZQBNYXRwbG90bGliIHZlcnNpb24zLjMuNCwgaHR0cHM6Ly9tYXRwbG90bGliLm9yZy8QVMy6AAAACXBIWXMAAC4jAAAuIwF4pT92AAAdK0lEQVR4nH2b6a4l13Xff3uo4cx36r49k+xmcxZFUdQQyTQCwRmQKIbgxM6XBAjgBMjwCnkB20AeIN/yCAECBHAQJFYkx5IlWxRJkWqKzWYPt+98z7lnqmEP+bCr6tS53Up9uefWsGuvea3/WiXe//6feDzhEIAPf70U4ZQLF+v/60NYX11fnfOyWqM5cWFdwCsR1vSt36xfr9/b7MH6Zt2L57wUzb3Nff7CPvgt5wDdbBIQFoRxYROqTS3PbLQm/hmiLxztey4yEcDGstm0cB7hWu+q965EWGN9ZbxcF8D6Q6wxqH2ufU0LB3gfXqLAK1lt5uKCvtnMipgLC7cOp0W1xooYYf3aui5qbbb+KXlmMS9XhNQMEsaDCHuumdfiDV62GLTOz7VDN884AgNqlVIX7vSBoKBmIjDkolq2OC3NykS8bPGqXre+5znrXDyk8RUxviKs0tDnmQArhjTMbsmq+b9mgE0E0jxnAy0t8PXLVHj6IsFr3K9+CkujNSAaRrQlaRPxjKa1bb+t4rV9r19f/a01p37mohnVhK80s2JA2NjzOX/Rdmvn1WzGPt++Vxq0OudVeLksV5KpteSidFaMXT/f/Gwxo2bAM84Yscas1d5Wa3glggkI53FarG+qpZb1NeFa11sbW/PMF87VG3I6SEeWQZ1dJJ5514qY5zCmfV9bpdeefT4T6nUvOk3hPFqWHlk6hBZ4/dttsH5gbaO2Cme1asvV/TVTvRTNJoVb3/xFzQpa1fIdap0hF4kQ9vkSbgt0/T3PhlRtOhKRiOZFsmxJ5aJ3vXC4qK01YTMuEtgLHttpgWxFgLb02xrWMIlAvHB+pVWNANpmJda0LhC40oQ6WgjqKLeKYDVdWhWueqh1Ezyrhv+fWF9rgywc8diizzPkeAZ5AVrj0xiSGBdrXKopR3FgVLxydtLW77qQCzwnQrSF4qJ1+68Z0miLoHHGjQ9rPa/reNq+4RmCq99tD9rOxGTh0HODyi0ukszuDDl5YxPz5pwrW+ccTvr4z/rs/tQy+GAf/ckEsbWJ2RkAYLsRiJAU2VQGjTGBMTYO79RZeLGNZUOczjzRzCILh9cCp4JmtTXKJgIQVSgVazTK0qNNT61zTokmRl9Mg9dCmQSVOdLjBcI4sis9jt/ucv6KY/vuCT+49mt+d/BrNuSCfTvip3dv86P37vCrB7sM7t2gc+QZPMyJH5+hxhI3SElOptgn+/iyQHa7iG4HoTXee8jzsIdeD99J8L0Ul2hsN8LFgWleCcqBpOwJhIX01BAvLDYJqtA2p0a27//jP/E14TYOnGpz65nwVnE/mlmi0wzbizh8r8vimwt+/9Vf8vdGHzOQS6auw4ntA5CKksxHTG0KQOYjUlGycAkP8y0UjkQaHiy2+XK6SWFCfiaEpzSKRRZjjUJpS6+Ts9ldspksuJJO2Y5nXI3GpLJkbLucmR572QY/fHCH+K/7bHxu0QsbHHzLhdS+QqcHC/KdDgDR3DdxvU1sWwOk8ailIz5e4BLN0btdzPsT/uD2x7zdfcSDYofMRzgvmdoUh2CklkjhWNiEiQ3v2o3O6cqcb/c/Z+4SlHC83X2E3ZFkLmLqUhY2ofSKkV6QihKLROGwSB7m28xNQiIMB+WI3GkSaUiEwXlBsYjozTx6YVGFwwoVUn4dnK4kmIp2sUYaT9FVa2FoTU0qU1C5JzovwMPi1oCn31Vsf/WAf3TlM17p7FN6RSRs2KgokcKRuwgpHJGwKOEwLrjog3IIwJaek7mIhYsBME42hCZVivq02GieS6QhkpbTosekTJnbmJ4qGOolA5VxUA751dkuycOE/lODyh02VVX4rKMdTTWqpy926D/KSI8d5UCvQpRfVWF1/FS5pRzGnL4WEf/eMf/q1ge80XkSnI2XTF1K6RWlD8zMXYT1EuclJRAJy1BnjPQCCNfrI5UlEk++Kk9YuJi5SXBe4AiV21AvyZ0mkpaeLuipgpvpKbvRhL1ik58cvcjxh5fZvO/Rc7tWSdb1RH3ouUUvdiU6S4imBgRNHuBVUBW9dCQnGSIvyS/3OHgvYuf9p/z7F/83AHMX1LT+GwmL85JZJdXMRSjh2FELlHB0ZU4kLJmP2IiCau+bEU+LDbqyYKSXZBVjLBI0FE5TOkVP5/R1TuYiYgy5DcwaqQVj2+XP919n/6+ucvkjj146yqGuUu+Lzjz8H01L9PmrBtBsfWJRmcOmqzCjqvAWQtsGh+/BO9+6x/cv/ZKBWvKo2CaVJQOZBaKqjSvpyHxEIsuG2xPbpfQK6yUT2+Hz2Q4LE/POxmN2ohldWZDKkkSWWC+D7aslaRTWyFraMoqWTG1KVxbcSQ/ZUAv+2+lX+fLzy+ze83SOCkxHQbTuw7wSqNwRnRu8FuTbCZrUYjqV163s3+mQMYnMoWYFxXbKyVcEb33jPv/u2v9iQy55UO5wavoo4ZirlfRzF5G5KJhBpdptRqSyZEsHgiNh2Y0mDYGRsGyoBQOZMXUprtLd0itmNuHcdHAEB9bTOVt6Tk/m/HR+m//z+cuMfqVJz8rGzlXuGsDFV5libdqL3ZjJSxKNFciSJhmqM6WaWwDTWzG9r5zyg92/5YqaMa7UvbZT26pCVJUp5U43G+7Igr7Om3vqcJh7zcNim5FaclL2ODcdejqncJrcahJlGOiMtGLgpXjavHNLz0lkMJ8fHdxGfZHSPQpZrYskLgom7HSgTeUOlXtMVzJ5KWLyuqV/4wxNKal80lrRIo0DAYtbPc7e9PzLFz7kH3Tvc1X3WbiCV6PHTNJHTF1E5jVj1238gEU26g6wUdl/LeXaZ9QMS0XJq+keCk/mI+YuYWpTJrZL5iJcKy0d6QU7IjDi/vIS/+PRq2SfbLD1qSeaO2zSKsA8qMKjMkt8luMSzfkLKeOvFXzvrU95s7+HTvc1gychjW1Xbu10sfdI8l9+8W1+eP1lBlHOtEyQwgfnls652zvkvd593kn26AqwQO4hEZAKgUIw945jGzH3wZYzHzF1nYZJv86u8Tfnt5iVCTe6Y64l40abSqfoq5xr8Rk3oxOOzJAfnr/K/7z/CvLjPlufOzonNmAOkWzUXRWuokngYsXiSsz5HXj5pQNudM4ovUK8/R/+k9+8l+O1bOCqurgRDoRxjQNpaob6nJbgPS6WmI7Exqzl214J3AVorQFDrA95xTyc0EuLTRSHX4sY/u4BP7jxS3ajCXOXMKtMpq8ychfx54evc+/Dm4zuSfp7Fr10oW5IVgBreFdI5qQJVaXpSIq+pOwHOlTu0aMHJXphMF2Ni1RV8PhVwlCdaxyJB1mGAsgmAqeDBKUJxNQpZrusrfP0+vn1EheSowVmmHD8VoT85ph/cv0jbsSnAPRkTk+G0PdFfomfHL3Ik19c5fIvPfHU4KXAdFY+aK0arOqapn7x0Dm1dI8DfSYVaGE95TCuwIeW2jQb9E1lRlUqu0jgItVw2kWBOBurVcEkqhK3tbEGIFWr9aNJjhkkHH8lhe+O+eNX/pK7yT5j22siy5EZ8OH0Bj/68jb8psfWryGZOGwsGmdd71mWvuk3tNP52qyDMKvy3YBWucP0VAgXgNPrsFeD6rBSrRWYASBQhcfXDrSGEWqAogJG1hAaAdHckRwsQEue/N0e8bdP+bd3f8w76ZdNsaRwnNg+Px2/xF/95iW6v0rpPfV0Tgwydzit0Zlt7YVWsbPCAIRtm8QKyBHOo4uRXiOq/YBXK7SnzYBa6r/tULlbqX2dilYmBDTZpVzknHzrEvZrU37/xQ/ZUAvGrkvmYn6T7/J/T2/zwec3GX4Y88InJeneafA/QuC1RM/jxjeZnqYYSISriPPiWSi8KfNX/kHL0q9hAe3ceQ0gaXHXy4DuBkCkPteCqKoXede6roINRueG5CjE3b2/fxn7vTH//PYHvJ7usW9GZC7i2Az4i+O73NvbJX4aoZae2VXN9MYmsoRkGrI5lYdETZ2eE2U53V4XH2lcP6HcSLHJKh+oy/yQJ4gVYvT+9//E10jPOja3Dk21sfq6WGqY1jCspSF6HU9QuUMvLXpWUg5jnn47YfP9ff7w5t9wN9nnUbHNqek3SU/pVZNB1tllXVpPbIe9bIOljcis5ul8yN6X2yT7Ef3Hnv6eIT4tkIXBK4nXEpcobKJWQKv1uEiga6LrDbfVo91saBPYdixBg1ba0TBRBObIsqrJl8Fjz2512f87gle+/oA/vv4jjsyAIzNkYrvkXnOS99DSVXV/D4VjpJdNBQmQCMOleMpIL+mrDLbh8OqQiekwNwn3p9t89sUunQe9wJAnBXphcErgVUCPqLLEVe3ZknyTDrc9KDXCG/pctTrJ0uEi2WRgIWoE9QdITnLULCe7NuDg6xHqvTH/5uW/5r3ufVJRMnUpWSXhmamyQ8LDT5YbOC+42T1jpJZNPTC3MWd5Fy0tgyino0pyqxtQ5NXRIb1XCr7Y2eL46oBilLB5TxJNCpxVKzRo4VcMaHt+r551cA0Y6kICE+4Dq2SrM1M5UuPRhUVmFmkcyxsDDt+NuPy7e/zhjZ/zYnzEkRmyV2426j7SC15Ijpm7hIf5NsZJ7vSOmvfnXmORaGnZknO2ojlaOnKnAzKkDIkySDxaWnbTKf3LObOtU+5dvsTBYMDOR4LktEQoh48lLpahNbaSepXE1CGkjuN1p6fdL2z1+dqHNJ74LEdmJWaYcvxmn9N3HK+9+YA/uvozLulzprbDvhkxsR0knp1oSukVP5u+xNJGSOGJpEU71wAlqSxJhGFGgkWSO01uIrS0OC/IrW5qhrJUZFYjhed2/5jddMqP5UscxkOu/MSTHmUUo3jVGltJfh1/X3n4mlDRxNG2c3RaoAqHLEFlFjUvyK/02f9mAu9N+Nd3f8a73Qec2D4fLW/yKNvi58c36EYlu50pR/GAns5JZMnrvb0m87PIJg2OKmn0VY4SjonpcFAOSQho0bRMmBQderrgWncCpBROMTcJl+Ip7157zF/Ob3N2lrI7LognBflWgvid3/9Tf7Ef8Lxm6fPuaUtf5mGwQi8s5UBz+G5E+s0TvnP1AQCPFxuM8w6pLhnGGa5KCjbjJQDOC6TwDfxVOkVRFRIDnTOIMoxTzG3MVjRnqLOgBU6zdDGxNBinWNqIqUnIbMSj8QaLLKbXyRmmOYsy4viLLXZ/LBh9OsX24xAFpFnHyi72AJ93tPt5AC6R6IVFWMfsusa8OeefvfgLvtr9kv1yo8HyLBJTEXZadCvJG6YmbSCuniq41JkyUFnzvtIrDosBp0WXpYrBrDDFWBoUjrlLcAjiKgff6i3QyhFrw0ay5O7oiM+ikr3ZVXTWJz3K0XWlVEv2Ymfoeb3BOm+ou75NgePBJYrljuCFy6e8mj7ltj7ltj7lzeQJFkHpNSe2z9SlRMLSkzmX1DmZj3hUbvNFfonHy00+PL/GrEwonSJRhq1kQUeVJCpggTWzNqIQHrV09HQetIAI5wW7nSm7nSnGy4Yp3aig3LCUPUnvYRkywTClIZ6dCvktRx0xZOGRFc7ulcD0FMJ4Nj53HJ/f5D9u/wtc4tEzQTSnGWdBgEnDiIyLPabvcaOSze0Zb+wccLd3yKCfrUk+dxFDvSSSlpkJ4XCol1gkhdMMZEZSa4KNWZi4MaG4QpCHeonrCH4zysm2ehSbaXCCTUO0NSRVd1KfN1/TZIXxCnQMfX+B7Umk8Yy+KNn6NIQMF8mmRJalw4uAJQjjAjOrvqBXQ77obfDRlTdYXPfwwoK3bzzhhe4piSw5yIcsbRTgcJ03fsA41ZhQ7nRDeG41mdEo4SmcQgvHIMoYDZYser3gs9ozO/VRl8Quak8crEzFxbLVRQ4PrwgMv20aGp3P0R+cqmoDF7o10oJeuJCjK8HgiWX0wJN/2OHjO6/wi1eXvHVjj1eHBxgnOciHTMqUT4tdrnbP6aiS8zJEi/MybXKBSFqi2LKTzhlGGRLPtEzJTUiJ9dy0wqCoKrxI4Z7r8WnMpC6dn50hfJ66sFYTAGEmya6cqBdgOnKtbhfOk44t+mNP9jTlkxdu88ndXb7zwhfc6R0xMR1mZcJZ3mUqLVJ4dpI5kbR0VMgdTqVlYULHqe4rSKdJtMXaqhxuQ1jtqY6m4PErj18Tv0qPqyqrrNPEVZ0QAIcVg1bM4gLTKpSoyjMuDkDqpWPwyNE5lozHfX4W32R0a8mmXvDK8JAHs20mReg3zsqEs6yDsQqtAlO6UYlDkNmqdygNizwiPfWoeYG+OEvTqHUL7WkXSDVCVBPjdGiVt1PlurK8OJHVPtr4Q31vox3VewOqEv5XmWPjPhx3N/ivZ+9w7dopr20ccqM7JndBkZc2YitZEElLboMvMK7KCvE4BOOiw+KoRy8Dl2i0yoPNhiEDWRHjVwBCVfdf3Hgbc7so2Yst9vqotetiaK27zu00u9GSCtMzHUk0d2x9AsdxhLsqmJqEjioxXiLxnJcphQ1w/KyIMVax0VnS0wWFU4yLDjOTIEqBi8Jghm64LdbtGla1fu3c6hq6Pbkh/AoIkcaHKY94hcR6JZ5Bj9YHmX47slQPadT1u8otMZAeKybzDq9tHvJ4scG0TOhFRagZlCFWBiUc0yIhN5rSKpR0HCwHPD7ZIDlSJJOQF1SDkqvStw12BK9fhbqqTih7krIjiJa+GmQCvCc5t8QnGbIwTV7hYo3tRZTDqIkaTouKeWJtCqV5T6uBWf/vVTAzV4Rr8bln+rTHz9RN7mydAHCep1zuTrnZOSN3EVo4+lFOXDlFgE/Hlyn3u2wcelThsYlEDz7Yx2vVjJwAVY8gYP6ysNhuRL4ZBRhcrZgTn1ui8xJhHS5WzG73md5UlH2QJaQnnt6BJT4rGm0w/QjTkQ2BFzWgPeLanvqszULPSlQe2u/9NOdSOmNaJjw63GQ/HnC+kyKF5yzrkCjL5e6UqUn4zekOZ49HDB9Ihg8DQ2wq0efvXiU9zCsVdoi8DKrejVle6TC9rlheFnjtiWaC9NiTnjk6+xl6smR5c8jBN2LKNxa8uLvHO8NDhnrJwsU8mG3z8ZOrqM+6DB54+nsleh660aZTNS3r7LCl8u3SfG1GwYOPqucix/X+hJc6x0TSspmElDiWlnERiN9IloyijLOiw3TWofNE038cRmZsqojPDeI/f/o7/qAcsZdvcFp0Oc27WC85nvWYLwJCY0qFPIrpPZb0H1viqSPfUBx9TXD1nX020iWpKhlFGVvxPAw1sKrRD5YD7u3tEv26w8Znjv7jHH2eUex0sYlsGhvtEVpZ+maUTvgQBfTSUgw1Z3c1s9cKvnL3McZJtHTspiHnfzjbJDOa7c6C3XTK0kb89aNb6F/02f6VCUQbj1oU2G6Mflhss6nn3O4ccTNVLFzMzCQ8SjZ5oLc4Ph40xA8fWuKJYX4l4vQtwc7bh9zoj5HCk0jDWdHB+ICynBUdFiYmlpatZMH3X/sQ84ri4WKTj768Rv+DTbY+Lek8niEnc7xWuEEXl+pKMyQ2kQgXECdZOIQJ7a3ssmewM6evcwqnKJxmaSMSaXixf8puck4kLZ9Mr/DzB7dIP+6wec+SnJbgPeUw4uy1lMnLoD+bXWZh4gZBqfPnwmimiwR1kLD1EQweZQjjOXs15eQbhtt3DvidS583QKTzgoWJm4zscjpranSHoHAhFr813OO7X/ucwzcHfHJ+hS9PN1k+vcrgc8XwgaX3cIY6GOPLksgYsBaUAq1hY4jaicELlPAh4xMe4xQdVfJS57jpQv98fIsPP7nF6GPN6IEhHgdfVQ4izl6NWHxjwfWdMXphYsZ5h25UsNuZUjrFwXLA2axLftqhfyiIZ0H1zm9pzt/L+Prth2zGSz6bXQ4mUkm9H+X0dBFgLTxLG1E6hfOiKUlzp3mw2KZwiq1kwe1bJ1x6eYp7X5C5iNxppmXKpEw5Xg55ejakOE3R5wpZgul7ei+OeWHjDCk8b/SfkntNVxZYL/nx6R0+vH+d5FHMxr6ge+yQhaskH+abyu+e8wd3PmJuEvSldEY/ysms5izvcrTssX88Qj1O2bkHg4c55VBz+K4m/uoZ//D6F8TSMCkD/JRIw9zGzE1MZkMdPojCMIQWjk5UNsMOsvJ2vTRnbhJ6Ouc47/N4sUHhFP0oZxRldFRJR5Xc6I65O0qY3wil7aTo4Lzg9uCEa+mYkVrSlTmZj7i3uMLfHl/n4PMdRvcUnSOHzh0qdwjrKTZjxnc0069lfOfaYxQuDF691Dkm95q/OLjL46NN/FFCeiAZPHL0npaYruL4LUX09pjXdg7Jrea8TEmkaTbxMN/icjLlMB9QOkVZpZ+1Vwaa0RaABEEkLQrXELu0UVPR7STzxnwSaYhiy9JGpCrk8sZLHi83KRPFR+ev8OH960QHMd09wZVDh656EKpw6IXFdBXjO5rz1wz9YcbTRRjRG0YZuvSKD8Y3ePh0C72X0P8SBk8M0cwwux5z9HV48937vDXc46gYcFZ0KJwmloapuQIEzK6bhLK0pwrmNkisJn5WJsEhqmqIMQ/+oKsLZNVNzawOs4Aq5PTjosNp3m0QoY14ydV0wnY0J5Ul95eX+O8P32D5wSYbB4Jo5pHWNXWIXjqi8xKXKMa3I87fKnjh1jGpLpv3QYr+0fEd7j/dofNpyugLRzIO7SvTj5jelAxvn3Kre8bCxcHLO9VIMrMRxsmmDK2xuVradQZWDzwOooDy1E4zUYbDrM/xsk+kQv1+lnc5yXoNNL7bCeMwM5Pw2ewyvzQRe+Mh2cMBm78SXD60TUvcdKrkzYRulI8kk9sxk7dKXr+zx9XOeQOYFFbjpEU//uFNukvo7TmSMxMytkhiuhLT8wzjkp7OeSk54rXOUya2y2Ex4Gk2YlYmTPKU3F5m3OmwES/pyIKBzoilblDapY1C0eJUaGzEc4yT9HXObnyOG4aeX+lDGE6EIfdhNtAi+fX5Lp88uYJ/mpIeSnr7no2lR9gw+FRniSoPGhCGNyTjOzHjr5a8/PI+17sT5iZmbz5iskxZZDHdtFg1R9e6QT4sZjqSfBRGSrIdT36j5OUXDvjG1pfcSk6wSI7LAZ/NL5NZTSwthVOkyrARLauuTQAkZAuW6ukC42VQb2mQwjPUS5Yubiq2x5MRZ8cDosOI9EgQTzyqCCPysqyrzVX1WfcmnBbE56EPePCNhPjbp3zvxj1ud47IXcRx2WdsuhznPQqrEd/9wZ/6NvFerHJwnTlkvj4jtNxWnL8oWd4q2bk+4Vu7X3IpDhB25iL28g0g2PFR3qewilgFX5CqkoHOmZqEoqrXS6cYLzsYK7FekC1jynFCcqRIjwXpiSNaBIKbL1TK1TxjU8DV+5fB/oVxzK7HTO5CsW0hcajE0umGafONdMluOkV8+4/+zEu7QnDaDdHVN4SimfioOe+0wHQE+UhyfteR3pzy+uUDfm/7kwbPr0flpi7labHBcd5vpG2RTMoOD2ebPD7ZoDhNSZ9q0pNqeCnzxFOHysLHECaVa2V3Q3A1ItOG6ZqPvCq4XuXVd1HO45TAxZKyJ5ldV4jv/NM/8+3hpbUvQqCBp2pu1ws7FWaA6vmcutpb7CiKkaDsQzn0mIFF9AxKO2wZFlBR+C3OYuIzSXIG0dTTOQ3jui6WFSK0jjvWleLFdv3zPo8Lz9CANnXXum3mANqLZ8dGnvdNripcS+3CXFD7npC3e3oHhs7pSlXDqJ0AVGCWEthEV5LJm689TE+Fa5Wk1wYw6uk0s/pktj3n08YQ2p/41Yh1G4Cptajeu9aZW4Op6k/RbCzXavMa37vYEZJlhRvadTsNmwpTmggo+5pyqMMGKyg8V4Coxm0aaG01iSJqULYFzDaSbUNwFWxnE9mofP1xRI03tKfI2jikXtnOasF6xKwt4fZXnqoapGrCT6M5q5c1vYFKM+pn25/ltUdwal/TtOZb2tdoZ92sae+p1uoqcgWtAWHF6vPdZnJstXCYJPX8PylR1frKyB3TAAAAAElFTkSuQmCC;" vertex="1" parent="1">
          <mxGeometry x="90" y="436" width="64" height="64" as="geometry" />
        </mxCell>
        <mxCell id="hm0pcYK8jrE48RgcLdMb-3" value="" style="shape=image;verticalLabelPosition=bottom;labelBackgroundColor=#ffffff;verticalAlign=top;aspect=fixed;imageAspect=0;image=data:image/png,iVBORw0KGgoAAAANSUhEUgAAAEAAAABACAYAAACqaXHeAAAAOXRFWHRTb2Z0d2FyZQBNYXRwbG90bGliIHZlcnNpb24zLjMuNCwgaHR0cHM6Ly9tYXRwbG90bGliLm9yZy8QVMy6AAAACXBIWXMAAC4jAAAuIwF4pT92AAAbsUlEQVR4nHWbe/BtSXXXP726997n9Xvc3/3duXOHYSbDMEMIyNviES2UsgxCanBMKpZCoXloxECZkkpJNLFKQ2kFq8yjtEKCUdSYRCKSgkikAiZCIjMEAjIBJgzzZGbu3Pfvcc7ZZz+62z96rz7nDHFX/ebcOa/dvfq71vqu71rHfPrR58VFqHiovZkQBTGBG/2UwnjEBJa+YiQdAKtQMLENAHM/AmAiLQDLUCJEAobCeLpo8VGofcGuW3Gl3WG/WHJreZ2JNFgTebQ5x3E/ZmYbduwKj+Fqt0OIBjExf781gS5agG+5h5De10VLFy07dsWpH3HgFnTRsgoFeul3ABTGc9KPcFf8Lgd2ThMKumi53k/ZsSvEBM67Yx71N3G53eFMsWRiG+Z+hI+CNYHCeFahIGCYSMsylPlxFQoOi1OsGfGbv/QXOPuVFdJ6PmcMpvOYCPQBEwLRSVqVCNEaQmU5vmPErT/wDd587gEerC8gJrJjVxz3Yyrp8XH4jAksfcmeqymiz6/r5q0J+b0hGia2ZRUKmuCopMd89OEXx2v9jGM/ZRUdTSiYSMupH2VLV9LlExciI+lYhYKRdHTRpvdGQyU9F1d7TF3DQz90F8RIGBcEJ0gfMI1Pa47p1Ezn8+ajCAgYH4mFhT6AEwiBaIUzP/MUL955eusUl75kYls2Lz0cff2wmHPqR9kQTXAZXSEazIceekU8DSOu97P0BRiaUGxtWjeuX6yLWPqSSvr8nk88+UJueucKf25vvQHSSafDCkQR5NEnMbMZ4XCPaAz2+gnxZI6/61aMDxDIhorGgECoHO54xZ+8Z8LbX3I/y1BSmGRQa8IW1J99qbvUvuBMscyHN5EW88eP3xKvhAn3L+8kRMm+pCe/9BXLUAIwkg4hMvcVlfRcanY5X53wqYt3s/9jBdgE7zBOi4lWEtRDIFSOu3/uQcQExrbLiwfyqfRBeE51xH/6xTdy8+8fgwBhbQh99NOCqz+24s23f4XCeAKGeV9xplhy6kcUxm9BX4106OasohsOr+JaN8X8hz95TQwIjzeHGdJqMYU2gJhIiIaZbTjpR+y6FQduwcf/+msTpGMklo5QWkyEOBhDnrzCKz5xMfscwIFbcLHdY2abbHC99GSeavb50k+9nMmTi/RCSAjCGKJNa4qF5TW/+IV8oqtQ5PXqtedq9mzNKjom0tKEAk96z8j0mH/xx38lignphSjZCD4KYXij3kAt2gTHp568m/M/KcmHRQilRVq/Bf3H37TD99z7GQBqX6yN6BpWodhCweZJKZxrX/CxL7+UF/xCg+l8MrJIjiHRGMLY8cSPBt5y1wP5O3bsKkNf9wZwxi0IUTIKAOTUj1j6KsEilDl66oZ9lBztu2g56Ud88t+9lrPvG+fNEwKy6tKJtz2m7vj6j5S86Z772LErRtLhJDCxLWOb3ChEgzUhp1jdvKbVEA1j2/G9L/sCj7zbpFgASNNh2h7T9kjTIV3guT9v+ehHXsdEWm4tb3DGLagGJI1MQl0XLZe73ezOepkvPn5rfEk54pePb+a6nyYLhYJlKDOcmuAY27TQP3rXy7B1BwFiIcTC4o7qZAyTFvrYvbt87z2/jzUBIXKp3eWW6uj/e+oT2+Q0DCngdtEyko5TP2LRV/z2H7ycu/5LcgdTd/i9Ed3MsTpw2DYSnGF5Xnjr3/1EDuJNKFiFgh27YiLtlrud+hF7bon5p1++J+oC9NJUomg47UfcUh3xyX/05xk9s8zRHCcZmviIiRE/LXndB76Q3Wdro9JmJHXRcuAWXO1mW2mpkj4HsVM/ykg86Ud8/e/cTRg72v2SaA3RAhEwEKwhOENw8D0//jtYIqd+xMQ2meApGjTdF8ZjfuLLb4lqpc1Uoid10o+YuYbPvPs1FPMBriFiukRidOMAoXS8+oNfYulLal8yHnJ0JX1OocoOddNKWnTT19oZ+8WSJjhuKk+42u1Q+7Suse340jtegml8vme3P6KfpFMNRTL6/ILl+9/18Qx3Ge6d0LxGoZiAXCiOOF+cMJE2L6IwnmUoOelHXO+mfOQ/vn578zGRGDPk9+iEMHI8/Ya9bMT9Ysmeq5nYltonKCoRcRLYc3U2zCbVVqOJicyHlFYYz65b0Qfh0XumCXUAfaC8smD81JxikU43OMP0UuCX3/9mJtJubd4Sc2zQ58UjOS1MbENh/FZgeuz0gJvvG3zPR6T1mLoDaxJjc5Iis4/88A9+bAvymjXOFMts4Iltc6ZRf9xE3iaz0+cVLV20vOWN9xHHRTqAEPRGuKMVkycWjC81uKVn/5GOn/v4m2hCgSXmGKNZIAxrkxAl/4/eRPOpk8D4nQVGaWwIRGOIlSWKpH8XljApaA7HfG1xy0Cg+swllr7kRjchYAgYfBTmfbVlJC14JtLmrNMH4cAtMly7aDOPOHrBlOhSAI5OsiGk6XDzlupqjVt4zn8u8PDyXGaNMqDbDkF2R1aI+smpH9GEIldXM9tw/0/8WcLuOPl7jAMC0iJiIYSxS8HIGW79qYfYL5YAmZ3p4meuYSJtTnFj2zGziUiNpGPHrpjZVUbgxDbsulUyYCgzfxATWfiK17/7PvCJEzCkR3wEY1J6XPUURytG13q++Z67eOHo6bSm4aCTMTsudXuIDNFWjRAwPFEfcK2bUt5IC46VTadtDGFSgiSKK/W6DnjR7OIWiwQImHxqq1BwtZtR+8QxtOjas3V2wRCFiW0YmZ4du6KSjsPilAO3yK7hjE/GOF1gQsjxwHR9ckmfqkulzvW5gp/8z2/LAXHT9UbSIfOhUgoYQkwQPazmPPyWc9hlB8NNNkmOqbt1ICIZ4vqgIXTRZja39OUa5rZBTMRJ4uinfsT1fsoylFhiRkfy+ZDRoymsMJ4Dt+Cm8pTbqut89ccv0J0Z46cloSqI4xL6QByt44k7aphcbDh8oOdCcbRV5yhSZelLlr7ER8mn1QchHO6ljTc+p53oUu6PhU0GaTpM43n03hl9kMwUl35NorpoaYLjuJ/kiK4+GTDZEDf66RB7hBv9NBlHGerwuAoFZ9yCq/2Mv/edv4uvBD8t6M6M6PZH+N2KMC6IpUuldUxB2809v/Cv7wVIBV4omfsRp36EU26ui3YSePAtF+DQrOvy4TJ9gBhTyepsYn6V5d43fpaJtJz0o8HXzEZF2dOR/j33FTPb0ATHyHbZ9Q7cIkNUH5WOKxmCRJVv9FOEmMSONuBLIYpBfCSUgukjJkSefe1/o+HW8jqPN4f59CvpEN18gl5SXbrbDgemZVJhM+T5WNgh9Q0xwQmmSdCc+wonASdrg41tl6u7K+1O9mPNEvp36kcIMa9DKbP+rTZosj5e66YsbyqRLiI+Jn7SDxs3a9ElisEE8KXwz37vrxIw3FZeo4uWuR8hkHJvJT0hGn71N96ANH0qckglJ5DSYJ+YX06FTrDHi7yoPgh9EMRExraj9kWO6ufK0yyf6bUpaFgTmA16o25UJS3VIY77cX7ubLHg0nc3CeZdwHZrw0djiGLwlWBXPdEZTITn/0rKRFf7nXTgRESDVRNSiXj7zz6A8THpdUPupw+Z9ECqy6Xukkv4pMMBOAmIiYhJstnYdkP036GLlj5IrjNO/WhLB9BNazBUsqTPKw9QRAC87SWfwygt7yO28ZgQEZ+M4VY+leldgBDp9opcjyx9ScAgfUj0tAmOm6tj4t235RSST37YdBIz1/5l+sC1P/cc6o2gp5vXSwOeNck9umgzEVKZCthKxXrVvsjGBfI6lR8cujnuuEl6o0/xSVqf4kAXCFZQwLnaQ4Cf+dQbCRj2XJ0QICZyZiAwv/7oK5PyohXeEANMjJn3A8TSpT8nXHkVTF2T6aqekPrxRNoM4Ym07NgVTkJG3Mw1WWgtjM/Pq97YBJcLKDXwRFJ9canbxdRtOhifgp80fTIGJGN0ARMioRCkC9z54TYbP2CSAa60O/TRIh85m9jdQDHTbof0t3nyXYoHoXI890XPpI3YJqdChfB8Q09UKqxG2QyESpkzgYqGJjiutjN23SrpCoOB+yDMfZXjh1nUSU43rLlJiNi6+1OzgTtuOHTzdUUIcK485aBYsPdIw/LCiPmdM/qdCj+rUk4dTp3eZ2VGg+N3nHmGwni+Nr+ZmWu2BA8NrKd+lP1WH9UtNjV6a5JqpJs9KNbNDX1PF+1WcRRPThMxi2lNWrAhkuJDSEHbLjukj7QH4yz5+Si4O6orXO13kkTcB2w7WHpiAYurBdMlodN1PqFjUGuBrPTcPrn+LdK0kqBdt9p6TpUiIcJwupsqrqZO/bwa86ibZOMtQgV0cOvN6TBCwATW3CUEpE0otYP72mWHnxY8tjrLmWKZXNOTqq89u6Q5LImWtMEheARr6PYKfGVpb5oSJgXRpiZGt1vmhT5bjRVi1uE3T1uD4DKUOSVqjMhaxOAOighNj2PbUg3ZQQbF6vQFZ4iVTQcyuIJmK0Wv8SFpGD5g657/9cTdGY0SBl7uEaSNGA/Sx3zCoRQIJNpZCs1BiZ8W9LsVrvb4oYZIrpf+rSnsbJF0hGvdNJMcZZvAVmmspTKQNzwbVKplKLMh9LOV9FTSU58VopWkT+qhFcNzBhB9MqGBEImf32Ppy4REDVJXux18JUQL0gSiM0gfkTZgm4D4SBSDbRL97EeWUAoj0+fF7Lk6++dIOq5100Hl6aikZ9FX7Ll6K+LvutW3GELV6eVGsFOZvg/Coq9yidwcmEzPpfXpsQs5JkBq0EBihYjh8IFU89zoJjj1s5FLUVP6NacOzkA0SBcGa5Jha0JkdXYd0HSRqsmf+lH2/fPFCVf7GdONfsBqCGbWBJahzL2CJrhv6fcpr1BEOGmyPhBsWovxkVAOAkkfUoNmeD4RuSEoNh5pUxo+WyxwhfHMbMPldif5fVj7v7QBxBCqtWKkr0VrmFxsWEWXuzKqwEJSgAMmyeLdbiq5o6FjnerExK2uDqwlMRVmNhnh5XY3ZwtVreoLniiGMErwBtYp3BhCaaEc6HznCZN1oF6GMiEgCxeaNiNEZ4jBpBgAqdDYiHPGR1aHqZZvBmZ24BYch3HuMG1yeUWKpiCdCbjY7m2V4fOQiqo+CGeKJcf9mD1XJ52imOdAqgYub1j8yBFliF2bhzT8xygCXHrBNoFdt0pjAGfcgqUvedHkKXyZ5C1M2nB0ZsirIW9a2pANhElQ9zHpd8d+TVtVavdDo2U1KEB6ddFy7Mc54BXG4yRktxnbdPLaP9wcktDP+yiEMsnydrXReo9kEhTFpKbts6rFJrjUk7jRT6mkZyINJoIvDaE0+JEywfQQSjMML0h2FeNTH25TV4R1dbcM5RYCtC7QdtkmzPVPY4xyBXUjPfmAyekSoLphkibg1j1D0yfxdtMIURKafWU5ujMF3JltcHqzP5w/D7cMYNIHJISUDWz6sLRx6wtNiARrmEiiwDoRoo0HPa3N6k1dQ0ygGpqWlXS5HacI2Qyqm9+lfq8FlzUBuwLpUoYKkjKXsYMbRBAf8IVWsSTK7FOs6aJFfBSEyJ6rU8UUE9SJiQNEZ4YSM91Ei47kErAMFWObFqPtNYWnLhrIs0WQdD7tRocozOwqnfQGzDeNIMTcr1B6DcOEyKUw1PtpjdJq9RqzLmBCig+aFa6/NK57Dgq5LlrsosuWi9ZkQ0RrCEVyjVAlowD4Kj2qr+uCVfjQEz9wC0amZ2KboRcYtkZZdChLmxerUGyVxUB2BZXZtFos5x4GNEKS69XXt0r3OKR1MbzyVQ9lI4uezkRarr94loKGSRb0Y0kw6pMhZOjCqhsEZ/ja4gLX+2nejPrybIMPHPsxx37M3I+4rbqeJPFnDUfo48yucgwJmBwXFBFzX2WK3EVLMe+J1uQ14lPpq8qVoiEMZCgUhrtnlwnRMPcVkkZekjLLX7uWTn1AgZv77OtrbhCzkdwq8NDxua2his1LjaEbFWIOmJaYKzJY5/25H+U22mb8UEo8G5onuck6CDaqA4bSpi5xabfT9kDy3CIx0KNuwjfrM4i2pEbS8X3f9oX8IV8JoZR1HFAfCutUSISL91/IYocSFIWzpkhdsCLCD7NIm8qRuo/K5tq9UeNo5A+YzBjPFgtk1acguHHa4teyWDQJqdJ63GlDeWVB7UsK8bxw9szgAkPb6nK7S3VlRSgS5wfyxtXvgZQiB+Jx4bN9nifSqk+/c3NY6dmTILrJTeRsDkhA6geoO+jndHgiD1dOy6RYhTi0y0wOgCZE7KqnvLHCLlMP49orD1j4krG0XGp3ER2OTFS25bF7ZlRX2ySJR0CSv7ulz8NPmnakCRSL1Mba7P930eKHfL25MWtCDpgK8T23zFxBA+CmUfQxd4qGgihNqnX0Y0soEgeIhSA+IE1q3UvdJ4ms8UN3q+fM334CN2SspEkMC9Prnfd+nPp8tdYEQkJBP7I5AGIYig+h3S0QHUHbmP7QGcM/zQUUzl20HPeTLHKqK6r+p8RHeweaEse2Y2JbvnR6Wwp4mvK0URoibt5ij2vkpF630a3wZ/afppDUKQ4YRBenzOxrywtMnmkSe7JpSBGz/jN+oJTKKkPkD4++jev9NLO0mV3lE1PWZ03IPq0oURSoy2hKvqk83YL89X4KpKCqrvP0ap9PfvXbE8yH7nVx2uKu1dijJWaxVqG0g6wCyeYlemLKt3fcioP3PYFt1zFAAx5hoJVuoMuVEJzh8V+6O6WUjUiuG1X9v4uWq93OFt3d5PabbLGLlj233HIbfU0zy66ruf1DkrSKxmPnLfbqSeoa9z79tV3afIyE0nHHBx5JgszQKs+NEYWjlqYv3/0m5VFHHPwfQ2o/QZ7elDbilqkUHd1I5EQ3prDfHIrQQYhqY97w0M3zKW+2r4/7cR7K1gCrMWLpS+Z9xVE3YfL4Me64wd5YIid16lWWBbFw6a8sUhuvsMjD30SIW627JjgkxKTAbAadUz/Cvfdy2jzkajAjwqxFCNsEfGVSD1/WmrvCFtajNxobtOl57MdZ6dlsgFbSswoFtS+yMTdZYBctr9v7BhiDLJvUvdI02PVbEj4+TbQ971OJip/2aewujf61qS+giz7pR1mFfeHuM+x+KWn+4hMZki5g25DK4k65d8DVgV/5t9+VaO5GkyMBJuZ0pgZW1OWMMSBEBnK0lszWE10n/Ygr7Q7XuzTL+LMPvgG6YUDDbDIekzrXziYUjArk4W/mwApkiU4BTR/Ww0x6MzGRV/3mN3Cr1AuQLqlD/cjm2sCXkkTHCLuP9dw5upwZ32beV1/f2QiO+nwT3Hq8fSifNWbsF0vmvsr/ry5W+4Jb/mXaJFbScISzhN0JcTJK80vDHCPAPfc9nLXKcR7TSTxFal/gJMlVKkymGZ6GG92ER39wEEaGdCg+UUoT1xlB54Te9/nvyhuodHh5yAybzZHNcTwxkXlf5U7ytXaWhqqi4Xo3pQmORV/Ra80QLHdPL2HnDVEkD0SE6XrwynR93vyDf3/GlxfPpZKe/WKZJXWdi5AQU0s79eFSvd0H4VK7S2E8r77jMYJN5aaJcci5a8RFAVunhuQdHzSZqWnE18ywGRTnvsrcHtZd5donfUAN4zYGGrtgccbTR+H997+eMK3yvILOMoSRI5QpABIjcuOUv/Syr6ZobwJH3YRK+tQGNJEb3SQNSQFD66nLUFEkHFZzvuOfP0D51DG27nM2UJdIGvwgl4+ED973nYykY9FXucGhzRPtDdR+/WMHNfi2WxRcb6db43u7rqaPlrHteOE/eWJohyWV1wwDEoSYRnjGBebpq3z7f3+KQvy6pjAhTbBKS+3LZAi1tvbkVGyY2obaF+lNRF7xoa9jH76I6QJu0eeiSA0SBYhw+0dhz9aMbUsTHLVP02E6JLn0JWfLed7Y5kC2CioBkyL08OMKRacQ+Z9feRHx5rOpXd/2ieVpexxyk/Q5v7WkDiU7w7hdupfkIepKOpzxiJM0mbHZs1dDdNEyHnL3UTfheR8/obgyzyNyMhijmPfYlcetPNJF/tt7/zJiIpX0WxF3PjQ01Oc1UOYiyARClOGefW6mLAbev18secHPLNddYGMwqy5TXW2OjH/+CmPbMpaW035EGFKpImFstZ0niQdo1Fdf1SEEXVwdysE9Ai/6tYcpHruM6dJvBLZybkyuUZ56fuOBV2y5k6bXwvg8eq8uoX45tt1w8kmiU3S4YVb4i999G6beaJrEmDKBuuVJzZ0feJibx6fDeF1kaps8f6wkSH+LUEmX0qC+oHN8IUr203pYZDOMsNW+5MW/9TTt2VFiWHWPXbTYukslZxewdeDWDzs+e/mOPAWic0M65aH30wXdUh1tTZmswvALEwxniwWf/aFXEvZ3iJMqn34sbB7XtTcWvO7DX00nPKBWkaxCqq5DTMwHIZuL6UNSWaauGUbWC3ZdzY5bMXVN9s8QDS//6S/yyL3Tte42kEVpfarBj3vcvzrgf/z662hCwWKgr5eanYyw2hec9OOc52e2yaLnST9iYlu+euNmPvMPXpMivf4YS9adH5zw9F/c4/b/+gyX250h9hR5P3rAeuqKOD0I8wOf+1txv1gOUxnpBmfLeZ7535za1C9LzcmQffsrb9gl3HlrHq+JlcX0AT8tU3uqEN70b36Pi+0eIRqOukmy/vAdYiKLvsqB86gbs1/UfOOtt+PPTNJvCc3Q5u4T7TWdx1w/5uW//RQj6Xim2aMJjkI84yHrqMvputUgGp+a4DA/+kffF58dJTcvNYr25ZXTh4HDj6XlqJvw6Ueez13vXa5LzpiGl3XCrN+rKG7UPPiuKf/wtb/DE80BR92E89VJ/nntSydP8J5ffTu3/m6q/uyyS9FdZOu3h+bpq5z/2AofDTPXZr6QUpswHTKI0ul1Gly7nO7ZvP3+7486iqIpceErxtLy1Gqfg3KZy0c1RDNocoVs0NqQhiQ+8+idPP8dj8Et5wcDpPfEwg2ipctNSuOTcUwzoGZjIk0hbtqeWDpM2zO/a58X/OOv0EdJrbNgGdt2QE+KL/qaXkp9nYSBaKWT1/2YH/nC34ibp1lv/KpKb6CW1DSlRkhWL6hsn98P0EfhsJzzBz/9as58+jHC+YP8O2GGcTYGtgak59zGzGDXE8sC03bEccm59z/FzLXM+5LdIRbpzFDAUPuCHbeikp6n6nRoz76mrsmuu7kf847PvzWuSUva/K6r0zo2BItdt6L2xbe4AaS8Wg/DlhpxC/F0wdJHwUfD3dPL/Pv//Xqe/2srzP/5v8hohJw/lxBiDP7KVey5Q77+rtv4m2/8NE/WZ3IzpLI9XUiDkrUv8glrcZRI2/rgal/kIK7G0nWObcflZicjyPzw598W531JJX4gHyl96IeUCWZIDZvVAKbuctKPGdt2i75uoqrxLgcfPTVn1tE5TYvUWwgEBv5vtxqllXRb79Pv3nV14vu2X6s+JgXtNQIi+8WSo25CIZ7/BwXugQefKHWmAAAAAElFTkSuQmCC;" vertex="1" parent="1">
          <mxGeometry x="90" y="177" width="64" height="64" as="geometry" />
        </mxCell>
        <mxCell id="hm0pcYK8jrE48RgcLdMb-4" value="" style="shape=image;verticalLabelPosition=bottom;labelBackgroundColor=#ffffff;verticalAlign=top;aspect=fixed;imageAspect=0;image=data:image/png,iVBORw0KGgoAAAANSUhEUgAAAEAAAABACAYAAACqaXHeAAAAOXRFWHRTb2Z0d2FyZQBNYXRwbG90bGliIHZlcnNpb24zLjMuNCwgaHR0cHM6Ly9tYXRwbG90bGliLm9yZy8QVMy6AAAACXBIWXMAAC4jAAAuIwF4pT92AAAWb0lEQVR4nJWbSZMcx3XHf7lVV6+zAZghdmIhQZCyTEuUKNvhkCWHZPukgy8++ODP46/hkxwO2xdZoYvDcmgN01poUiQIggBhADOD2XurrqrM9KH2XgAqIyamu7oqM9/Lt/zfUuIbf/MPntqQ1qMnDpk4vBR4JXBK5D+Cl4JVwysQNvssnF95HzTnUTNXfha2ek44j5diYa7i+rJ1ROrBeYR1COsW5sS5xv1axYsbdUrglAIyhsh8AkdzM9IuPlss1mDckiFcNq+wHuH8SoYJ5zOi5odecu+S+8T8HqVsTtNYOGfOMsJedH3ZYsJ6VI0Z5RL55/m5VklWc38+n9uBk1A8U7/e+O+zE58jur4fTU0iik0tcG3uoVXDBrIxx/ypeiUahJfS8gK1AvCByCWBkligFPX6WCB+yajTp+eJXiaKXgqE9UuZUBf5ukjX56rrcvF/gTkvYEKpBq5YSy6/b5nOwyIjColwDi2T5VxaZmReJBnLflu6yRrxhc56LRauLYw5MV+Yd8X1lSNnil554i8wSquuv4gIHzRPuH6iIq1vbM6qL7HmBdOXScIXOgjnEGnOgFIk65teYmHLBZa4pPJzMYfzpYHyuiK8Iea6ItxrUWO6aDDnZWPpyeenWxDptWx8rw9dEO+1KAlYOME5hjREN3+2MeaI91KUmGLZvC7fYGkngupQvFR4JRHW4VWT8DrxLzr5ZYRXDCiAwxI8UBCzUi/nxgIjqIivb1I4j4xdecqSptotk4B5cfdKIuOUhbHC8jf3KSsVEIktfyg46pWsFqyJ8/yYZ0xxki+zEyJ2yDitdDpe7V2y/YgGAyqJkL+/8SvmyJmg60SvHMsIeonvbtiGmhsrRLcOUhoMn59nCYHz4r/w+wtEfv53Pc9ZAG9UwyYsG3X9LghUuUiqaZLdVDdGtQ37lsaFBtsNiTYN0aYkbQucAZ9vRziQCeipr/4mDjNJEXHGADlN8Fpm+y3cMRKvQcyWqIeS2T6cA6PxWq6w9wXqeskQqUdQGUSncyslRXna3ijSribtSGYDxWxdEK9BvOawaxbdndHvTWmbnHmiYnpsFdPYcDQM4TigdWwITg1m5GmdOMKjFJm6kiHCOlygEFbgjSqlbP4AMLo8mNUO7yViPy8dInYEx1OQEts2xJsB0YYi2pRE5zyz7ZTehVOubRzzxmCXO+1n7JgTuiLmxHWInCGUSWPOyBnGrsXn8RafTzf55OQ8e0cD0rOA1r6ivduifegIj1P0MCnVwgU5gdYhYzKJyOf0rYp4qDm4ukFZahdW6XxhJKXAdlvE6wGTbc3okmB6JaW3fcbdred8ae0pb4RPuR3ssSljNvNo06BIGDPzjth7khpfk3zbT4N9dsM17vY2+WzrPJ+PN/js/Cana32SpxJnNB1AD6u9ei0gBq9cqRYLw7rMBjTRVkV8YWkbhM6P/JoNFUlfMbyoGd5wdG+d8BeX7/PV3me8FuxxWU/pS0VHBCQ+IMEydBawBKKa1wgaTADoy4jQJGyqEVfMEYfdHh90L/Hb7kWehFt4aYCcCeNMlVbarzwOKKRCzxNejHk345VcyQSvBTbIdDy6APrqmO9c/Yi/2/wZ17QviR75hJmPGDtPguDItjlzIUe2V4q/ESldES+sEYqEgYwYyIgdfcolc8yr7ef8QL3FQy4gU4NMNG3rUZFFJPYLeQq9jPhlnqG8xy6qhpcizxaBDTxb/QnXwwNuaYkRisRb7qeO3XSdI9tjN11jPx7wPO7zeLzO/qgHQMukrLUiNlsTzrVGbJgJG3rMphoxUBHrckJfRnRkQl9m3/e3BpxOQ86GG+ipRM8UMnXIqOZ1lEAgM+tfB0q2hgMWGJBb8oL4Jux0Dd/tpSANJdGWINlKeKV7Rl9O2bMxe7bNe9FNfnJ8i/sn5zg+7ZIODfpUY04FKs4Y5yVEGg7bnntdj++ndNamXFw/4/bgOa91drkeHBCKBCMc/VxirocH3Nla5xc7HaJRm9aJxAwligrQZXt3Gfokjw1yd9gwDQsxf82dFb8XHC2ZpSuMLxzIieLTo3N8373Df4Rv8MHhDgfPB6j9ABWBdgJjAQdmkuUQnan8vhkJ3LEg7QZMtxQPZyYTVWHLU++QEHlF4hV9OeVS+4ReL2Lca5G2MnU0tYP05Ewo6IDMPdolblDY3H8jF06+DkkLsFTgfGk9ZuTpPJXMhuvc0+t8LEFHgs4UzDgjWlpfEitTj9OCpCNQSQZ2vBRYA2omkDNFMmxzf7zD4XaH9BVFdzDjYm7uJxi29IhLrWP64Yxhy5cewAUaHxRRYC4NrYpcgcbLmhcoCCwDlhckHgqDKNI8XWU9MvEEZzkRe6JEdFBLoqYF8fn/fC0VS2Ti0ZHHBgKlBdKCmmUMBM2x6vP5YIPDbo+hM2zKGCMsW3LMUJ+yHk55Yny1bt1Yz6fOpKRIgC5IQMYE98LYoGQYEhk7XCBRkSNwlKlzr7IEaB3aQi4BReo8d1Wtmc2yz4lDhArXEoBEuAxmJx1BOlWMk4CJC0i8IkHkdiDhzI3o6BhEFW1mQZ6q7dkjpnEOgQvGvAAJrsyvUU+DuZIJxcLFcCajfFlqvMgdAg0oW4xUKox1yFSgZoJ4IBCxIEo1idNE3gARJpeuQFi0cCBzRjtKGL50yDxeQGcMWHB1Na4tZ46HejrZFvG5K4MkNbN4KSjQbSPer8X9dX9dga7sHp0nUWWSXQ91SkfN2FQTDL5EigCR1ZmNSSrVyuITma0nBSqPPm3blM81JKDOiC+c5LRNRuAq1RGwoIvLRulS83tV7MoMsg1lpk5tx0ZrwqYaEQqLEWDwHDnN2AcMkxA5UchcrYp4oLF2jgJlnOJCgwtWRYMLG3x5TUDGtoy8ihxcCTuXJDSARVtTZIryzy5UOCNIQ5C9hK3WhC09IvKKdWnpCcOehYfxefaHPfRYZAbWVhImcWUCJpvX1dbQqxMiX4To+VGEnaVUFHNq2cAQdSA1v75IbPnZGUnck8QbngtbZ7zaPmBLjgGIvQcBQxfy8WSH4UmH7qlAz2xli/JUX5mfqO8xsSjrl3mB5fbghYTncbfXsgo7a3m3bDOZ/tXBVj2ntyANUmQ5hHVJei7mrc1d7rafsK2mDL0uA6bPk03unV1AHhhaJ1nSpND50v0V8FdKfKBrafGaF6gHP03w8wXzbrm4u7aqwFL+rIxt/r2JM1bm/aTAhorZQDHZ8WycG/Lu4FPuBntsKkVis/kSLB9NL/Jgf4vwuaR1kq8jBT4QyMiyHMgpZGwRcToPhRe9gLC2GUDMFRrr3MU5fGBI+wE2kCBBRS4LTqZpzuS6PahcrQsN8bpB5UHMbF0z2Rb4WyO+ffke77Qf0sn9/LqE2MPQWX528Cr6gx6Dhw4zcqQdCUjkzBPkUWFJT/7ZBRqvHKxMif2+IydepNlpqyj7KxYtuA25auRqUEqAc6hhRHsY4ULDbCtkdEkxupny9sVn3Gk/oy9SAiEwKDoy4L0Z/PvwD3j05BxrxxCMLGaSYm1e1k+WJE6lLCGyQ0OgmxmhklN2Tnehad2L67k0iHp+3jlklFT5uFnakBIB+KBpC1AKOU0QZ2PslXNEW4rhq47rN/f49rmPeLP1BCOgJbL1Jj7mvyZv8Y/vf43wkxadPYsZpchpzaYUCREpGwZdxinElIzI8wEVsFkFgUviC8LzUy9PtWBQbuhEze2sGgUTXJgBE0mXycWQs2uSzvUTvnHuM74SPiyzSTPv2HOOT5ItfvDsLVoft+k98ZiRW6xqucrrLCuqRNstZgNVIMFasvMFEHglIfPWvhh2rjlByYV7BBKRWNJBi/hKl6M7itkbU757+QFf6z1gW03ZlAEdGXAvGfPz6TW+v/sOj+7tcP6Rp3WWxREukJQrzdcfyN2uUbhAkoaKk5ua6fYSN1hxKdfR2kkDi0ZwGSPmagDlc7mdqDMsUwdHtGk4fk2RvDnhu7c/4jvr/8vdYA+Tn83ExXwYb/Ov+2/z4W+usfaJJDxOEanHKZGlwrUojW0jJa4z3XeBJF7TROuK4e2US9cP0MuSHF94zDNn3uiUbk0u3qMkXktcoEj7AaNLiunrM7598xO+t/Ee180J6xLGjjyd1uf7++/wq/vX2PxQ0Huaoie27EUqijMFIoWqOFJA8nhNM7yomVz07Fw75K8vflDHAct0psig1GFsXV18Di5kmWGpE1/YhIbFVxkYcYHCtTXjnRZn1yXj12PevvE57w4+ZSdPeOxaxW7a5yfj1/jpwQ3u39+h+8DQOnGomUNFFhdIhBXIODe+hbcJdFkJcu3MxU7OK85uO155Y58/277PjdY+urG5FWP+nlXgyLd0wxgWzKwAVp5CbxtsRzNb14wuS9KvDHnn4lP+eONTtvSIiTMc+Q676RoPZhf40dM77N07z+ChpLOXFz9MU2JFkvt86zImKwGBxiuB7QXM1hSTCwK5PeUbFz6jp2bspmuVCtShaiPUnWNEHeXVgUwl5g55OsYHBiElrtfK0OBohohmECfY/g6jSwFHdyF8/YRvXX7Au/37vBbssa2mdKXgcWr56ew2P3j6Js8/OM/mx4LO8xQ9ycCOz9GiTLPgpoj/C4/ilSxjgKSnmZ6TTK+kvHlxj28Ofochwyn6ZfX0+da3eXc5z0AA322XJyESmxm+JMUHBrpthtdCTm9B584J37n6EV/pPuS6OWBbTTEiE/2fT2/y44NbPHm0Rf+ZpPM8xQwtsmZAC72vo70yCeJ8eWBJRxL3waxHvNI+K4kPhEXXDdR8783y0nSB5avwF6hEL9DYtindkBzNMogcBkSXB5y+aji541m7ecS7rzziS53H3G1lSC9B8JvZNr8c3eDHexnx3QeG8LBKo2UJkizgqQOfcrimqnqjsC2Ba3larZS2iklQZfFFz1v/lcTPYf6ScfVoq/asjC1iGiOiGb7bZvLqGgdvGWZfnvD1a4/4y633GaiIK/qIHWU5cYJPki3+7fBtfvnkKvGnAwbPBJ09h5lkQMfn1r7oLpGxxQWqYZPqUaVXEhsqnBY4DVJ4NsyE2+awJKuGBIsTnovclqnIPLjJGeLaBmE96nSaET6J8JtrTK6tsf+HBvflIX9/55d8tfOA6+aEIxuSeMWudfw6uswPD7/ELz67jnkQsvYYwiOLnhSMB2xzGwXxBbH1SLasCRShdwqTSYvncZ+hMwxdyNgHTSNY76qqu7460Q2JySu8oo6n8vKT77ZJL25y8nqHk9egffeYP7n0GXfbTwiEZehMWRd8nGzyo7273H+wQ/uhof/YY8YOFfuM8DyVLhNX5h29lIha+k2O0tIWCOux3Qz1OSNQsSc8kIzDNj9M7/LfW1eYJZrUFtHgvC7Xcf+KUVaPc6MjUoc6OAOlcL2QybUBJ7c0Z3cSbt3a5c/P3+NycIgRKWMfMLYBBsvjZJN/evRHHDzcpPdQ0X3mCI9rRi1PphbEl80buvl7McQsxbeD2oGAmTj8EQgnSZ+HjMIQkWYZZF2crtc5lF1VD2i4yWzmBn6wDuIEd77L8PYaR3cVyRsT3rn6mHfWH3I3fILBMvEtDtMeR7bLfjzgZ/uvcvS7LXrPMh/fOnWoyDUQnopzV1dYewsiyfTdBToXddnwBsVQsUPFhQTRaLWDmhFc2URQcDZ1jd+FY9EDbAwY3xhw8GWJevOUv7p2jxvt51wPDgCY+BYAn0YX+J/jK3zy9AL6Ycj6IwjOHHqWZ4NVZunVbLG5CiijTRHFiF5YuT4pawFXLcHK6s61Wj6gVkKGZsSW1rC1qln/4tl2QLIRcnKjxenr0L9zxJ9efMB319/HYElQDG2b3XSNJ7MN/vPZLQ4ebLL2O8XgcYoZ5fC11kgtp2kD1y8EYbnEiTTAhaYyguXLHaIhEdJ51FyjtpeiZgTniAYalZWFtlPr8C2N7baItlsc39a0v/mc771ynw09YducYrDs6CGJlxymPX58eJtffXyd7n3DKw8snf0p+nhaJU2WhM4FrHaBKguytqWADsKuYQOJawmEJbcVBU7xKOdR41kmvbmqZHT6MiFbCXU9c1oDRDK2VZdVkeFRmajZbovZuRZnVzWjmyl/e+W3fKv3IZE3xF6RoPh1dJlPZ9v84vA69/5vm/CJITzKC6EtRXKpT9LLrLXTWS3RtjKs7wykIbhW1nhh2x4feHxQHJRAtCxKO+xhi3BXM3jkCA8twTDJiCyCNUBGSRmbFBKzGAw5B6oJLryWlWco4vpZig8ymBmd83TOZ/n6Q9cl8Zozm7m447TL87gPQH8wZXTLE11VHAIysCht82k9xlik8Cjp6AYJvWBGR8dstSa0VVx2jPRlBGQ1gU01IvGaf9l7mw/MFTq7ChU79NEY3w5Kyamfej1ZoufBTqnvia18v1GltS0mKmJtr8CGMAhj1vQEg8UIWxZmjbD0VMS6nnDS75A4hZGWdT1hw4wxwpLUTLPJMW9fRhiREghLX03piji/5giFpSN82Vy1axU/b9/kA+VRSVZwLdN1ZR+DbBBevi9AbZTEl/pOpZdSZLG383ibqUDWCA3OeNbCiL6csqXGJF4ReEtHzNjhlAQFISS5GzEixWAz4vLTNMKR5LX0xKuSESavq4fF91q/QVYai3mQnOP+2TnkKGOklwLfDXFBgVE8wlXE15O4Sx1fI/tLUfnxVQu7ymBv2lEkXYFrW/omIhC23DBA7BWBsAxEhKn9Vic0O+2kJHLoTCkV2X9J4hUTqopu5A1jH5B4za8m13jv+CoPH5+nsy+RqcMZSbIRVlmiepZ6rmt0dU6wQHj5g2qa4GNRqoLtBSQdSdoRoHxJ8MSZcoND2yb2quzwyohMSiM58S0iZ8pnh66dNUC4bFuzXGImNmDmNKlXJE4xTgOeRz32hz2GJx3kgclC5j1H6zQvfhiZocckLUPyxsHmXmYxH2AdzJWWizoaWiJUlmC0rSzMBBB5Y9T7vSskXjN0Icdpl+OkwzANGacBqZNM0gDrJdPEEFvFLNHM4mytJNb4VOKdgDhLcxV5GZHmbi7NusqEE8gZ6AjWZmAmnvAkyxcUBRkXSGRkKy9WHOpc+L9UAsQ0RuSxPdAod3ujcDoPMmYec+Zp70om03X++dHXQXu88hkBadYgIVKBcKBikUFYl3eFpRAAToNxWU9Q0eEx/15hdT3vKskDpOpljPzG3EjnpiUzdkVyZi7v6VWtNLbQ0l4Tl0IditBTpg6iXCgiT+tMkLYltpV1jTkjqo6wNNt0RnB+EvOBZlIQ6RFzAtm4L+8vEmkWJTqTQeYs4Ekr9EgtuWNUA9C5QONCVTJOLxCf99I3uF8vY+XRmCQrenop0JPqHeOsb7D+7HJi5oOSZfcW9yz0GeWNWPXhtMR3Da6tG33CRctO/ZqoGXS98GKBrNLZK0fxjpEU2dtfzkOauf76O0Ll+8P5VEX3mEzm3kdoZuHLa8LlKTB8gwnVSxqLqlLfI4CIqxa54j2jwihmrbJJWv64bLysYFLnrCsaE+uRV/78fBpbWo+a2YVaXvMmUTZjzp94UXKHZq+BiNO8A2TFGx9xAtbi4xgfJ2jyFFjZ2aGyQme90aG4Xt9Yeb326kwaVm+cz9ca6q/VqygrasgoQU6TRl5xoWUnf7VlmUTW03ZiGiPipFJlu1z3/HSKj2a4OAFn+X/tswwRQ2UAxQAAAABJRU5ErkJggg==;" vertex="1" parent="1">
          <mxGeometry x="89.99999999999999" y="305.5" width="64" height="64" as="geometry" />
        </mxCell>
        <mxCell id="hm0pcYK8jrE48RgcLdMb-8" value="" style="shape=image;verticalLabelPosition=bottom;labelBackgroundColor=#ffffff;verticalAlign=top;aspect=fixed;imageAspect=0;image=data:image/png,iVBORw0KGgoAAAANSUhEUgAAAYIAAADZCAYAAAAtxDcJAAAgAElEQVR4Ae2dh3cUSZbu549757zz3tvdcdsz3TOzO2an7bSju2ka7z1CIG9AQkh4AUIgEAgkEALhQd57772XuO/8opSlrFSWUKmhJVE3zsnKzEoX8YX5btx7I+JXbV390tzZL7VNnbopBloGtAxoGQiiMtDU3iutnX3yq+aOfukbHJbR8QndFAMtA1oGtAwEURnoGxyRpvY++RU9gbGJSdGgCCgCioAiEFwI0PbDAYYI6A1oUAQUAUVAEQguBGj7lQiCK881tYqAIqAI+CCgROADh54oAoqAIhB8CCgRBF+ea4oVAUVAEfBBQInABw49UQQUAUUg+BBQIgi+PNcUKwKKgCLgg4ASgQ8ceqIIKAKKQPAhoEQQfHmuKVYEFAFFwAcBJQIfOPREEVAEFIHgQ0CJIPjyXFOsCCgCioAPAkoEPnDoiSKgCCgCwYeAEkHw5bmmWBFQBBQBHwSUCHzg0BNFQBFQBIIPASWC4MtzTbEioAgoAj4IKBH4wKEnioAioAgEHwJKBMGX55piRUARUAR8EFAi8IFDTxQBRUARCD4ElAiCL881xYqAIqAI+CCgROADh54oAoqAIhB8CCgRBF+ea4oVAUVAEfBBQInABw49UQQUAUUg+BBQIgi+PNcUKwKKgCLgg4ASgQ8ceqIIKAKKQPAhoEQQfHmuKVYEFAFFwAcBJQIfOPREEVAEFIHgQ0CJIPjyXFOsCCgCioAPAkoEPnDoiSKgCCgCwYeAEkHw5bmmWBFQBBQBHwSUCHzg0BNFQBFQBIIPASWC4MtzTbEioAgoAj4IKBH4wKEnioAioAgEHwJKBMGX55piRUARUAR8EFAi8IFDTxQBRUARCD4ElAiCL881xYqAIqAI+CCgROADh54oAoqAIhB8CCgRBF+ea4oVAUVAEfBBQInABw49UQQUAUUg+BBQIgi+PNcUKwKKgCLgg4ASgQ8ceqIIKAKKQPAhoEQQfHmuKVYEFAFFwAcBJQIfOPREEVAEFIHgQ0CJIPjyXFOsCCgCioAPAkoEPnDoiSKgCCgCwYeAEkHw5bmmWBFQBBQBHwSUCHzg0BNFQBFQBIIPASWC4MtzTbEioAgoAj4IBEwEfX0DkpJ6Qw5GJkvUiVTp7Or1vjD/WaHsCz8hh6KSZV/YCTl2Kk2GhkfM9devRbLuPZYjsWfk/JUsGRuf8D7HQfb9p3Ik7oycuXxTRkbHfK7piSKgCCgCisC7QyAgIhgYGpaoxAvysqhCenr75dTFG7JxT5SMjI6bGNLQF5VWSX1Tq9Q0NEtLW6fMzMyYa2nX78rOw8eko7NHTl/KlNiki/IadhCR61l5svVArLR1dMuF9NsScfy8TE97njM36I8ioAgoAorAO0MgICIoKquWf67ZJf0DQyZCY2Pj8uOOo1JT12zOcx8+l+nZht8e45GRUflh21F5VVxh/h4cGpEftoVKQ3ObIYp1O8PkyYsS7zvXbjsiFdX19lfosSKgCCgCisA7QiAgIugfHJJrt+5LZ7dHHdTe2S07Q+KFhp2Qm/9cnr4qNSqhi9fuyPis+qessla+2XTISyDcu3lvtNy5/8T0Ar7ecFC6e/q9Sdx+KE4uX8/xnr/pgJ5F78CI9PQPSU//sG6KgZYBLQNBVwa6+wZleMSjnXlTm+m8HhAROB++mZMvN7Ifev8+cSZdbuc+loLiSjlx9qqExZ81PYSnL0tk455ImZyc8t67OzRBbmTnS0VNg6zfFe5jMzgQkSTn0m55733TwczMa2nr6pfm9h5p6ejVTTHQMqBlIOjKQFNbt/QODL+puXS9vmQiqKlvltu5T2Rqatr74vrGVq9uf3xiUtbtCJOm1g55WVRuiMB+L0SQmZMv5VV1sn53uHC/FQIlAus53SsCioAioAgEjsCSiIAG/+6D5zIxOdd4u316z5EEeV5QJrUNzbJmy2GvCol7t+yPkZt3H0lzW4d8uylEevsHva/YeTjeGI29f+iBIqAIKAKKwDtDIGAiqK5rlszsfJmYleBHRsYEY3BrR7dxGW1u7TCRxVtoy75oKSmvNbaCNZsPS2Vto7mG7eCnnWFSWdNo1EXfbw2VkvIac21qelrW744w6qV3lmp9sSKgCCgCioAXgYCIoLu33+juMRJPTEzIwOCwMR7jJtre2WMk+7rGVvPyuw+fGdfS0dkxAYln0iUkOsXYDG7ceSCRCee97qOnUm8YEoEEUDcdjTvrVTF5Y6oHioAioAgoAu8EgYCIoLC0Sjbvi5Z9YYmy92iiUe/sPpIgo7PjCJDq41MuCyqh0JjTYpECMcfV9NTFTDMQ7fjpK9Ld0+dNEPaBs5dvmWs8b3kleW/QA0VAEVAEFIF3hkBARICb5tj4uAwNj3o3pHh7GJ/tKfgbEGa5mtqfsY4Hh0e8vQTrP90rAoqAIqAIvFsEAiKCdxsVfbsioAgoAorAciCgRLAcqOs3FQFFQBFYQQgoEaygzNCoKAKKgCKwHAgoESwH6vpNRUARUARWEAJKBCsoMzQqioAioAgsBwJKBMuBun5TEVAEFIEVhIASwQrKDI2KIqAIKALLgYASwXKgrt9UBBQBRWAFIaBEsIIyQ6OiCCgCisByIKBEsByo6zcVAUVAEVhBCCgRrKDM0KgoAoqAIrAcCCgRLAfq+k1FQBFQBFYQAkoEKygzNCqKgCKgCCwHAkoEy4G6flMRUAQUgRWEQMBEwDoCSeeuyb6wJLM4fVtHtzc50zMzcvVWrlmA5lxaljAltRVYYP76nQcSEn1KTl/M9K5hwHWmt76Z88hcS75w3UxxbT2ne0VAEVAEFIF3i0BARNA/MCQRx89JUWm1WZ3sXNotWb87UliuknDmUqbsD0uSnr4BSUm9LvHJl72xv3jtjuwKPS49vQNy7sotiUq44F174OrNXNl+ME66evrlUka2IRh/6xl4X6gHioAioAgoAm8FgYCIoKisWv65Zqf0zS40z9rDP+4Ik4amNhkdG5fvthyWiqp6E7HevgH5fsthaWvvMusbf7/1iLDCGYGFbX7YFir1ja3C2sY/7jgqz16Vmmu8c+32o1JWWWfO9UcRUATeDQL02Gvrm2VyasrnA1W1jfLgSYFZU9zngoip6w+fFsrzgjIZGR0z9f7pyxJ5/KJYnrwskVfFFWKtW+58Vs9XLgIBEcHA0LBZuL5rdpnJ1vYu2Xn4mFmcvrisWtZsOSzDs72Dmdev5add4ZL35JU0NLfJN5sOSf/gsBeJzXujzfrEbR1d8vXGQ8J6yFbYfijO9Aysc90rAoqAOwKvHX+/dv7huM4pqlgEra82HJAPP14vdvXujTsPZdvBODl+6ooR8rLuPvK+ITvvqewOTZCE0+lyNu2W6fn3DQwaVS8qXZai/XZziGkTvA/pwapAICAicKYoM/uh3JotKPcfvTRrGCPhm/D6tSlQOQ+fCySxaW+UTE7OSR4UqBvZ+VJRUy/rd4XL2PicPeFARJKgdlpswP7Q3N4rDa1d0tjWrZtiEDRloKW9R+pbe+RZVafZN7f3LJj2pvYeqWnskKjEixISc1o+/3G/PC2olK6+YXlZUiN/+3q75D0tEmpxVu5T+Z81u6SirkWeFFTIZ2v3yfOiapmYFhkanZCWjl5p7uiV/qExGRqdlN6BEVm3M0LOXrkjHT2DC8ZD6+nbb6fqWzqlu29osc2mz31LJgK6j9l5zwQDMSE3/4VsORBjVD2cI3UgWdx9+FyKSqs8RGDrgkIEmTn5Ul5dL+t3h/sYlgMlAqSgoZFxGRwelcHhMd0Ug6ApA519w3LoRq18FFsskbfrF10HxiempLahVb5af1DKqxtldHxSXpVUycff7ZKWdo8DSFtHjznn+vn028ZBpKGlw9zf2dMvE5PTXpxHxibkXv5L+WZTiHR29wvnWhd/2bZoYGhUxsYnfRr4xZ4siQhq6prkXv4LmZqaW7j+RVG5fL811OgNLSJYvytCch+9kLrGVlmzOUTsC9dv2RdjehMtbZ2m8GBgtsKOkHhJvXrbOtW9IqAI+EGgpmtMPogplt9EFsk/k8plcHyuTvp5xPt3c2u7fLvxkFAHCRMTE7I/7ITsC0uU9Mx7plf+p083Gp1/yoUMU78Tz6RLaMxp2XogVprbOrzv4uBI7Gk5dfGGz396sjoQCJgIKmsajaunRQLDw6OCNxEGZBr7uoYWk/LBoWFjBG5q6ZCxsQlZs/mwkf65yPlPO8Oluq7JkMkPW0ONJxLXMFyt3x3hPV8dMGosFYHlQaC0dUR+H1Ukf4gplo9PlEvn0OIlwkZsdxsPCXXUCqho7z54Jqh97z54Lj9sPyodXT1yLOWyhMaetm6TqBMX5FBUsvecev/Jd7u9pOK9oAerAoGAiKCzu1dOX8qU1vZOGR4ZNQbetOt3jfcPqT1+Ks1IBROTk3LxWrYxOFkoJJ/PkAORJ40H0dVb9yUmKVUswxb2gD1HEozRGXVRxPHzXhWT9bzuFQFFYD4C5W0j8p/RHiL4JKlcugIggs6uHiOgdXX3zX+xiOAdhMA2PT0t1PPDMae89yWdvyaocK1wLCVNDkSctE51v8oQCIgIcB+lS0jXce/RRGMc3heeZFzISDfSBERxMPKkpFy4IQODc4aLiYlJOXcly1xjQJrlgspzGJFTr94x1xLOpJuxBqsMR42uIrAsCJS0DnuJ4J8nyqS5b/yN8cB+R88+I+u+fPjJBrl++4HX5bO2ocW4ht7MyTdeQ88LPG7d9B7o8Wdm58ujZ0Xm2qPnReZbEMnfvtomT2ddwN8YAb1hxSEQEBEQe1RCNPj4+7NRqJxhbMx/YVzwms1zyPlOPVcEFIH5CDytGzRE8MeYYvlHYpnUd3sGd86/c+4fHDyu386TY6fSzCwB7B8/LzY33Ln/ROJT0uT46SsCKdgDjh0MEkX6Lymv8V5CtZSRlSfjE4tXS3kf1oMVgUDARLAiYq2RUAQUAYPAUohAoVMEnAgoETgR0XNFYBUh4CWC2GL5W0KpYDPQoAgEioASQaCI6f2KwApCIK+q36Maii2Wvx4vleKWudH7KyiaGpUVjoASwQrPII2eIrAQAtnlvT5EUKREsBBces0PAkoEfoDRvxWB1YDA3Vki+DC2WP5yrERQFWlQBAJFQIkgUMT0fkVgBSFwp8zTIzBEEF8ij2vnRuivoGhqVFY4AkoEKzyDNHqKwEIIpL/qMqohiwge1SgRLISXXnNHQInAHRf9VxFYFQhYRPBRXLGZeC6n3H2U8KpIjEZy2RBQIlg26PXDisDPR8BOBPQKUBVpUAQCRUCJIFDE9H5FYAUhcO5ph1EN0SOACG6XKhGsoOxZNVFRIlg1WaURVQTmI3DqcfssEZTIH6KL5VqBZy2B+XfqP4qAfwSUCPxjo1cUgRWPwGkbEXwQXSyoijQoAoEioEQQKGJ6vyKwghBIzp/rEUAEV14qEayg7Fk1UXknRMCEpMxJ6jIxqetspRZabjOZWtd0rwgoAvMRiMttMaqhP8WVyO8ii4QeggZFIFAEAiaCkdExaWxpl7zHr6St01cfef/RC9l5+JjsCzshO0OOSWzSRRkc9kyCxeIW6Zm5cigqRU6ez5Ch4VFvXFnwnmlsuZZ49qrPOgbem/RAEVAE5iGgRDAPEv1jCQgETAT1Ta0SlXjBLETR0NTm88k7uU+kurZJWPmoraNbenr7vT0AswrZ0QQZHByWi9fuSHj8We8qZJczcoR1ilnyMv3mPQmNOeWzHrLPR/REEVAEvAh4iSC+RH4bWSioijQoAoEiEDARoL6hMd9xKF5q65t9vpfrWNDeujg0PGIWvi6eXcxieGRMftgWaha+mJ6ekbXbj8rLwnJzOyuZcV5SXms9rntFQBHwg0DYnSajGvpzfIn8R3ihHMv1XUzGz2P6tyLgg0DARMDTqHlQ/ziJgEWvWec0KuGCpFy4LhAAoaSiRr7ZFCIDg3NT5G7eFy1ZuY+ltb3LLKDd0zs3NJ7eAWseBxIgKN0Ug2ArAyE3G32IIN4QgZaDYCsHc+kNpNWcu3dJRIDUzprFTiI4cSZd7j58LlW1jXL28i05FJlsVDxPX5bIxj2RZm1i69O7QxPM+qcV1fWyfle4Wf7Susai2KiSFhtmZl5LU3uv1Ld0SUNrt26KwXtfBhrbuqWprVt2X62WD2KKhR7BbyOLJORGrXR09kijloH3vgw427q65k7p7lva7LNvlQiwC1ieQixI/9OucGlobpdXRRUeIpia8rbtFhGwDurPJQK+OTw6LkMjY7opBkFRBoZHx4RtX0adt0eAjSAks0FGRsfNNa0PQdYeDI/J2BLXjX6rRID3z4zFBCKy50iCPCsolbrGVvl283zV0K17j6WlvdOjGuqzq4biJPXqHS9p6IEioAi4I7Dz2hwR/CaiUMLu+Nrt3J/SfxUBXwSWRAQYeFHf1De2et+GB9G2g3HS3Nph/sOOsGlvlJRV1gmqpO+2hJpjLo6OjpveQk19i0xNT8vabUekoLjSPEdPYsPuCLEMy94P6IEioAjMQ2DHVV8iCM1qnHeP/qEIvAmBgIkAqb+jq0e+3nhICkurZHpmxnyjpa3TePtU1jQaW0Bm9kPZuj/Wq/s/ffGG7As/IYxDSLtxV+KSL3njdiH9tuwKPS7DI6OScTvPuKei99egCCgCCyNgJwJsBPtvNHjVsws/qVcVgTkEAiYCJHVUPl+uPyDbD8WbgWXW66rrmiTh9BXZcyRRIhMuSFvH3HD3yakpuZSRLYeikiUl9YaPBxG9hys37plrJ89fk76BpRk8rHjoXhEIFgR+ulhjsxEUyQElgmDJ+reazoCJgB4B6hwCKiKrR2DFCjcm1Dv+wpTNYOy8Z2rK817n/3quCCgC7gj8cKHaSwS/iyqS3Rn1MjWtvWl3tPRffwgETAT+XqT/KwKKwC+PwFobEfw+qki2XamVsUmPuvaXj41+cbUioESwWnNO4x30CEzPvJYfzld5ewRKBEFfJJYMgBLBkqHTBxWB5UVgZGJGvj1bKR9EF5kBZRDBxss1MjSuKtblzZnV93UlgtWXZxpjRcAg4CSC/4wuknWp1dI/6t9Gp9ApAm4IKBG4oaL/KQKrAAElglWQSaskikoEqySjNJqKgBOBnuFJ+fJ0hfxhdq4h5hxac65SuocnnbfquSKwIAJKBAvCoxcVgZWLQMfghPzr1BwRQAhfn6mUzkElgpWbayszZkoEKzNfNFaKwBsR6HIhgm/OVEqXEsEbsdMbfBFQIvDFQ88UgVWDQFv/uHyeMtcj+GNssTlv7Z9YNWnQiK4MBJQIVkY+aCwUgYARqOsek09OlssfZ20EEME/k8qlqXc84HfpA8GNgBJBcOe/pn4VI+BGBB8rEaziHF2+qCsRLB/2+mVF4GchUNfl2yP4MLZY/ppQKrVdYz/rvfpw8CGgRBB8ea4pfk8QKGsbln8klgkqIZaq/CiuWP5yrESqO0ffkxRqMn4pBN4JESx1hlGdffSXynb9zvuAQHHrsPxdieB9yMplT0PARMDiMbUNLZLz4JmwRrE9TExOCovMsGj9yfMZZqEZ6zrkcCkjx6w5kHjmqt/1CI6fSpPefl2PwMJN94qAPwRKHUTwp/gSM+8Q/2tQBAJBIGAiqG9qk+gTqfK3r7YJy1PaQ9LZqxISlWKWojx/JUsiE857L5++lCn7wqwVynLkSOxpYW0DAusT7zp8zLNCWVaeIZJJXZvAi50eKAJuCBQ0DRmbALYBVEMQARPPlbQoEbjhpf/5RyBgImDhmeHhUdkZckxq6+cWyu7tH5A1m0Okpq7JfK1/cEi+33LYrGE8Pj5h1iwuraw111iu8odtR6SmvllYncy+ZjG9irXbj0pRWbX/WOsVRUARkKd1g8YmoESgheHnIhAwEfDB6alpI93bieBlUYVp7GnkCRDG+l0Rcv/xS6lvapVvN4f4qIO27IuRrHuPpbW9U77ZeEh6+ga8adkREi8Xr93xni/mYOb1a9FNMQiWMkD9elI74EoEj2sHTP0LFiw0nXP1nnKxlLAkIpiYmJS9RxN9egS5+S9ky/4Yr7qHCG07GCd3Hz6XotIq2bQ3Sli32Aq7QxMkMztfyqvrZf2ucO8i91w/EJEk59JuWbe+cc9C903tPVLf0iUNrbopBu9/Gejo7JbrL1oMEXwUV2JUQ6iHmHjuwqMmY7/TcvD+lwN7Htc1d0pX79Lsq2+NCO7nv/RPBGXVHiKwrWVsEUHFWyACSHBkbEKGR8dlRDfFIAjKwNj4hNwu7pIP44rFTgSsSZD6tF3Gxia0HARBObC3d7R/4xNzwvYbJWjbDW+NCF4Woxo6LCMjc6qhn3aGz6qG2uTbTb6qoc17o2dVQ10e1VDvnGpo+6G4gFVDtjTpoSIQFAjcq+w3YwicRHD6cUdQpF8T+fYQWBIRzEzPyIGIk9LQ2OqNSd/AoKzZfFiqahrNf5yv2xkmre1dMj4xKd9vDZXi8hpzDbJAHVTX2CrT0zPGOPyysNxcQ+20YXeklFXWed+tB4qAIjAfgXsVfa5EEHO3Zf7N+o8isAACARMBXj4tbZ3yr5/2y4vCch+9f8qF63Iw8qQMDg3Lmcs3zVgC69vo/PccTTAG49Rrd4TxAla4nJEjGIj7B4bkSuY9iUm6ZIxd1nXdKwKKwHwEbpf1mkVpnD2CQzc9wtj8J/QfRcAdgYCJoLisRvYcSTCqnh2H4iXv0Svvm61BY5ABA8ssDyJugEDSM3PNGAFIAhdUKzCeIGN2/EBK6g0ZHBqxLuleEVAE/CBwvahbfhdVJH+yGYuxEWxL1960H8j0bz8IBEwEeAPZHZTc3JXc/rO+v9Rr1vO6VwQUAQ8C/ohg7YVqWaIXoUIbpAgETARBipMmWxFYcQhABL+NnOsRMOHcB9FFZrnKofHpFRdfjdDKRUCJYOXmjcZMEVgQgeSH7fKbiEIz6+gXKRXyWXK5mWKC485BXaVsQfD0og8CSgQ+cOiJIrA6EJiYei27rtXJ7yKL5C/xJXIkq0m+P19lbAYfJ5VJbdecDW51pEhjuZwIKBEsJ/r6bUVgiQiwQD09AFRBf0sok5slPfLTxWpDDH9PKJVinXhuicgG52NKBMGZ75rqVY5AUfOQWav4DzHF8nlyuTT0jMm29Fr5bWShmXbicd3SphpY5bBo9JeIgBLBEoHTxxSB5UTgyssuM68Q007vvFonoxMzsiej3tgMWMw+u6xvOaOn315lCCgRrLIM0+gqAiBw+FaTMQxjLD750LMuSMitRvl1RKGxE1wr9F00SlFTBBZCQIlgIXT0miKwAhGYmJqRdanVhghQBeWUe6T/iOwmQwT/EV4o55/qfEMrMOtWbJSUCFZs1mjEFAF3BBp7xuTz5Aoj+f89oUzK2jwj8VPy2ww5QATHcnW+IXf09F83BJQI3FDR/xSBFYzAs/pB+Si+xBDBmrNV0jfimXo4q7RHWK2MXsLujHrBxVSDIrAYBJQIFoOS3qMIrCAE0l91e2wBkUXGQGxFrbhlSP7rWKkw39DXZ6qkd3hpc9Nb79N98CCgRBA8ea0pfU8QYJpppH4a/KSH7d5U9QxNyj9PlBtvIiaiq+v2rA3ivUEPFAE/CCgR+AFG/1YEViIC41MzsvFyjbEF4CZ6v6rfG83xyRlZd6HaEARLVubXzC325L1JDxQBFwTeOhGwCM34+IRZg5hj52yjY2PjLtHw/MXyexoUAUXAPwL13WPy1+OlZh2Cv8SXSoNN6mfG0cO3Gg1JfBBdLBefd/p/kV5RBGwIvFUiyHnwTFhmkgVoth+Kl+gTqTI47PFoYOWxc1eyzHoEx1LSpLdvbuTj5OSUpF69Y67FnrwkXT06GMaWR3qoCHgRuPiiU2jkGUi2Oa1WxiZnvNc4SH7YZtRGXA+/0+RzTU8UAX8IvFUiyM57Ks2tHWaFMlYbGx6Zm/gq+XyGHIg8KRDC1Vu5EhKVYpapJGJm9bIjCaYncTMnX/aHJ8mEbaF7f5HX/xWBYEJgcvq1bE+vM1NPM5DswrP5YwWySnrk1+Ee+8H6izXqORRMBeRnpPWtEkFu/gtBuneGgcEhWbPlsJRX15tLo2Pj8sO2I1JV2yRTU9Pyw9ZQKSqtNtcmp6bkxx1HpaCkyvkaPVcEghqB6s5R+XtimfxnlGeiufL2+Sv5lbeNyH8fLzWT0TEr6cvGoaDGTBO/OATeKhHQI4AMjsadkfiUNOnp8xirisur5dvNIT5LUG7ZHyO37j0y6x9/synEey/R3nk43qiKFpcEz10zM69lemZGWPZSN8Xg/SsDryXtZaeZS+j30UWy4RLS/vS8sj4xOW16DaiG6DVE322evef1vHvfP4yCu9yb9m+JS9O9VSI4cfaqPHhSYBr3KzfuyZ4jiaaH8PRlsWzcE+mz0P3u0ATJzMmX8uo6Wb87XMYn5gzFByKSjLposUQACTS29Uhdc6fUt3Tpphi8V2Wgqa1bapu7ZX1qpXEN/c/oYonPrpPW9h5pcOR1e0ePnH3YaOwIf4wtkY9PlMmLqg5pbe9+rzDRej6/natt6pCu3jnb62LbT+57q0TQO9sD4MVT09OyYXeE1DW2SkFxpYcIbGojiOBGdr5UVNfL+l3hxsvIinigRAAJjo5PysjYhIzqphi8Z2UAb7qylkGvt9Cf40ukpHnQ2NSc5Z17W3tH5V8pFcaziJ7B8XtNxjbnvFfP36/2YmRsfMm21bdKBKPj44YArAZ9z5EEefaqVBqa2uSbTYekf3DYuiSb9kbJ7dwn0tbRJV9vPCTdvXP+0NsOxsqljGzvvXqgCAQ7AhdfdBnbAAPJtqTVysT0wtNHnH3SYbyHPogpks+SK6RtYDLYIdT0L4DAWyOC2oYWWb87wngN8T2MvqiDKqobZGpqSr7fekQKyzwG4OHhUVm/K0Lqm9qM3hLj8PNXZSaajEHYsDtSyqs8huUF4q6XFIGgQGBgbFq+OansEvQAACAASURBVFPpJYJUF28hJxAdAxPyRXKFUSVhK0h72eW8Rc8VAS8Cb40I2jt7ZOOeKCkpr5GBwWFJu3FXdh0+brqkfI1xArtDjxvJn/EEiWfTvZFIz7xnxh909/TJpYwciU9OkyXaPLzv1ANF4H1AoLV/QkJvNZrRwn+ILjKzjnYOLU66P/O4wyxdyVQUay9Uy9S075iD9wEfTcPbQeCtEQHRaWrtkBPnrgkqIbyG7DYDDLrX7zww4wcupN8WXEitwOjjmzmPJCQ6Rc6m3ZKRUZ0jxcJG98GLAD0BxgL8R3iBMHcQ00ufC2CdgcaecbOeMctZ/jG2WK4XdsvCCqXgxTrYU/5WiSDYwdT0KwJvE4HCpiEzgvijuGJj+GVq6aHx6UV/YnrmtRzMbDQE8mFciXwYVyxx91qEOYk0KAJ2BJQI7GjosSKwghC4jIE4ushsjBtgXeJAAwPK/hxfatYusNYqOHSzQZp653rkgb5T73//EFAieP/yVFP0niDAGsS4f+IplDS7LvFSklbcMiybLtfK7yIL5aO4EvlNZKF8erJcSlvnvPiW8l595v1BQIng/clLTcl7hADrEn9/rspLBHcrft5EjKxitvd6g+kZYG/497ACM1PpjHplvEelZulJUSJYOnb6pCLwzhAoah6SfyR6VhtjfqEKl3mFAv346OSMMTZbxuO/HS+Vlj5VEQWK4/t4vxLB+5irmqZVjcCD6gH58nSFWX8Y1RA9g6GxxRuJF0q86WmcrzaT0jGddWhWo/QML84ddaH36rXVjYASwerOP439e4YAKqA/xZcYAzEun//vaIHx9HmbycQF9d/CCgRvpN9FFpkVz3pH5s8a/Da/qe9a2QgoEazs/NHYBREC2eW98pdjJcZVlInlUA2df9oh/aNvt5HuHpr0LneJWykjj2PvNesgziAqa86kKhE4EdFzReAXRoCxARHZzUYVRC+A9Qb+h1lDG5Y2k+Rioj8yPi2R2c3GGI1bKXaDg5kNAkloCD4ElAiCL881xSsMgdOP2o0XDw0y0jkk8EssKDMyMWPWNWDEMt/+9/BCCb3VJDM6/HiFlZB3Hx0lgnePsX5BEfCLQPvAhHx6ssIYb+kNsA4xfv+/VGAair0Z9WYKCr6P3aDkF/z+L5VO/c7CCCgRLIyPXlUE3ioCSNsjE9Nm0fkndQOy6XKNIQFUM1+drhTmF/qlw/jUjPyUWu0xUMcUy7dnK+VYbquOPv6lM2IZv6dEsIzg66eDC4FXjUNGD89Ectuu1Pp4B/1HRKFcK+xeNkDuVfTJbyOLjK3gg5hi+XVEoXx9plKqOkaXLU764V8OASWCXw5r/VIQITA8Pu0zuRsum6hdsAFY8wdZc/8w7UP8/RaZfMNiM+8SvqmZ13LqUbv817ESQwIfxZaYnsonJ8vNQjjxuS1SqaTwLrNgWd+9oohgaHhUmJJagyKwmhFAuv4xtVp2XqsTjuNzW+UPMR5p+48xxYYILEI4eLNBCpqGVkxymX/o2P0W+Si22HgUobL6XVSRGW/w14RS42l04WmHPK0bFGY31fB+ILAiiGBiYtIsVn8oKkWiT6RKR1fP+4GupiJoEOgampSS1mG58qrLqHxQszAqGKmfHoAl/a9LrZbk/HbZcbVO0l52ykqd6yezuEe+PFVhegd4FX0QXWQMyhAY5/Rudl6tk/zqAWNchkBYFY1eTUvfhLGBBE3mvwcJXRFEcPpipuwLS5SpqWmzjvHeo4nelc3eA4w1CasUARq1sckZvxv689OP2yU6p1nWnK0yDT6NP40kHjg0/pZk/fvoItl4qUaaelfPokudQxPCSOcbRd2y+XKtsR9gO2A2VHoKkAPpZYPsMHbvulYnnyaXy74bDZJV2iMnH7ZJ7L0WM3vqs/pBHywxUluBqS/s59b/1l77HhYS72a/7EQwNDwi328NleKyGpNCyIA1jF8VV7ybFAf41sGxaaloH12wkAb4yoBvb+4bF9z80DvT+Cw00pTKRHyJN4FnGJj0vH7QzCnDvDLPGwblUc2APK71bI9qB4zLopuOmsnOuJcNt0JLHdA5OCG1XXON2vTr1+Y672x0zHXPxGb13XP31naNCt9c6kRqpBF1CuoJ3C/Bo7pz1KQVnIgD8S1qHjaTqhU2D/uk10r3QvuLzzuNeuez5HL5IqXCdWMyOCR/S2KmcbRUKUzzzHWmcPjpYo3cLO6RianV25xNTL+WnPI+OXq7SfbfaJD/Pl7qVR1Z6WbuItRInEMMkCE9CMYnsMf+YGH5eXK5fH26QqLvNhvbxHfnqoxxOjGv1VsuyZ8H1f1msB3Ekl8zIM294/Ky0bf8LpSP9muUCeoCM7ESIHnKEf/b7wv0+OcY1NsGqEdzBnnKr7P+ENeBsSlTryFMfwE7z1LDshMBi9t/uylEevvnRlHuPHxMUtNvB5QmRkRi0Dp4s9FMpMVkWm9jW5daI+hGt6TVvpX3BRon0kPlQcrC24TG5ccL1X7jQjyJL/HmWzxDpURq+/58lXdqYxovpDtrY36brVd807gno968i3vZ/hxfItvT68x7cTH854ly2Xu93pyj6uA67/ssuUIOzeYD+y9OVcjHJ8vlQGaD2f55oszcRzz5RqCYkEYaGSRTPFtYj/cfiWWy4WKNwYk4EF8kc76NZO5Mr5Vuf3saeCRePGj8bR59f7H8hntjioV0fZ5cJtE5TVLdMSJlrTQy/dLnndTttUxPz6y+bYbGZ66Ref2aBnRQDtyol0+SyuSzk2XyaVKZJ09M74DxCCUGd4gBfH4fVSzgBUl48Yz22CEgS4P1LJHY8wQCoeySH7zz8xTPmItA89MqE9SFtec99Yc1GihHS3mXPY7USaseBFKWQ242ml4U5YbnqSsIHmyM8ra/C5uTaYccddS6h/v3Xa+X3pGljQxfdiJ4UVAmP+0Kl/GJuQQciEgyNoPFMsHE5KQ8q2yXP8UVy/86/Er+79GCt7ZRSCjMSDVv872LfReTjlGRLMmTuOBq6O954mnumY0v8WfeGqQ1q/By7K2MsxXz99GekaX29/5bmOdd1r3cw3/c8+uIIvOd/xfmwZr/uc69xNX+Hiv+pIWN+HEfe+t99vvfdEwaTZpikDg9eFhpNg34bJq4h29b91rpeCv7aI/6Z0NqpRy9WStJufVSUNMhNU1d0tzeIx1dvdLZ1Ss9PX3S2tEjDa3d783W1NZt0tbY2i1VjZ0mzaV1HZJ8v0GO3KyVAxk1Zo1l5k3ac7Vaom7Xyc4r1UZQWGpeeHoZnrK11HeQ7zxLPaCM2cvRzykTlD2rHryp7DqvUz7tz1N+2agn9nvf1A79nyMF8r9DX0lSXrO8NsS92NbTc9+yE8HLogr5aWe4jI1PeGMeKBF09w1IRX273C9plZzCFrlb1KqbYvBOy0BOUavcK26VioZO6e7ukY7OHmlu65bG1i5paOmSuub3fGvpkobWLmlq65Km1i6T9vaOboMD/1MXH5S2Gjx6e3qkvqVL8kz91Lr5rtqnO4UtklfS4tOWehvVNxwsOxHU1DXJ1xsOSndPvzeq2w7GyuWMHO/5mw66+walrrlD2jq6pb2zWyiQuikGv0QZQDqmkdNtDgPIkLrIxnFdS5fZm/qpdfPdtU2d3YaYadQDDctOBOPjE7JuZ5g8eVFi4j42Ni4b9kRKZU3jotMCEdQ0dZgCR6HTTTHQMqBlIBjLQE1zp6xKIqC1v56VJ9sOxBoJ4kL6bUk4nb5oEuBGT4+g03RV6ZbqphhoGdAyEIxlAPJbtURAY37n/lM5HHNKIAJ6BYGEmZkZmZqelqlp9ropBloGtAwEbxlYyuwMy64aCqTB13sVAUVAEVAE3j4CSgRvH1N9oyKgCCgCqwoBJYJVlV0aWUVAEVAE3j4Cq54IGls6zPxE128/ELbbuU+kvfPNk9ahR2tsaZemlnbBxmCFkZExqaptkq6ePuuvRe8raxpkemZGRkbHhGO3wHexZ1ihoKRKrt26LxlZ96W43DPNhnXNbd/Z3Ss1Dc3mG9Z1pufA64rpOt4UcOHLzns2+808uXHnoVTVvtlDa3BoRGrqm6XPNgKcb7V2dEltY+C+y30DQ1Lf2Gqiy3t7+gZcow5Wls6TZ7AlXb2VK3dyn0ivn2esF5Gvjc1tAmZWGBwekfxnRVLb0GL9teC+pLxGMu88NDhl3M6Th08LfbD39zBuzK1tXT6XsX1V1zVJd++cq7TPDQucUJ4mJ6dkcmpKyirrFrhz7lJ5Vb0Q54ysPCkqq5674OeIvK1vahU8+axQWdtoytbwyNw0CNY15578uP/opVy/Tbl6IJnZD6W6tsl527zz8YkJaWhqk4Eh35XZcP8ln5iUMpBA/bPKNM8vti43tXZ48jnrvjx5WeItd27fZpx1U0uHT1szOjYuj58Xe7/t9pz9P/InMzvfYEU+gR317E2BgYrNrZ22sd5iBuRW1zf5lPU3vcd+fdUSAQXz5LkM+WHbEfluc6hs3hctW/fHyA9bj5gBaoln0v02jBQUZjnduDdadoUel6SzV81IUIChstEgM/EdGeUMDHyrrW82jRiVury63jT6pRW1sudIguQ9eSWXr+fIibNXnY/K4NCw7A87IZev3zXTDKSk3jDxx0h+ODpFNuyOlKu37vsQk/0lLwrLZfeRBIlKvCAXr2VLZ3efnDibLlsPxMjhmNMScey89PS6N6ikiwZ0075oWbs9TLbuj5Udh+Jlw+4I2bgn0uDR2u7bcFnf5rtgtT0kXg5EnJR7+c9N/LnePzAk59JuyrGUNNeKwwhbcKLRxyW4vLrBEAoYHYk7I2VVdXIoMlnKq+Y3bg+fFJi4kc6G5jbZvC9Gth2Kk/Dj52Tn4XjZG3ZCGprbrWj67EnvsZTLsj88yeD1qrhSKqrrZd2ucNkXniQ7Q+Il6+5j1zjzIoSEkOhTsmbzYflx+1HZsj9GNu2Lku82HzbHNHJ2AcL6OI1aXPIlWbsjTDbtjZa4pEvexoI4gcHOkGNSWFJlPeLdM88WDSINEg0YjZm1UR7v57+QW3cfSVRiqvcZ64DvHoxIlpPnrpk0nUu7Zcbn7I9IEmb1XbcjTM6n33aNM+8oragx2B6JOy0pqdelp7dfKJ/rd0fIwciTJt+7ut2FI6bNoEFbvzvSTBezaW+UKZN8c+22oxIac8o0mlZc7XvqDTMLrN8VIbsOHzfpm54VlPoHh8x4oqNxZ1zzCeGhrrHVCHOUMQsrMNoXfsLU34ORyVJYOh9rvnHi3FU5GHHSRCcn75nBi/bgSOxpk+7Yk5eEWQucAeHk5IUM2XM0USKPnzdEiTC0cU+UaTdIh6cez03LYX8Hgw/D4s/Kd1tCDT6ULdovzsEuPfOeIXz7MxwjBCSduyZrtx81LvaRCRe8uBIn4kAbBBkFGlYlESAhnrl804DilFABAMkx+UKGnDyf4VqAcvNfSMTx89LZ02eku0fPiuRSRo60tHV68YtNuugKKFJ3aPQp+a8vt5iG7MylTBOPhNNX5MsNB00G03jEnbzkfZd1cO/Bc4lKPC/1TW2m4TsQnuQjrZCWhDPprgV3YHDYpImGhEKMZL8/4qRpVLp6+810xvSG6BW5hdu5j01jj8Q3PTVtGgQaMrb+gUFJv5krMScuCmtC2ANSTsSxc5Lz8JmRzMAo/cY9uZf/wpAm95ZV1kpY3Bkze6z9WY6RrD77YY98uzlEUi5cN2lgv+dIovyw7ahEJ6bKJ9/vNmRhf3Z0bMw0eDdzHhlpB2KngliNL2Xg6atSQ+JulZXKcOla9uy8PtNG2vps7V65c/+J+QykzDtb2+fy3Pp+38Cg0PhAFFNTngnKrGvsaaQh7/uPXtn/NsdPX5YYAqGRomFnCpVzV7JMA2/dzHdzH76wTr17JHG+++EnGyQkOsU0yBAs93+5/oD55vdbQiU05rT3Gesg/3mhhB07Z3BsbG43jap9/i4wohEhfs6AxE1doSEFX+JO441gYvVe6An5G+SJJEu8KVvOwHdpmGlcBwZ9JX7KcWTCedOLpyEjvldv5ppzSJOAcAIRgaUz0MB/8t1u+WLdPpM2cGKD/L/eeEhiky7JX7/a6tqDqqlvMhgXlFQKQuXu0OPzymDajbumh+D8LhNinrt8SyYmp0xdpIx/8eM+08vm3tHRcRMfyokzUL+iEs7Ltaw8n2l1rPsQQCCJrHuPrb+8e3p1CGIIV+CBMHH28i0jWFk30R4hpAQaViURTE5OSkTCeaOG8ZdgGoqwY2e9jZX9PlQxxY6uMgUeqaBltjtPxXj2qtT+mPeYAo1EDiNTeQgTU1OzDUuXmUk19eod7/3WQd7jl5L32NN4lFbWmZ6Ddc3ap13PMfGwzq19XWOLJNrGV9CrQXrgPVZAkkw6f03EZXEfxmagglkoQH5I3vbQ0d0jFC5noFDmPys0DS3SPs+6VVYaltLKWgk/ds405BbRPC8skwvpWaYiQepOVRrpQ6plTzh/JUvqG30rFo05vSM3tcW5tCx5XlDmjfbNnIdyKCrZe87BxWt35GVRuc9/nNATdOvR2W9EkqWMOMPNnHwhbfYwNDIq2XlPhQaacCr1hjyYLQf2+zgmvVdv3jdlt6puTmVHI446gPxBUncGSJFvEMgPtzy7leNRQzifRdKPSbro/Rs5dsv+aKEXZQWElPiUy9apz54etVUPfC7YTiA0Z/kjrUnn5mNILzE3/6UpT6h1IBm3ssXrEaqoh5cysmV4xFNWKEv0agiQcEnFfJUr9SltdvYChB0EMGeAaJIveN5jv3blxj1vPeZ/6jREYg+0MQ+eFtj/MscNza0Sl+yOo3UzvcJjp65Yp9793YfP55UbNBR3Hzz3Yku740Yi3pf4OViVREAjj3RCt48CSIGamXltpBmO6S7SxWVMgkubaCTum9n50tLuqVgWNjTwgFjb0DwrPbkTgXU/3dFL13Pk0fMio1c9e/mmtHV0GfJx00uitkFtQAPa1tkjSBwvisrN3CD0NLLvP5MdIfGukhVEFXMi1aR3bGxCTpy9ZrrUbTZ1Ts6DZ3LhqvusrUhtqBdoMEgn0ifqBL6LFJJ4Nl2OJafJ2LjvGA7Or928bwgHfXtf/5zqCRUa78XO4Y8ILKzQj999+EKuZOYa1QcN6eXr2eYyagh6APZAY0TPDQKrb24zjRL3o+9HgoX06KlQ4cl7Z6BRPHPppkkP6ftqwwHT8FtqB9JPD8hNaoNY6OFAqhAhEyJS5miMwAupmhlyn73ybfCJAyRCI8CUKTTaPEfA9kTvhjJDI+2PCKx00JhTfu89fGF6JTRoEAnxR1XmDJBiTFKqaZRY2Ik4PCsoM8/S0FHmEBywfzkDdQZCrahpMOWCmX+/2XjIp4dMmt0aRd717GWpbD8UZ3rQ4IOqiHTTSHV19xriQxDgO/aAPY14IsxgD7CrNWnM6cVSF5GQ/REB7+NbNMap6XfM/ZTTM5c9wgvvdH6XZ8hTyg7qUsofdQdBEPULZYPyiar5oUtjzn8QM7i2dXYblQ7YWHEkjyBNu5BmpZv6RLmLT0kzbQXfMmVrmrI1aqbfh1QsgdF6jn1tfYtcybxrtAiQhdU75h1ghZoazUbQEAGg0HU8ce6arNkcYrplX/6033QRUUN8szHENGxW99IOJscU1IxbebJmy2FTAazKyrX+/kG5fe+xaZBfFb15TQQa08cviuV61gPT0La0dTg/53OOETHx7FWjE2SOpd/+ba18/N0uExd0jAvp95igD5UBG5WDSk3jguR84sxV839Ti/v3SSPdbqPH3RwiazYdMvrcr9YfkO+3HZGIxPOuDQyRpwFCn496osChb8VweexUmmmUrYLpk2DHCY0yFQ6pyJLaHLd4T2ngacDQ6aOm+MsXm+SPn2yQrzYcNGtYYOfBRuEWqJQnz18zagXmrqJyMOX5qYs3jFoR3TDSk5ugwPuMSiLipNEb0+3/F+Xrx71GzbVuZ7jcuju/685z4IzkzdTq+8OSzLkVPxqOnAfPjf788fMi62+/e9JA2aKrv+vwMVcBwf4wOnXSjA75m40H5d/+8q3817+2mLjz330/vRDeUVJRK9gTzBaeZAjyVs4jYdEo1C3ont1I0/o+cfxxe5j8a91+8dTF/fLpD3vMMbYWfw4cEEBY/Bn5n293mrRa72NPfqHHPxCR5G307NedxwgJqP6ILwLXmwJEha3qp10Rpjz9+r+/l48+3WjaEdS7HlXkfCGDck6dOxB50thVIDMI/vSlTEEYpH5Szuztij0u3T19RlWG+mqubO2Tz9buMXnH++Z/1fOGuw+eGbsiZdrevnGc9+iVIWRILdCwKnsE9kQiCdFAUtHRkWPY9Nc42J8jk+g52D1KrOs07nQnkW4WG2g40PvaM2ehZ2lckbKIM7pojKUQ1JsCFYquM1IAwXjBPC8yhOCWFuf7kHbRcfJdJO6i0mqftSCc91vnSCsUdjd9fFNru+CxsNhAA49KBql3MYFv1jW0SEFxpeQ9LpCHzwqlocXdSOx8H8/RA7IC+lV01v7UftZ91h7JnsYYlQ9dcCTFxQS8qSz9uvN+VGX2ODmvO8/xxsl/WrjoWSUpI9SD+7OqSHopVk/I+W77OfWGxtdehlEPQdx4qiwmIMnTG7sJxgVl87zM3N5BD89un7PfQ5l+k9rJfj/H2NFIx2IDai9sBfRuKRvk92LyhzpsX1aXngg2OrtKcqE4UBatsgXGCHb0SN4UyF/7d+330zb02nrt9msLHa96Ilgoce/yGgUF6Rupwh6a2zqMNEm3N5BABjr184t9vsPmHhlIpeGbD568MmoKfwWLgomLrdXtXWyc7PdhVOMddMGtgCqIRqa51b0HY93Hnnsw6D99UWwqGbryxQYIH10v7qbZ95+aLvdiCJP3o1Kwqyusbza3dfqVcK17nHtwJL2otJYScA7AoMp7cOl0BsqbmwSKXr6sqn5Rbon2dyIEoZ548KRgUeTH2ss0UHYSIU5g376INchRdyGYoAe/93BO522Pk79jelqQjsnjvKdGnbNUnP19w+1/hCo3wgCHxbiBOt8JGZKHCD5u9XgGQdHRVSAOL4srFi0AO79pnSsRWEg49oDrrytMYUWNs/1QvByNP+Pjo93a0S2xJy/Klcx7jjd6TpHsdoQcM88i3SLt4Tnx9cYQ+W7LYSNRuFXoyalpQzwUFtQr6AuJH9vhmBSjf6eh49tuAckYN1MkWho4vF5YBwK3VfTdXHPzNUdKRC2A8ZVn3XoEbt+z/hsZGzOupSFRKcadkwLOd3CZw8bDu2nk3QLY4MKHWgTXuj9/ukk+XbtHUM2AIQbFhUL+8yLZsj/WqLRwAcVVlmVR6fbjFUOP0F9AqkWd8tPOCNPVt/S95A2NMl5n/vIYDxvcAXF35ZjGArzxjkIdyNgNt0BDT88SSRHyQw9sbaiywIleSfSJ+XlMDwdp1gp5j16aWX2ZyReX4e+3HjGeYW5li2dy8p6aOCPYkEeWiyIGdsoJeYU3nlugd4qNYX/4CeOZRs+RPCafyN/tB+ON95jbs0jjuANvPRBr7Dh//Pgnoyo1broHYlwNrvb3oK+nLH350wHj5mvlMeUFT6UGF08m+/MLHZPPjDlxBgQbjMs/7ggz7QB2LEtgoHdDWcENlZ6fMyBQ+cvjfWEnTA+Bske5dwbGCqG2tgKee7joojbF/kMeG7WSP32n9aDLPiiJAKmKRgZ9PQ0rGWNtZD6Vj4rn5mqHNEmlePKqVEZGx42aBqPeC9say1SqBBerP4Nrth+MkxvZD4yBGQMr+sS7D56angVeMRjVquvme/dQQaMSUuWvX2417ol4nlAA8SRC10iFZXwA73ML3I+XCy56mXceGOOupfpC54mhKf7kpXmDtDD2YY+gq00jhEsmaiXwokJYwV/Zo7uddv2ukZAgFVQs6PghLVREeH1g+HYa12kU8QTB+EVDSmOT96TAqClw70QVuPVgnDx54e4zTVcfVzsaJPLbCjSEYIkumXx0U98QFwzrhaXVxiBI2k9fummM4tZ77j58JrgMOwONIJWSCkvFjUy8YL6DtAuJ0sBDQqTbGYgXjdefP99kiAODJA0CHjf/WrfP5DG2Bzf30Tu5T73GXMowBkeMv+CIyhGBgfEE9A6cYRCiik4x2CLFk9/kj0UalA+kdIzvbgHBCH06BlgkVMYUfP7jPtOjII9xoDh++so8lS3fwhsMQiV/uZceCA3c6OiY3Lr3yIwjwcHBLWDDI4/xALS7+Zo8Hhs3ZYQxKtR1Z+Aeyj/XqNP2jTJPw25sby7jgXAXxaWVXjSuogh3Z9OyfNRbGIvR2TsDThOHo0+ZPKYcJJ27avIY4zFusNRjDPV4SjlD1l1sNh6PMdqt3aEJUllr5fG08RwiveR7oCEoiYDM33Ywzgz4CY09bRpPGlA2KhnM/KfPNvpxLayb509NQ4PnEN1gAo2TmyH0WtZ9ybo3J7UhrRyMSvbx1EGqo2K5BRpE3FaPxp01xj0WkvcYRTOkqqbB6EZPGbc5R/8RV8mMbO/gk+t3Hrg2oIx9cOrtqRSxJ1K9nheoZajo4Ia0x0AgjIN4tbgF4sM4Ayvg2YE0bQ/4Qjulp4HBITl+6opPBecZjHAY2wjo4SE3bDrOQAPz3E8DYt3Lu7AvOQMDz5w+8zSmSPeQAwEjNmNVnCH95j3jgWL9T4XdF5boY5S+kf3Qr+EWmxdG7KPxZwVfdwKNFu6s6KRR9bi5rebkPTe9Nu6nLKTMNhhWPNhDRhCxM1CuMApbAdz7+32lfxrGyETffLPuh7Dsqgzcgukh2ANjRyBJe4A03CRfjL0YvgmQMs4VkIQznE275Zp/9vvw5kEocAYw5b1frNtvejL0ZuwbBPPRpxtcyZ4eHTYYe0DIYdQ7AhKB70IQbgG8ER4hXHr2BFRrCHYICmAJXs4A2fMcoaKqzhinnffQdmBzDDQEJREgPTAic/5pPgAACotJREFUl8xESkPHaG1IZUj6SNpuBkUaoSvX75oMwx6A5EJAf0c38kVRhZGE3DISTxEkJxpTJAkacaR/GhnUNbii4XXg5ttuz1gaA7wdMJqik7107Y4Z7cx76OW4BSRj1EYYdZmiAsmeQosRkUJ84UqWcbl1utpBBIzCRcdvD9yHzhupiYqLlOQWrt3MNRKfSWttk+kNMP2AFagUxAuDsz2QD7y3yOalRKMKAdE4QL70bDinO+4MuLYygpc8IW+p+ATSiyQIKSPV2QddWe/AlgHhoqJBuiYuBN6BxIra0B8RQBZ0z5EWec6Tx03mWVwHaVDpXVhCg/VN557eI2TG94yXCu6jLR0m/uignQFjIw0JREK+8iwqRAJlFBUMY1QeuYw6pREizhAjDfCLojIz7QG4IrUzEhYhCYJyC/T4eJ56xehWBu7ZBZ5hBlElXphXNim7SMIYd63AmAakYsoF2CF0IEGDgTNQNshjhDBnHqOjZ5AkEjLl2y3QK6THSb46N4gH4qQn7QyULcowcbQafu7hm3hPIUxBrP6IwHpfVU2jIW9G0PM9elxNrZ0m3W55jA0E70B7Hlu2EOojeUwv2l9dtL7rtg9KIsDiQlfQ6TNvB4jGhhG3boERfegAmd7CbrikIX5eUGoaVDefa64jLW3eHzPPxxiS+HzdPiNJ2Lu5bt/nPyqpx+PgkRlJ6RyQ5fYckhG6avTX/7Nmh/zh45/k640eV0xUCW42ERoRuqk0nJYqye3d/v6jsuBeioQLZlQ+xh0g2dDYUsn96TXp8qP/xQ4Tn5xm7ASMQ6BJJ//wXbfrxZ1x4Fu4NOIiizslbsW4gbLRgNilWOezqB22HYiTrzccMA2hdZ2GEdxpGN3Injym+752+5F5U5TQMDDSled4z5sCQgo6cMa8oAZwG7lrvQOS5L0MzmMcAOWPaQ4IGH3/8sVmST6f4TPPlfUse4gVLLcciDXjUz745zr56JMNprdHGaG3aHmq2Z/jGI8yxjCACc8jlb4qqTQSK+TBCPprt/Kcj5lzCBFbAmoSBrWh66c8EPBUQv9NA+gvoCLEnvHVevL3kNk8LqwHjO2rxkXNar2LstnTN+fAYP1v7Sn7CALOQKPN/E18j7TZDbjUEXoG2NzcVMvOd1GPcdiA8KgfCzmM0NaQryaPr942PUNGKBOYfgT3ajQRi/EQc8YjSInACUPg5+g98d5wAx19O3YGt4BkA8nY9evcRwHCi8eSPt2edfuvo7PX6EJRpSwmIDnhMorONz0z11Q6KiO6ZH8BaQnpGIljKWF0fNxIwHapv7Cs2vRKkFB5v7/Q2NJmGjQG7qFyQ3q1wkJx9t4zNW3mjkIlQm8MO4dTRWHd69yTT5CjW/zQw1oSt/M5zrFjQAr2gNQG+biVGft9zmOkZBppVClLCTy3WEP/wNCIGeRID4NxJzRqdmHH3/eR3pmgzy7JQuQQgVvP2v4eSAzSomfhVLnY7/N3TP5Qd+x5XNfg3xHA33sC/R81TpdtrXX78/QaFlsneQ7Bhjxm1oSlBPK4qq7Jp34E8h4lgkDQ0nsVAUVgxSGAqsTuEEAEIVuEMQSfhQL2JafDAMIaKhfGkCwU6CE5VamM+mciRDebhv1dqMUQNJxCBnYvhK6FAqo2p1BGenmOa0sJSgRLQU2feS8QeFlYvmBXfKFEUun8eSwt9BzXkBYXUkst9Dz6buwQSwnopJHalxJoUN28YBb7LkbM+xurstA76FXdn513yHkfahW8c9btDDPqTuxrVq+J+NK72HM0wW8e0yvGNZYN9ac1/QaNM2NFcGqw27Os79P7QQWzbke4cR9lFmTLDoHnFPm7N8x99mLegcqIWV1RiWEPYRp5K7R39Up88mVXewzqRHpYP+4IN8/jTWZNNwIRoh5GVfXcYci23r3QXolgIXT02qpFgIoxMjvgB+nJvmEQRd2Ci7DbNCI0BDgMoK6zP2cdI4EylTjGbGdAXYWUyD3W/daexgKPNWweuNW6BRow/98dMeoDxp04A1Ks/+8OGlUVHjr+xjDwXUvStOJr7Rm9jkETG4BbQLplwjdUIdYz1h49vMedNcE4NDifRxVK440qzXrG2mN8ZTT5vqOJruo03ExxiYWU+Q4urxeu3vGR8MGakfTOgDTOlO6QBXmFMwXGcqbasAJu0vaJHq3/mWMKz0JUQ3yXGQVwH7XbE8CasRzOQJqYih4nAL6Lh9qpi5k+KjGM38xS7AyMTzC2vHrPaHlsThilGdhqBexA/vLYusdtr0Tghor+t+oRwBuI9QNwb2XeePvGOgasxfD7f/zoOkUxRIBRDsOl/TmOGV9AI/DhpxuMf78TKBo1jH4YMN2e3RWaYOaX8jenFLYQ/Mmdz3LO3EXMHeTWICMdh0QlmzmrnM8SZ6b9/t3f1/oMSLLHHf06897gEux8nmmd//HtTmF+G7eAjp8pxRm45nwWrDbvizJ44WXnDKzfQXrBzPks6f38x73GKcP5HOd4zrG+hT3geUcDDpkQ6DG4eWgxRxbP2wPGeaYWt8iAxtrNa4hegnMaCTzNMGpbo6gpP25eQ4wfwe3VHpD0858Wed1cceo4firNfos5xr7lFCBYzAc7Dh5lBHoMGNADDUoEgSKm968KBGjMkcqoVFRwt421EHAFdQvM5oiqwe05Gl2MqSwC4xboKaC+cX12dlSqPzULz+Hf7vrsxKRxDWSefbfArKY0gq7PTk6a9Pibqx6cwAu997znGS1bUWv83t2+yyCp8OPnzWpk857FPXt0XI7EnvFOlWx/ByoyppGmFzTv2YlJM/COwW6oY5wBN0kmYeP79PCsgG6fOX+Q0HGpdSMCjLO4UNNLw0aASodAo4zbKOod3LPdiID3QZyki/dYgXchjWNfIC/ciIB7mP6cb9I7pCdmBVySmcLcHxGg+sGjip4fbt2WHQLhg8knGSmPwV2JwEJU94rA7AyiVFZ/gYaCiukWUFWgPvAXmFYa1YBbYCwHDZu/QOPhNFBa96IusHveWP9bexpqBpa5Bd7rLz3czxgGf4bIYVwlbVOaO9+Pyss+rbb9OqRLrwCC9BfQubthgmqoZYHv8m6Mvm7utpAD4yUYqe5Ul6E7Z+Deln3RrusREE+IhJX6cCu2T6qH+/aDJ4Wm53Xq4vyBXdgt8EBj5mNmRrW7j6J29Ix6j/VrQ4JImNaFnlB945x3Ieo9eorhx89KvMvsqTT8EBC9TQbEopKzAuTArKNMY589u/iSdW0xe+0RLAYlvUcRUARWJAJ4E6PmsevnrYgyTojGHr28vwCB4e5td0u27sVusNB8VEjodv289RwE9eRVievUFtY9GM7pZbm5EuMKi2HfX2BAKQvrOAOk+ayg1C/ZO++3nysR2NHQY0VAEVAEghABJYIgzHRNsiKgCCgCdgSUCOxo6LEioAgoAkGIgBJBEGa6JlkRUAQUATsCSgR2NPRYEVAEFIEgRECJIAgzXZOsCCgCioAdAR8iGFvAD9j+kB4rAoqAIqAIvD8I0PbXNnXKrxpae6RvcERgBt0UAy0DWga0DARPGegfHJH6lm75VVN7jzS29RhWgBl0Uwy0DGgZ0DIQHGUAEmhs6Zb/D2mPusrBXDEBAAAAAElFTkSuQmCC;" vertex="1" parent="1">
          <mxGeometry x="330.51" y="215" width="151.19" height="85" as="geometry" />
        </mxCell>
        <mxCell id="hm0pcYK8jrE48RgcLdMb-9" value="" style="shape=image;verticalLabelPosition=bottom;labelBackgroundColor=#ffffff;verticalAlign=top;aspect=fixed;imageAspect=0;image=data:image/png,iVBORw0KGgoAAAANSUhEUgAAAYIAAADYCAYAAADmmOSsAAAgAElEQVR4Ae29h3dcSXbm2X/CnjOS9szuzkiqYlW1utpK6pGXejWaVmvUmtWoNaNuSW2rq8gq+rL0RRZZ9KADSMJ7Q8J7QxiCBAiCHgQIEgRBeO+9B7893028RGbiJYAEDUzeOCeB5yJexC/ixY24cSPiKy0dvWhs70V1Q7v+lIGWAS0DWgbcqAw0tHajub0HX2ls60VP/yCGR8f0pwy0DGgZ0DLgRmWgp38IDa09+Ap7AiNj41CnBJSAElAC7kWAdT9lgAgC9gbUKQEloASUgHsRYN2vgsC98lxTqwSUgBKwI6CCwA6HnigBJaAE3I+ACgL3y3NNsRJQAkrAjoAKAjsceqIElIAScD8CKgjcL881xUpACSgBOwIqCOxw6IkSUAJKwP0IqCBwvzzXFCsBJaAE7AioILDDoSdKQAkoAfcjoILA/fJcU6wElIASsCOggsAOh54oASWgBNyPgAoC98tzTbESUAJKwI6ACgI7HHqiBJSAEnA/AioI3C/PNcVKQAkoATsCKgjscOiJElACSsD9CKggcL881xQrASWgBOwIqCCww6EnSkAJKAH3I6CCwP3yXFOsBJSAErAjoILADoeeKAEloATcj4AKAvfLc02xElACSsCOgAoCOxx6ogSUgBJwPwIqCNwvzzXFSkAJKAE7AioI7HDoiRJQAkrA/QioIHC/PNcUKwEloATsCKggsMOhJ0pACSgB9yOggsD98lxTrASUgBKwI6CCwA6HnigBJaAE3I+ACgL3y3NNsRJQAkrAjoAKAjsceqIElIAScD8CKgjcL881xUpACSgBOwIqCOxw6IkSUAJKwP0IqCBwvzzXFCsBJaAE7AioILDDoSdKQAkoAfcjoILA/fJcU6wElIASsCOggsAOh54oASWgBNyPgAoC98tzTbESUAJKwI6ACgI7HHqiBJSAEnA/AioI3C/PNcVKQAkoATsCKgjscOiJElACSsD9CKggcL881xQrASWgBOwIqCCww6EnSkAJKAH3I6CCwP3yXFOsBJSAErAjoILADoeeKAEloATcj4AKAvfLc02xElACSsCOgAoCOxx6ogSUgBJwPwIqCNwvzzXFSkAJKAE7AioI7HDoiRJQAkrA/QioIHC/PNcUKwEloATsCCxKEIyMjuJq8T0U3y7D2Ni4XYA8qXhSi6Jb9zEyMjrrXuXTely7WYLBoeFZ96pqGlB4owT9g0Oz7ukFJaAElIASeDkEXBYELW2dCItJQ2xqLs4FxeCUTyT6BwatsUvKvAKP8+EIuZgKT/+L6O7pt95LzynEsbNh4v+0bxQ6Onus9y7lF+OoVyjCY9Nx0icSre2d1nt6oASUgBJQAi+PgMuCIDOvCJ8f8bbG6MDJAGRdLpbz2vpmbNxxFG0d3XLuHRqH8Jh0OW5qacfG7UfR2Nwu50EXkhEQkSTHfH7jjmOormuS84i4DHgHx8qx/lECSkAJKIGXS8BlQdDW0YWyR1XWWHkFXMTFxEtyHpWQiWPnwqz3bpU8xCd7T2Fq6hkSM/Jx6HSQ9V7ZwyfYuucExicmkJlbhC+O+1nvPa6qxZadx9HbN2C9pgdKQAkoASXwcgi4LAhso1Hb0IyjniGoa2iRy55+FxAem2F9hDr/TTuOoX9gCAERiQiMTLbeq29qlV5AV0+fqIq8Q+Kt91raOqT3UF3fbL0218GzZ0D/4Aj6Bob1pwy0DGgZcMsy0DswhOGRsbmqSqf3Fi0IUrMLsG2/JzgmYLhjXiFISL9snOJJdT227PZAb98gztr0HPhAXWMLtuzyQFd3H/zC4hEWnWb119zajs07j6NmgYKAPY7Gtm7UNXeivkV/ykDLgJYB9ysDtU0d6OxZnBZl0YJgdHQMza0doGro6vW7Uomf8YtCZHyWtUKXHsHO4+jrH4R/eAKCL6RY77FHsGnncREEodFp8A1LsN5jj4A9CWPMwHpDD5SAElACSuCFE3BZEHT39Nm11G/efYBdh89JxCJo8eMdaY3k3dIKbN19ApOTU4hNycURrxDrvfKKpyIIaH6aklUADjobjj0JDixTbaROCSgBJaAEXi4BlwWBf0Qi9h7zscaKA72fH7VYEbECp0qHPQA6moLSAoiOrXu28ju7e+U8OjkHQVGWMYPG5jYZL6BpKh0Hlm17CHJR/ygBJaAElMBLIeCyICh7WIUT5yPE0icjtwjHz4Xh0ZMaa+RoLsr5A/FpeeBcgXabuQIXErJwyjcKCen5MlegpbXD6i8uJRce5yNkzOGEdwQamlqt9/RACSgBJaAEXh4BlwUBo8KWe1LGFVAQGK142yjevFeOjNxrGBicPXv49v1HSMspRG//7EGNe2WPkZZdaDcJzTZcPVYCSkAJKIEXT2BRguDFR0NDVAJKQAkogaUioIJgqcjre5WAElACy4SACoJlkhEaDSWgBJTAUhFQQbBU5PW9SkAJKIFlQkAFwTLJCI2GElACSmCpCKggWCry+l4loASUwDIhoIJgmWSERkMJKAElsFQEVBAsFXl9rxJQAkpgmRBQQbBMMkKjoQSUgBJYKgIqCJaKvL5XCSgBJbBMCKggWCYZodFQAkpACSwVARUES0Ve36sElpBAe2c3IuMywdWEb5c8nBWT8YlJWROMe44YjjsNxqbkwDskDvfLK43LGBufkGd5Pb/ojvW6HqwcAioIVk5eaUyVwAshwGXfvzwViPxrd1DyoBJHvULk2DbwG3fK8JP3duBeWYVcHhkZhVdANFKyruL6rVIcOOEP7i1OFxGbgbCYdHk2ICIJmXlFtkHp8QogoIJgBWSSRlEJvEgCbR1dqHhiqcQZ7rWb98EK3HBd3b2ydaxPSBzKHlXJZW4yxaXlDdfe0Q2G09jSBu/gWExMTMot7kVyyicSfQOWPUmM5/X/8iaggmB554/GTgnMS6DxcRf6OmYv+T6vx+kHWMFT5UM39ewZopOyUfrwCeLS8sCl4emSMvKlpZ979SZSLxWgs8uywdSNuw8QYrMFLZ/18r+Imrom8ad/VgYBFQQrI580lkrAlEBR7GN8/N0wHP3fyWivc31rV+4dcuhMMLgFLV3xnQeITbYIhaiELJQ8sAiC80ExWPvxQcSl5omgOHAiQLasvf+gEsFRM3uRM4yzAdEqCExza/leVEGwfPNGY6YE5iVw8qdpeO93ffDOfzqPS373533e9gGOA3x5MhC1DS1yuaOrB4ERSejp7ZdzDiYbgsDT/wKCbFr+2VeKkZB+GdyxMORiqm2wIgiqaxvtrunJ8iaggmB554/GTgnMSeDQ/0zAB2/5y8/znQw8e/ZszueNm3fuP4LHuXB0dc/0Iljpf7L3FM74X5AtZdd/dgQ7D51DdV0jWPFnXb5ueMfNuw9kP/L6xhac8YvCxKRljGBwcBjsLVCoqFs5BFQQrJy80pgqATsC46OTOPDDOBECG94OwPa/iEBno6U1b/egw0lDcxv2HfNFfWMrpqamMDI6hvHxCREi/M8tZvnzC0tA4Y0STE5OorGlXfYnp18OBHNf8avF98QPjy9fuy3hcLwhNDoNC5RHDjHT06UioIJgqcjre5XAcxIY7BnBvh/EYP1X/bHpG0HY+PVAFCfM2Pc7C77oVik++eK0tPxPekfg8JlgGQx2fP5SfjGeVDdYL5eUPcaxs2E4fi4cmXnXRUDwJvctD4xMFpPU8Jh00NRU3coioIJgZeWXxlYJWAl0NQ1gz99cxPrfC8CWbwfjvdd8Ebm70Hp/vgO29I0fewYLcVQ9TTp51lAPLSQcfWZ5EVBBsLzyQ2OjBBZMoKWqBzu/F4UNX7MIgvff8sfhHyVioGdkwWHog0qABFQQaDlQAiuUQG1pB7b9eQQ2vB0oPYLN3wzC5m8E4endthWaIo32UhFQQbBU5PW9SuA5CVTeaMEnfxSGjdOCgOqh99/0Q5ava2akzxkN9b4KCKggWAWZqElwTwLl+Q348A9Csekblh4BBQFNST1/leGeQDTViyaggmDR6NSjElhaAncyqrH5W8HY9E0bQfBVf7EkGh0aX9rI6dtXFAEVBCsquzSySmCGQFFcpQwU03T0wz8MxUd/GIoPvuqPz78fjf7nWHto5g165C4EVBC4S05rOlcdgfzwh3j/TX9s+nogdv5VFHZ+7wLef8sPu//6Ajoa5p9YtuqAaIIWTUAFwaLRqUclsLQEuLYQ1xmi+eiX/yMeB/8xAe+/4YcdfxGJxoqupY2cvn1FEVi0IOAOR5xRaLa2yeDQMHjfzA0Nj8g65mb3hkdG0dquBdiMjV5TAo4EUs/cwa9/21vMR0//PB3Hf5yMdWv88NmfRKD6npqQOvLSc+cEXBYEExMTyM4vlt2KjnqFwuN8BDq7LWuT8zVclpZT0E+cD0dsSi645Z3hyiuewuN8uKxTciHxEsbGZga0uFEG1yzhLyIuAyOjOk3d4Kb/lYAZgfgjN/Du7/jI0hIBW/Nw6mdpWLvGV5alflSkq3+aMdNr5gRcFgRchZB7kxqOFf7ZwGg57erpw5Zdx1H6qEoWs+IWeBk5lm3revsGsHWPB7jqId1JnwgkpufL8cDgED7eewpcA4XOM+AiYpKz5Vj/KAElYE4g6vNCUQ1xjaGLXxTB691MrH3dF1t/Pxj3c+rMPelVJWBCwGVB4BeegIOng6xByZrmpwLkPD33GvafsBzzQkHxPew+dF7u5RbcxOdHfaz+uCHGtgOemJp6Jisc7jx4znqPG2N/uu80qCpSpwSUgDmBkM/yRRBwHkGa1134bMjG2td8sfEbQbiZbNli0tynXlUC9gRcFgRs9VfXNVnHBritXVxqroTKngFXITRc5dM6bNx+FINDIwiKSrbrSdQ2NGP99qNgT4EbYJzxv2h4Q1NLO7gWel2jZcMM6405DqiCGhuf0J8yWPVlgGV9dGTcUvG/7otN3wxCXlgZ/LfmiiDgInT5keWYmNJvwt3qhInJhS0e6FiVuiwIbAPgvqXU53dP72h0/Gwo4tMuWx+pqmnAlt0eUtmfC4zGhYQs6736plZs2eUh4wv+4Qmyhrlxs6WtA5t3HheBY1yb6z97FfUtXahpbEdtU4f+lMGqLgP1bV2oetoKj5+l4P03/ME1hjIjSnB+czbWve6LD970R+yZYrT2961qDvqt29d11Q1t6OhenNnwogXB8MgIcq7eQFNLh7WO5trmMdP7nfKiCIJdFkHgGxqHiNiZqe8UBJunBQF7C/wZzlVBQH9Gj4Aba+hPGazqMjAxib7uYXj8GwWBH7Z8KxjlhQ2I2FOA917zkQHkFM/bmJia0m/BjeoD9n5eaY+Ag7u5BbdEhWNU3vzvGxqPs4Ex1ksPHlWJamhsfBzhcRk45RNpvUe10fptR0Bz0tiUHNACyXBUG33w6WExTzWu6X8loARmCAz1juHIj5JEEGz9Tgi4Emn80ZtY97qfmJQmedyceViPlMA8BFzuEYyOjYslELeuM9zT2gaxErp1rxyffnEGk9N6qtRLBfCc1v2XlFeKZZBhMpp95YaYmDKMR5U1+HDPCREKPL9y/Q6OeoZYwzHeo/+VgBKwEOhtG8K+v4uVReY+/IMQNFd2y4AxVx+lSenF/RZrPeWlBBZCwGVBkJ5TCG5H96iyGuWPnyItpxBh0ekiCNgdP3Q6CBxALn1YJcfGVncTE5M4djZUxhTKK6px6EwwHj6uljhScJz0iUTwhRQRCkc8Q0DLIXVKQAmYE+DuZLv+3wuyttDH3w1FZ+MAsgNK5ZyzjcN2XDX3qFeVgAkBlwVB7tWbOON3QSaUUQ1ElY5h/8/wqTaiIPAJjUeVzX6nvGdRA+WK9RAnkNk6bqCdkH4Z54NjwYln6pSAEnBOoK22D5/8cTjW/54/Pv4vYeD+xQUXHsksY44TcIKZ2ax/5yHqHXcm4LIgcGdYmnYlsFwItDzpweZvBss6Q5/+aQTGhidwK6VK5hBwUtn5dZcwMT4zq3+5xFvjsTwJqCBYnvmisVICcxKoLW2XpSXWTy87PT46ifu5tdj8rSBZb+jUz9MwMjizhMucgelNtyeggsDti4ACWIkEKq43iSDgjmQH/794TE5Mgde2ficY697ww7F/ScZQr87MX4l5uxRxVkGwFNT1nUrgOQmUZNfKXsXcj+D4T1LwbAqoud8um9Ose9MfB/4hDn3tQ8/5FvXuLgRUELhLTms6VxWBG0lPZHyA5qKe71gmatKElBZE77/ljz1/cxG0LFKnBBZCQAXBQijpM0pgmRG4EvkQXFOIaiDfjTkSO5qQfvJHYeC4wbY/i0B7bd8yi7VGZ7kSUEGwXHNG46UE5iDA3clEEKzxQ8inluXcB3tHQQsiCoKtvx+ClirzzaHmCFZvuSkBFQRumvGa7JVNIOX0HZk8RlPRqH3XJDEj/ePY/V8viiDY8HYg6h92ruxEauxfGQEVBK8Mtb5ICbw4AjEHiy2ziF/zRfwxy7pCo4MT2P/DOBEEG98OROWN5hf3Qg1pVRNQQbCqs1cTt1oJhO0okHWGuJwEN6WhGxuZELNRmpRueDsApZd1l7LVmv8vOl0qCF40UQ1PCbwCAgFbcmEsMJcTZNnilTOJz/wyAx+86ScWRbdSdamWV5AVq+IVKghWRTZqItyNAPcnpsXQu7/tLWsMMf1Tk8/EgogCggPJhRct+4O7GxtNr+sEVBC4zkx9KIElJ3Dy31Ox9nU/rFvjC84poHv2DAj+JF8ExPqvBiA3sGzJ46kRWBkEVBCsjHzSWCoBK4HJiWc49i9JoMXQhq8F4N6lGuu9C/uuYe0aX1AQpHndsV7XAyUwFwEVBHPR0XtKYBkSGO4fw6H/mYC1a/yw5dvBKL/aYI1lwrGbIiA++Ko/Yg8XW6/rgRKYi4AKgrno6D0lsAwJ9LYPYf/fx4laiHsRVN5oscYy7exdrH3NVyyKInYVWK/rgRKYi4AKgrno6D0lsAwJdNT14fPvR4sg2PbnEai9P7NtLC2IaFLKAePAD/OWYew1SsuRgAqC5ZgrGiclMAeBxopu7PreBVEBcbvKxsdd1qdpKcQ9iykIzq3Nsl7XAyUwFwEVBHPR0XtKYBkS4HLT7AmsW+OHvX8bjY66fmssbyZX4b3XfMVy6MS/p1qv64ESmIuACoK56Og9JbAMCTy+0YJP/kuYqIZk34G2mX0H7mXXyBwCWg4d+99JMrdgGSZBo7TMCKggWGYZotFRAvMRKMuvx5Zvh4hq6PCPEkErIsPRgmjLt4Kx9g0/sSzS7SoNMvp/LgIqCOaio/eUwDIkcC+rBhu+FijzBY7/OFm2qTSiSQuij74bKr0FWhb1dcz0Foxn9L8ScCSggsCRiJ4rgWVO4HJoOd57zceySf3P0uxiW1vWgW1/FimCQMYPGmbGD+we1BMlYENABYENDD1UAiuBQMTuAlELcb/isB1X7aLM7SppScQxAv5vqtTNaewA6YkpARUEplj0ohJYngRGh8anl5r2w/qvBeBK1EO7iHbU92PvDyxzDLb/RSRqSzvs7uuJEjAjoILAjIpeUwLLlAAnk3E2MdcY2vytINCU1NZx1vGX/xAnPQbuX2w769j2OT1WArYEVBDY0tBjJbDMCZRk12LTN4JkUbm9P4hBf+ewXYxpQXTknxOx7nVfbP1OMMou19vd1xMlYEZABYEZFb2mBJYpgeRTty17Fa/xg++GHDuLIUZ5cnwKHj9JkTGCjV8PxJ2M6mWaEo3WciKggmA55YbGRQnMQ8BnfbZU8u/+rg9ST5svM33652miGvrgTX8UxVXOE6LeVgKACgItBUpghRCgGujgPybI8hHS2k8zb+2ffTdTBAGFxdVI+8HkFZJUjeYrJvBcgmBqagr8ObqOzh48rW10vCznnd29qKppwBS3U3Jw3T19cm9ycnaYDo/qqRJwOwLV99pkoJhmozv+KsqpaWjA1rzpbSx9kHH+nttx0gS7TsBlQcD6u/JpPWJT8xCdlI3x8Qm7t167UYJjZ8PgFXARodFpGB4Ztd6/ceeB5V5gNAKjkjE4NDPQdef+Ixw7G4qzgTHwD09E/8Cg1Z8eKAElABQnPJGJYhQEh/8pEZPjk6ZYOI6w/qv+8qzfxhxMacPKlJNenCGwKEFQ/rga+z38se+Y30xIAFraOrFxx1FUTfcGTvpEICHtsjzT2dWDTTuP4VGlZVu9s4HRuJBwSe719A1gyy4PlDyw6DN9wuIRFm0/Y9LuRXqiBNyQQMyX17HudT/ZdCZ0+xWnBLjeEFVH3MB+119f1GUmnJLSGwYBlwWB4bGs/AlOnI/AMxsVT0JaHg6dDjIeQdGtUmw/4CXnmXlF+MJjRnDcLa3AJ/tOg2qgy4W3seeIt9Xfg4oqfPT5Sbseg/WmHigBNyQwNfkMp36WJkLgg7f8URD1yCmFvrZh2a+AgoCmphVFTU6f1RtKgAQWLQhKyipmCQIv/4sIvjCzBvqT6nps3H4UA4PDogryC0uwUq9rbMGG7UfR09uPiNgMUQkZN5tb27Fh2xHUNjQbl+b8T1k0MjouiWGC9KcMVlMZGBkfR1tDLzhTmBPJNr4diPKiBoyOzy7z/A4GBkbgtTZTxgm4iX3ymdsYm5jQ72K11w0jYxhzUNXPWXHa3Fy0ILhXOlsQHPMKRfy0KojvqKqpx5bdHujtG4CoghJndkyqb2oRdVBndx8oIDieYLiW1nZs3nkc1XULEwRTU89Q39KFmsZ21DZ16E8ZrKoy0NTVg/zkcpkgxk3p9/y3i3hQ0oDGzq7Z6WzuQHNPLyIPF8qkMo4nePwiFQ3tXahr6Zz9vJaVVcOkuqENHd2LW2TwhQqCUz6RuJiYbdTneFrTIBV6X/8g/Kj3j0m33qtvasWmnR6gFVHIhRQERCZZ77W0dWCTCIKFd2knp6ZEzST/eaw/ZbBKysAzPEOG9z1RC3HV0fPvZ2FsdMI8fyenxCKPG9Rs/law9Ar2/V0sOhr6zJ9fJYz0e7fUf2wUL8a9UEEQEJEIT/+L1niUlj/Bph3HMD4xgaiELHicD7fee1xVK6ohWhXFp+Xh8Jlg673qukas/+wI2jp05UQrFD1wWwITo5PwfMcyN2Dta76gVdB8rrt5UHoO77/lJ+MEDwvMzbnnC0fvuweBRQuC8oqnOO17wY7SvbLHMsg7OjYu11nB+4bGy/HDymps3e2BoaEROU/LKYRXQLQcc17B5l3HRYXEC9lXisHehe1AtDyof5SAGxKovd+OD38/RKyAPvqDUDy52bIgCl7vZMgm9tzDOMunZEF+9CH3JLAoQcBBXLb8f7X5C5SUV2JwunKnBdBp3ygEX0hB4Y0SHPEMQV1jq5DlxDOOE/iFJ4o1Ee9RdUTHCp8C43xwLIrvlIm/iqpa98wRTbUScCCQ6nkHa2k2+lV/WUeI6wktxKWeuSPqJI4TeK+fUdkuxK8+414EXBYErLTzCm7BOzhOJn5xkLe1vctKbWx8HGzt83pTi/1a6BMTk6AZacjFVNRPCwjDI3V8l/KLRYjU1C9skNjwq/+VwGolMD4ygUP/lCCrja593Re5QWULTmp5QaP0Ijb8XgB2/GUUuFeBOiVgRsBlQWAWiF5TAkrg5RAov9KALd8Olt7AZ38a7nRZCbO397UPYe/3o8Xv+2/4IenELbPH9JoSWPw8AmWnBJTAyydw8YsiUMfP3oDfJi4X4ZpVSJLHTVlqgktOcOtK7RW8/DxbiW/QHsFKzDWNs1sQ6Gsfxt6/jRE9PyeRXY93fUnpzoZ+7PxeFKgeWrfGF0kntVfgFoXHxUSqIHARmD6uBF4VgYeFjTI2wNnEO793AVT1LMZRJUQhwD2OKRQ6GnSsYDEcV7MfFQSrOXc1bSuaQKrn3Rmrnw+yAde0Qta0Ux1EQcLlJtat8UPi8ZvWe3qgBEhABYGWAyWwTAlwEtn7b/rhvd/1ReZzzgOgCarRK/j0T8LR9HjG0m+ZJl+j9QoJqCB4hbD1VUpgoQS6mwfw+X+Lxgdv+mHT1wPBpaWfxw10j+DAP8SJBRF7BUEfW5aHf54w1e/qIaCCYPXkpaZkFREoza2TtYJo9rnv72LQ1TTw3KkrTqgUQcAxh83fDEJ5wfMJl+eOkAawbAioIFg2WaERUQIzBNLO3sV7v+Mj6pxza7NeyHIrnJx25pcZMk5ANRH3Nxgbtt9hcCYGeuROBFQQuFNua1pXBIGJ8Sl4f3BJKmwuK8FB4xflKq43ywQ1mqNy45r7ubqUy4tiu5LDUUGwknNP474qCfS0Dcrm9LT95w5jj669wJVDnwGyuf0aX1DtxN7GYq2RViV8N02UCgI3zXhN9vIlwIqfew5TEHA2cF/H8AuNLJek3vzNYNngfuvvh6Dypq7t9UIBr8DAVBCswEzTKK9uAqHbr+KDaZt/n/XZmJxY2GqjC6UyMTaJ079Ix/tv+cvyFeG7ri7Uqz63SgmoIFilGavJWnkEuLtU4vFbsi8xVUK//m1vZAeUvpSE3Eh8YlmZ9O1AfPbH4Wiu1E2gXgroFRKoCoIVklEazdVN4NkzIOXMHZlAtunrQbLI3JF/TkJ3y+BLSfhgz/S8grf8Zawg4eiNl/IeDXRlEFBBsDLySWO5yglU3W7B5m8FYcPXAkUYHP6nRLTV9L7UVGd63xPz1A/e8sfev41Gd8vzz1V4qRHWwF8aARUELw2tBqwEFk7gwr5r0gvgZK/9fx+LtuqXKwQYMy4+t/OvokRFtHaNH/JCHiw8wvrkqiKggmBVZacmZiUS6GkZwq6/viCrg657ww9Xox69smRQAHHJCc5XOPLPiRgdsuw3/soioC9aFgRUECyLbNBIuDOBy6HlssooK+Pd//UiuhpfnYqm/kEHPvyDEBmg3vB2AG6lVrlzVrht2lUQuG3Wa8KXAwEu+0BTTi75sHaNL9hCf5VuanIKAVvysPY1X4mD1zuZmHrB5qqvMj36rsURUEGwOG7qSwm8EAJP77TK4nIcG+DexI+Lm8KUKl0AACAASURBVF5IuK4E8iC/XmYwc9kJWixl+d53xbs+uwoIqCBYBZmoSViZBGgVxIXfqBLi5K6T/56GyfEXO3lsIWTYAzj501Ssfc3HMqP5awG45Pdy5i8sJD76zKsnoILg1TPXN7o5gf7OYdxKqZL9iLneDyePvfe7PrgWU7FkZBorusSElIPV7BlweQvtGSxZdrzyF6sgeOXI9YXuSqD6bpusKrr3+9EyZ4Crf3LeACvf8J1XMT46uaRo6h504PPvR+P9NX7WtY4uqZpoSfPkVb1cBcGrIq3vcWsCdWUd2PGXkXjvNR/LPsRvcAtKH3z0h6HIDSzD1OQiNyR+wVTrH3ZaegaGMPhaADK9S8CZz+pWLwEVBKs3bzVly4RAX+cwDv8oUVr+XFWUv71/GwOfDdmouP7qB4fnw1Jf3jGjtvp6oMxvOPvrTJTm1S0bgTVfGvS+awRUELjGS59WAi4R4Jo+fptyZNYwBcCmbwbhkn8pOhv6XQrnVT/c8LAT+34Qg3d/xwcb3g6U9Yj4/+y7mSjJqVWB8Koz5CW/TwXBSwaswbsnAVoEXY16iIP/GC+qIAoAzhWIX0GLu3EA2X9LrggvjmPQxJWzkDd9PRBev85EbWm7e2buKky1CoJVmKmapKUh0F7bi5TTt3HmVxnY8zcXrbOFWYG+85+94bshB5xAttLc4+tN8NmYg63fCbb0bN4OlP+f/kk4CqMrVmSaVloevOz4LitBMDGxtFYTLxu2hr86CbQ+7UWix00ZDGbLmTOE+f/9N/3l/7Y/jUDckRvgWMFKdtzZjGou9gho8cQfTV8938lA+rm7KMmuRVfTq1seYyWzXG5xXxaCYHJyEkkZV3D8XBgCIhLR3bu89afLLRM1Pq+OwED3CJoqu0HrGloCJR6/iZ3fi5IWMitGTg7jcg0ffTcUX/z3WER/WYSWqp5XF8GX/KZnz56hOKESO/7SkmaOe1DocSyBy2jv/UEMjv8kBR7/moLjP07BmV+kI+5wMUou1ciy2mMrsEf0kpEui+CXhSCITcnFgRP+GBwaRlpOIY6fDcO49g6WRQFxx0jQVLKjvh93MqqR5nUXSSdvI/nUbUTuKQA3i9n6HcsibZx4xYp//VcD8MGb/qIKOvAPccjyKcGjokYM9o6uWnwcTPb8VYZYQK3/PX8ZO7D0gvxkYJkT5eT8DT/hQiG57c8ipPdAwUCe1t/J20g9cwfXEyplpzTOrqY57XIxqV21mWiTsCUXBENDI/h47yncf1Ap0Rofn8An+06j7NGrWwWRBY+ttsfFzagoahKTPpr12f2KmsAJN0PzfNycNdr0uBs9rc+3sxQ3LK++1+Y8Po7xe5XnRU0St972IWtRIhe2kJ3ymy9+RU3gujvdzTPcRgbHwQpn0WE6eWd5QaPMmvXblIvQbVdkRi/z+lpsBaL2XoPHT1Kw43tRsgYQW7q//s/esm0k7f7ff9MyaEq9PyeDrefyEG/44cv/EY/coFIM9azeyt+a2dMH3Pv4ya0WZPqUgOMfB34Yh63fDsZ7v+MjcyTIi70j8uFMZQoDDjYL09+2MOV2nOTLaxSs2/8yUvZj4J4M+38Yh/PvX5K8Ki9osP8eneSt3Te7yGfuZdfIoL7PB9mIOXgddzOrnb+7qAncVIh7OxiO40CsAxiXR0VNqLnfDtYLhmOvktcWXa6N76915vtjmKODi19CfMkFwZOnddi88zi6evoMTvjCww9xKbnW84UcsMtaebMZ4bsKELG7AJF7Chf2210Ar3czseOvouQjZ0FlS2bWb40vPv5uKI7/OFkqD7Pwgz/NF3txtnzYMgz4MG9hcXCIa9DHl3HonxKx5VvBVn3zrPiYxfFVXVvjJ3GjRQzjGrb9qnDh5ChDP+5yfNf4YuM3ArH/7+MQsCVX8pHr33zyx+GW1qazfFlkmlmhc2cu6vF5zPiywuI5r7OCZytfysPrvtYKbfM3g/DJH4Xh0z8Lx8d/FIr9P4xFTlApetpmBBjL4hR/Uzb/jWPjnu19Z9cMP8Z/Wz9m15yFY1w382N2zfY9hl/Ha1OzZ5hxW80HV+tRFP8YRfGV0sLPDy9HyLZ87PvvsbLcNSv7da/7Yd3rvg4/C3+yZy9LfjyWPDL5HheZ7wspl5ZyYFM+5nrXGkvDgDu8URiy7jnzywxs+/MIKVNrX/eVHiTnkbB+YMPj6P+y9CoX+63QH8shGx+BH11G2I6rUt/kBpctpKo0fWbJBcHd0gpsO+CJkdExawSPeoXgYuIl6/l8B6Nj42jt6UX0yev4t//jDH76Hzzx77/hiZ/9phd++hv8WY6t1+S6cd8Tv/yP56RFwkxjIeB/VgCcai/XWAmt8ZVWzjv/z3n89De9ZoXNd/z8t86C99+dbuX87Lcsz1niMfM+azxs4mbEkc/S36//k7e8Tyoim3iYxm36o7KP70zcDT8My0iP82u+1nQ7fXZ6VizT+vP/8yx++puekm62AM24OQ1nOj5GGjnrlq1Dg9uv/u/zki/ME6PiMEuj4d/xPXbPOjJimNP5apvnvPbea76yCufnfxeNM2vTcX7zJXiuz0TAtjykBd/FvZs1qHjcjPIHDXhS1YLW3l40dXajoaULdc0dqG/pRH1zJ+qaO1Ev13jM67xvXDeuWc5nnjXzP32txfBjCYfv4LueL2xLXI1wHOMxE1/naaPfhtYuYdAx2I/O4QF08TcyiPaBPrn3+EkLinIqEXfmBs5tvoSzG7OsP+H7QSa+/FE8PmRjQr7DaSHs+B1SKPO+5N1CyrMlnw0//M9v2a5scAnw6TAt952XDcfnGA7LC795+RZ+wwu/+r/OSQ9SnrX9Vn6L34qX82/FsYzOkUZ+a6wjjG/lp//BC1/+r3g0t/VII2S+OtPx/pILgnsvQBC0dfWhuaMbLXU9uJFZhfzEh3hwpQFXEh/i9qWnuJdTg8uJ5XKtIPkRijOeyCzJywnlKMuvR1FaJYrSHuPBlXrw2v28OgnnavIj8UO/d3OqcSe7GvnT4VxJeoRbWVW4l1crfvi+wpQKFGdUovRynVwrza/D9fRKFKZWWMJJsIQjcUt6ONt/aoU8T3+MB8Nx9M/38b18P8NhfBgvxs9II+NNDkwHw2G6mD6mk+mVsPPqhAN5MBz6JSfyIjdeu5db81z+rzCN5M9wDP4p0/ynGZXl16EovRLXUmf4l+TV4mZmFQz+kkZH/kxjxhOJJ9M2y3/W3P4Z9s2sKvBdBiPmE3mTW0F6BZrretA1YKnQnuEZWvp6MTw5ht7hYTR3dmNsagJNHd3o6h1AT/8Qaps6MDQ8KhUfy2Tf4DBqGtsxMDiCweFROe7tH0Jnz4AIBD7LipbnZv77Df9Do2ju6EFzew8GpsNh2O1dlkqW4fDdPX2D6OodtIZNQdHZ04/efks8GIem1m60dvZKnCRuQyNo7ehFY2u3xJ3PU7AwzPrmLnR0L8x/U1u3NY19A8Pij4JvaGQM9a2d6BsaxuDYKFp6ezGFZ6DAGJgYwTgm0drfhwlMoaamHfcKa1F22XkZZVln2TQr49cWUcbtyqh8Kw0omFVGLXUEwzfqCMcyyvJ9x6GMGmVLynhaJeby76yM81s3wuG7jTJqW0ewziGPiuImVNW1gZW6q27JBcGT6nps2nkcnd0zqqF9x30Rl5q34LTwo2PhphvDJDqGLPq6joF+TMKyrG9bvyX87pFBDD+z6NJa+yx++idG0T9u0eEZ10Yxga4hiymc4ZcFmC0cus7BASnEPDb89I4OYWjKkgnGtUFWHGMWXZ5xzeK/f7b/sSHwedswzfzz4+H76RgfxovOiCfjzfjTGe9k+gYmLPpr4xo5kIetX/IiN8MZz9I/OdEZ1+bzz4+dHzhdW7+Fdc/oIIam7PkPTI6ib8ye/5gN//b+PkkhK2Me03UyjdP5yLjN9j9pzT8z/2TEskJnpIf5ZPBnhUXX0z+Ilg7LMStbjmENDI2isbVL7rMXwAp2bGxCKmBeZIXNin1yckoqaKqK6Gz9swVNN5d/bhpDP3QdPf3omP5GeI1h9w4My7t4nwJlZHTcUvG2WMJmHAeGRjA+PmkNp62jF919g2CcGA6ZUngYaeTzbOHTUTj0Dy7Mf9v098cwaQZOf41t3RIOw6NAGB0dtzKi4KDAmJyaSWNn/wD6R+3LActYj7WM9kp8GahZGe9bRBm3K6PT9QHLqGMdwW+H4dMZ5cW2jPLbYy7bllHbZ+fzb1dGjTpmyKSOsSmjRjxY5/RMc6ulEB9ZgYJgeHgUn+47jbv3LUvwjo6NYceXZ/GoskagL+RPS2ev9YPgB8iPgq6uqRNsVQ2PjEtrjNdYuNmCY2F92tAmetzWaUHCj4PXaLHEj4UfKR1bTkPDY/JR1TZZZlOytcTW3cj4hPjht85uGVtU/EgZDgt5e3e/xI33ec3IJLbWZvlv75Hn6U/8T872z/fRH99Px/jw42X8GE86xpvxZzoYDtNFQUmBSb01rzH95EAedPRLTuRFbnQjY+N2/snJFf/MB37sDKemsU3CZAXAFvDENKOpqSm0dfehpb1X4sm4jY1PSOvW4F/b2I7B4TEMDo2Ax3RsbXb3WoQh0zbLf/+QNf/M/DNslhW+y2DECpz5ZfBnHJmfTW0W808+x7QwTcw/urnKmMGf5cEoW4b/xZZRjj0wHkYZtc2/mTJqiRvj2DcwhJGx6TRSSDkpo0Ya+fysMr4A/2RnpJFMpYxOfz/Oyih7MAYj+uV3bFZG2YuhYxliGaAzK+PO/NsycizjRhkdZhltmCmjUkdMztQRjBfDt00j42+UUX4/jmXUKFtSxufxb1dGjTqmxVLHGOHw3Y5llGXLsYwyHq66Je8RMMJJGfn44rgfunv7kJiRD9/QeAG+0MSwRcYf3ejYhHTJecwPlhD5QbP1RMdKky0nVmgsrKygWTmzK0zHa7zHD5atGrk2MCwVJwstw6TjPb6LlQb90A0OjUq3jBlmCfsZhkfGrHHjtYlJSyuUFe4s/8Oj8vxc/vk++jPixvgwXqzYjTTyHuNvpJFxY/qYTqaX8ZA0jo4LD96nX3IiLyON0uqcTtti/FN9wfAknAELI/IfJn8bRoyXkX+MmyWNM/yNNDryZz4aaZvtfzYjR//z8Wcc+YGwByCMplv5TBPzj45xm7+MWXoEkjaDsUv+Z8ooQ2I4RhklT4mbaRm14T9PGTXSaJv/1jLO72ce/wvh71hGObZnW0YZxtxldEjKOtNrVsbn9z+7jBtlVOqI6TRa6whrGbXwn53GmTLK74fly7aMGXUDv+fFlvH5yijDdiyjjIOrblkIgmdTz5CRc00mlEXGZWJg+iNxNTH6vBJQAkpACbhOYFkIAtejrT6UgBJQAkrgRRFQQfCiSGo4SkAJKIEVSkAFwQrNOI22ElACz0eAYxYLdRzbGxgckt/wiGXMaKF+HZ9jWCPPGYZjmM977raCgNYHLW0W07zngcgF82xdQ1Mbbpc8RP/04KjtPbPjusZWXL52B3kFt3D52m1UPKmVATSzZ41rExMTs55p7+zGrXsPcbesAr19L28FSH4EDc1tcEy3EbeF/ucAsq1rbe/CrXvl6LaZYW573/G4qaUdV67ftXJ7UPFUBswdn7M954dPCw5b19Pbj9v3H8nP1oTZ9pkXcTw2Ni7cxsYXvwwA48H4c8DfcJ3dvbh1txztHRbLGuO62X/m3b2yx8i5ehOXC2/j2s376OyymMaaPW9cY8XFgU9b1z8wKGExz1o7LBZstvdf1DHf3dDU+lwVZ3NrB+LT8pCSdRVkwLIXGZ+JDz47jFM+keC348zxO45Pv4x9x/3wi4178d6HB7D244Pir6D4njNvcr2tvRMlDx5bn+nrH0REbAZ2H/bGzkPnZEyU5XaxjsWgpr7ZaoCy2HDob9ULguLbZWhqnV3hP3xcgx0Hz+JSfjHqGlpcZsgF8oKikrH78Hl4BlxEW0c3bt8rlzA37TiGg6cCwUremWNl7ReWgAMnAvDx5yfxr+t2SQH7bL+nFDoKB1oEmLn8a7dx8+4DuUWri/Tca/Jezr/4/KiPHM9XSM3CNa6xUim+Yz5dva6hGXxP6qUCPKlpmCWQjDCc/WeFGBWfJR+Dh3cEKDjLK55izxFvbNpxXOL/uKrOmXfQ3Dg0Ok0WKfzsizP4t3W78O5HX+LTL85g71FfZOQWyYduFkDx7VJcKbort8iWHPlB0h/TtO2AF7IuX3fK3SxM22vM08Kb92cJGz7Dymb/CX/Ep+aJsKcwd8VR8CakXRZOR7xCUFXTgKc1DRImue086GVX6TiGffNeOQ6dDpJ0/nrLAfxs/efYvOu4pN8rMBpNLbO/ESMMVmb8Tgx34+4DicfnR73xhYe/cEtIv+yUu+HP2f+RkTEU3CgR6yvHZ9gKP+wZJGWG5YTm5a44CpHP9p/B8XOhOOkdCe+QOFm1IORiqgjCsJh0ePpfBC2YHB0bDgERSfCPSARXQCi8UYJTvpHIK7yFpMwrsiba+eA4jDvJy5Kyx/AKuCjBUvicD46VHxseDyqqkJx1VeqPJ9UNjq9e0PnQ8AjO+F/E8LDFcmxBnpw8tKIFAVtXvf2DYKuIH5rtj9cam9ukwqh8Orti4YxmVsSUqKzUYpJzUHTrvnT9nLCyXmarLDrxkkj0WyXlSMsuxInzEfANi0d9Y4ssl5GRdw0sZGzRODoWCprJcj0lVh4shEW3SqV129PXj9yCm9h7zFeuOfrleWxyDtKzC+VWeUU1jnmF4mltI8iDHwpbfSd9IsBWs6OjbGFrjqzYUnL8tbZ1CQsuB27mKqvqcC4oBtW1TVI5xKXmgkKno6vHrkXuRIYJ64Ong3Djbhmy82/glE+UhPekpl44XCm6Ix+e2YfJ+LCijojLQFd3r0zuunP/ETLzroMte1YmbLllX7lpFnVk5BQiJjlb7tXWN+OIZwgeVVaDwom/h4+rcdI7QgScWQCslDo6e2YxI8O29i6k51yDp/8FU0HCssgKhxU4e3/klld4G+wJ2VYkcwn//R7+Ukbzr93BGb8L8PS7IBUK486W+bmgWNOeKMuBd0gsSsufyLuYVyx/T2sa8bSuET5h8TjhHem0J3m16C5YcdKxkXDMM0QqxtHRMckDCqTTvlG4X25ZONKRHRtNfKdjWTO4MT1cgn7cpLfEHiLTyZ7y1et3pWWffaVYBBfTbThn5S06KVvKjPFcRl4RDp4MNE7lPxsWzBdH97CyWgSQ7fWKqhr5PnmN3xt7Ftdvmzeayh4+kTqGzzL9LOuOjg1V5oWZK39cLVwpTLwCou1+3sGx2H7AC1t2eSxaANu+c0ULAn5EXLl058Fz0tphi8f4HfYMltblv7y7HfzoHR2ldfCFFOtlznCOTs4RwbH3qA8+3HMC7396GEW3S63PGAesEM4HxdgJjaiELKnkjGc4AzUgMgl9AzOLkRn36J8VrW1B5r3IuAy0TXez2zu6pOXL1pKjS0jLQ850ZceWe1p2geMjSM7Mt/YabG/yg4mKz5SF/o6fC4fHuXDwv3F80icSv9i0T9Jn6884plANjEgyTkUAJWZcwdGzYThwMgBspW/cfgzZV2dXxmwF+4TESeVnBMDuelSC/bpS7Gkxbx0d/QdFJqHHQX0Uk5SNmjrLJvA0PWa+9piox7LyrsucFYbL1W1jU3IcXwFWMmzxmbmUS1el13LsbCg8zs9wIzu2FN/76EscPhNk5lUaJb6hM61H9ha55DrD+fJkILbv98SG7UeRmGleKQRGJksPwAj8cuEtaa0a5/wfHpsu+WF7jcesQLMuF9ldZiWXZPOuzLwiec7uoemTwuISa4VYU98k6g3H59jbYoPKzFHlyV4yBe9sblGS7p0Hz5oKUAoCVnr9g5Z5KM0tHci6XAyW0y9PBWLnl2fFf0RcptmrcSHxEmx7mGwAURDbOqprbJ8x7pU9egKas9u6usYWeIfGWy+x4cJl9M3c/QePrYKAqjXuucIera0reVApDS/ba8Yxe0Csh4pulkrjjg082x97aaz7xlzsJRnh2/5f0YKAla1PaLxIc7bSHX/s2p0LjDHN5Lv3H+HwmeBZhY+tF0ppVsps0bPH4OjYErqQkCUtLLYQ2Ypra+9GS1unHHNjHer+QqJT7RbTM8KhAAi5mGLXled4BQs3K0D2GJjJJ7wjTP1TvcDCR50jK2a2cg09LQVPS2unfLgVTmZnXym6jYuJ2aIvpc7U9seW+NXiewiPSTeia/e/oqoWX54IwIDDGAh7ZlQZRMRnSOvxocm7mT+MN8cyKPD4cbBlz9YyHXtH7CZTEPT1zx7noBqMQow9N8OxojjtF4XquiZhX3izRCoc9hAcXVZeEcKi0+U9zFe2FuubLOo7CmeyZ/yoBjBz7P2FRKfJ7NaR0dnc7tyvgH944qwyxbCYRk6adNTl870siyxPFGD3bHTKtnGgwKRqorW9U1r1zHtDpck8ZwVlEaCWWcW2fsseViH4Yopdo4S9WJYBOrbMKciyr9yw9WY95nv9wxKk19XU2i4VFxtOdFRPMC+N+Fk92Rw8fPxUennMXy4u6VjeHj2pxfmg2FkNIwbB/N3v4YfaeougN4Lle0sfPpE8ZLqL71hUpcZ94z97Q/yuLN+WPRsKSKokQy6kSpwMP8Z/xpPxYp5SPcbndx06j9zpRg7HWH65eR+odjNz9U0t0sPk+ARVSX5h8VKnsBxX1zWCPWOOUZj13BkeGzW2Ywxm7+C34NigNHtuvmsrWhCwAubHO5fekAM2rNwdHSsA6oXvlVUsaiCKunKOA1C9ZJsRbLVSBbB1zwkRBo7vNc6phthz1AenfKPgF56ID/ecFB0wW+xdPb1S+DNyrxmP2/1//LROWmVcj4ndytDoVFHP8KHkrCt4Z+t+UVex4jVzVA2xAnbm2AtpdjKQ3tHZLRUt1TD8UFx1zC9uPETdpv3EwWdSkW3Yfszph8V3sUVKXbvH+QgERCTjk72npSXMj4v5zFZnTLJ5C415xhYeK/uk9HzxdynfUvlx8JTcopOznXa1h6ZVHM7SzIYJde2ckezo+vsHpfeVnV9sWh4dn3c8Z+OC5erY2TBRhdrep0Bb9+lhMTYwUy1R4EbGZ0mlR533Ua9QGUeqnR4bY6ODS783t9lXlMY72MC5kHAJscm5SEzPF3VIapal9U/DiHc/OoCgqBRRExl+bP+z8jd6urbXjWOWU1aGZgYIbHQx3axIKTQX46gCoxqOYdk6ql4Co5JFbWN73faYKmaOEZAPe24UeIajkKJKySy/bZ+hkGZ9Q44s/ywe7JlwvIIt/OXgVrQgeBEAmTnG8hKuhseCadbyrG9stbbW5gqT1jfsTtMq4cadB9JC5vOsRlwxbRM/05UPCy4FhVmFMFdcXLnHHgsLtJmAXUg4HNzi/hOO1SU/Drbs53OsVKiPj0+7LK1kLotgOLPKxLhn/Gf8Ha1g2MKnHnquRoXhf7H/mSftnT3oNentLCRMNjIowB0rHvKwtNAdidqHypYrmbHMGT0hPmH0pO2fnvvMKF+ME3ulbKG/NMcd47p6Fl3ejHgxnSyz/C0mvlJuJqfEr2P5Md7xqv6z5+5qHTFX3NxeEMwFZ7nf6+rum9U65MAjKwb71rZ5SoyP2bjLyoQ9FbauF+Oex397Vw96+yzqHLb6Xe1t0D8rWTqOCZn554fs6GgeSD0trThs98RwfM7snK109oxyC26K+Sl7BK44+qfaZSH+maeDi1x6xTAOcCVuZs+ykcEeoeEodLk4pKHaM647+8+WMdWOVLEUFt8zHbtz5pfX2XCy9W+mtjXzz3JFNS8HVjduOyr/1392RCz2rt+aPQboGAbNlHcdPo/1nx22hLH9qIxNsmdJddfzOJY/qubMHIUsx6U4kM4BbarlDMceFNV7VOc5fsfGM678V0HgCi0XnmWlc+3W/VmDQwsNgv5pSeQ4uET/bA0EX0wVfSXVJLRc6O6xVKJUU9F6g+oXQ4/r+E6abFKvvveYD2JScqSFQ1M2qqc4qEf1gVlFaoTT2NQmVivO/Sc69c8xFfbCqHrigCn13CzU1P2Hx2agqrpB9KqOunTj3WwZ0j9/0vNqtPEfkyFddVpMseJ0dDS5tTWr5THNf6knptnt9i/Pio292YfFa7RyOuoVIr0GVoBcJZd+qa7h8dnAGBm3cXwvz2f5f1Ir6pmF+ueYEi1HqErgmIArjuobqjZoneNMHz1feJfyr4shBi3GyI1CgZZCNB89dDpY1G3OVJF81ic0DrR6Yvn617U7rabSh84E41bJwzlfb+//uMX/JwdBU2sah9Biypljeg+eCgIH26/duA+Ol3D8jrp3zqfgOGF4TIapWoqCLjwmTdSNHGAme/qloYGMm4QnyvudVeQmGsJZ0eS4mrNNuGhZxnLJhkLqpUJRJdnOO3j0pAa7D513uQEzKxLuMI/ALNEv4horSqqFWGGx0rH9cZLOnZKHOOIZ7FSvOa//+4+kAJrpRTlARB05K1HqKWkPH5d6WeYyGGnjIDktORwdu8UcoKLekxZHbGnQ9JWDlaxk+aNFEy09zBz9n/bhuEbCovxTpfPOli+w56i3tNICo5JkcHnHwXNSmR71DJHKwkzlxvhw3GRO/16h2LjjmOnEtPScQhlcZDhkd+RMCGjix7zgj4OPJ86Hm1rekAsH79kCY8+BJo05V27IwC17UFQ10AqIOnQzN8u//wVwvIC9iIX4D4xMkpY0K73E9MuiGqMazZmZrW0cWGlxIJqqr9TsAokjB8TZGjUTerZ+eVzb0Cx5xAYEe5ql5ZVirUKhwDBoocXGyP3yJ45ehQ9NsznPgK1nlh9aZV29bjE5Ts68IpXd/Yez/TIw9nBn+S+g/7tSVpOyrs7pn35thf+sCAJilWRmy0/LKmdm1EY4HDjmYLCZY77StJmmvsYcAuM/xwdobk4LvYjY2YYZVPv4ygD9Ginm7AAABz1JREFUTI+D/Ci8mI90NBhg2Cy7z+u0R7BIgpTkW3efkBYFK1KaYRo/DgBzsJgtbGc65/n9n5QwzPzzY3a02WYLOe/abWtLOCw6zbSlRLt5mmAajq04mvTZWvmwJ8EP28yxJcxKyXBm/jmA5sw/K1EKGQ5Y5hfdkULMLjDNF1nJU/DRSoPjBWZubv+FUlGJf5OZtvbmo0+scwps38PKmQPHjo7WOhyUpaN+mBWro2UTeyg0HjCrXG39kxn9O44VzOU/9GIqOGeEjkKSFSErE7Zo9x/3w0d7TooJsJlK8NqNEpl7InGfnAIrXZo7H/EMFYOHbfs9ZUIeBaGZ47tSL80MkrLSZO/JVi3Cxknq9NwW2zA6u3qmy8uMupH5zcpvYLpnQ4HGuSFmc26c+adVH1VedNU0aXXin8KfA93O9OlswLFhRLWTo6OKkRUtx8PMHHsMND7g3BZnjvnMSaMcnzH7sXFhzNGwDYNhs6fgOJZBTQEt49gzoKqQvTIVBLbkXvExJ9GcD46RipeZNTA0bP0NjYzKZB22Gh3NLI1ozuu/tkmsJdjicnS0dGJrlAOurbT0mP7GqB5ii7W+qQ0UBGZmbZzwxo+Iel1DxVBd2yjHbH2xkqEKgS01M8eZmuK/ybl/zt515t8IkxU9Kw5WvEwjdbWGWR672vO1dBfjPzO3CBExGSJs2CPgPILG6Ul3hkUQLbE489PRcY13mQSYlofuvn5cv10qrTOuGcOKnTxZodC6xcxZ/afmgWMDnISUc/WGfMQL8X82MBqXHezfqQasrK6XyWmcFJaUeXWWZQzjQlt3lkVHAcUKjnFgq5cVFgWRmWOjwz88Qcoy8+rwmRDpHdkul8GWN9/j6CiYAiIT7dSUfA8bSxSEHOhnZc3Z+WaCwKl/nyj09E77z53L/5D0rDnznC1s6vWZj2ExaaIe5exqNkKcOQ6sc34HBQIrfe6dwgqaQph7rbMRxV6OM8dvi5M9nTmajVN1Z+YePKqS93DCqO2kNXJiY4XqIlrJuTq2ZfYu7RGYUVnANbbU2Qp36p5B1kixtWixfXZe/xwca2o1nXbPFhUnp3y095RMYed+DoajWsowB7xbOrtCY2Vw7WaJqGEczVPZauWyGzST45IZZo7+i6b9U81j6wz/B8S/eSvK9nkec5CWOlDqv1khuOpc8c9JZxw0pACgeoVqMU5OouOH9esPD8gEJGetR35w7I19cSIAnAD147U78KstX+CTfafw0ecnRV1m7KBllg6L/0Ixf9116Bx+Qv+bF+afFS3VClQxOVboZu+yvcZe4IGT/tKKdFYebZ93PGYrlJPPOPZyxCtUJkpSP80KlebK7CHS3t6s0cKwOAaw6/A5nAuOFZNfskrPsVS+FMRkkesg5Gzj4OifPW0OlNJxDIBhz+WfDRw2NM74X5Cez5bdHqJO4vwDqr3mc+yxsNXO8RwOOHMpEgr963fKnPY05gtzofc5LsF8d7Smo9qJ3zGFEnsPz+tUEDwvwSXyz8ynmqaheXYrjuaZbNX2mkyqMqLLFrXjh8uWBq2GzAZaDX/Gf1qPPI9/Ixz+Z4+KPRyzaf62zzk7dtU/KwZW9qxQ2Rqn44Jz1JsPj8xvBtnc2imT2rjGE2ej8//TBZi9GvHnhD8aAlAQu+Lf0gPsmmU+aoQ713+qD1hpLlaNQFac+FVeUWVlRiughPR8qZRt1URm8aC6MS4tT9JLU2lDmPG/bc/CzC+v2frn5DFX/TsLV69bCKgg0JKgBJSAWxOgenWxprkc03I2hrAQqFR9PY//xmZOxJttFr2Qd9s+o4LAloYeKwEl4HYEqPZh79rRLcT8kybJVNuZuYX4pxWYYYRgFsZc1ziORsstt199dC5Iek8JKAElwDkInJ/iGxovFl206jJ+XBSS4wY/W78HHNR1dNTDc+4IdfSGH+M/LdM4NvLOlv1iPOHol+fi/8o8/rfuNzUfpX+u62W8z/E/xzc4x4DWiTpGYEZfrykBJaAEpglQdfPJvtNiLktLL8cf51hw8NqwzXcEx8qeiwU6+pPzW6ViBk3TXmeOaxlxaXRn/jkZ0cx8lOFx4hrnxHAy2yz/t0rFQo1LUduudeYsHvNdV9XQfIT0vhJQAiuWAAeVaZ7paI9vmyDO6THMiG2v85gGDHMZMXAA3sxM2whnPv/Nre2my8XTP40xnJmWGuHT1NtxMT3jniv/VRC4QkufVQJKQAmsQgIqCFZhpmqSlIASUAKuEFBB4AotfVYJKAElsAoJqCBYhZmqSVICSkAJuEJABYErtPRZJaAElMAqJKCCYBVmqiZJCSgBJeAKARUErtDSZ5WAElACq5CACoJVmKmaJCWgBJSAKwTsBMHI2LgrfvVZJaAElIASWAUEWPdXN7TjK3XNXejpHwIlg/6UgZYBLQNaBtynDPT2D6G2qRNfaWjtQn1Ll0gFSgb9KQMtA1oGtAy4RxmgEKhv6sT/Dzbp+K6QvYeVAAAAAElFTkSuQmCC;" vertex="1" parent="1">
          <mxGeometry x="249.99999999999997" y="177" width="151.9" height="85" as="geometry" />
        </mxCell>
        <mxCell id="hm0pcYK8jrE48RgcLdMb-10" value="" style="shape=image;verticalLabelPosition=bottom;labelBackgroundColor=#ffffff;verticalAlign=top;aspect=fixed;imageAspect=0;image=data:image/png,iVBORw0KGgoAAAANSUhEUgAAAYIAAADaCAYAAACrUEWnAAAgAElEQVR4Ae2993dcyXUtrD/he7++sJakCZygkRUs2bIly5Il+1nWZ1uW7WfJerI0ymFmOMMAggHMESRAEiCYA0gwZxIkwQzmnCNIgsi5c877rV2Nun1vowGiQc4QQJ9aC7h9q+pW2FV1dtWp9Km2LheaO1142tQpf4KB1AGpA1IHcqgONLU70NrpxKeaO1xwenwIhMLyJxhIHZA6IHUgh+qA0+NHU7sTn+JIIBiOQIwgIAgIAoJAbiFA2U8OUETA0YAYQUAQEAQEgdxCgLJfiCC3ylxyKwgIAoKABQEhAgsc8iIICAKCQO4hIESQe2UuORYEBAFBwIKAEIEFDnkRBAQBQSD3EBAiyL0ylxwLAoKAIGBBQIjAAoe8CAKCgCCQewgIEeRemUuOBQFBQBCwICBEYIFDXgQBQUAQyD0EhAhyr8wlx4KAICAIWBAQIrDAIS+CgCAgCOQeAkIEuVfmkmNBQBAQBCwICBFY4JAXQUAQEARyDwEhgtwrc8mxICAICAIWBIQILHDIiyAgCAgCuYeAEEHulbnkWBAQBAQBCwJCBBY45EUQEAQEgdxDQIgg98pcciwICAKCgAUBIQILHPIiCAgCgkDuISBEkHtlLjkWBAQBQcCCgBCBBQ55EQQEAUEg9xAQIsi9MpccCwKCgCBgQUCIwAKHvAgCgoAgkHsICBHkXplLjgUBQUAQsCAgRGCBQ14EAUFAEMg9BIQIcq/MJceCgCAgCFgQECKwwCEvgoAgIAjkHgJCBLlX5pJjQUAQEAQsCAgRWOCQF0FAEBAEcg8BIYLcK3PJsSAgCAgCFgSECCxwyIsgIAgIArmHgBBB7pW55FgQEAQEAQsCQgQWOORFEBAEBIHcQ0CIIPfKXHIsCAgCgoAFASECCxzyIggIAoJA7iEgRJB7ZS45FgQEAUHAgoAQgQUOeREEBAFBIPcQECLIvTKXHAsCgoAgYEFAiMACh7wIAoKAIJB7CAgR5F6ZS44FAUFAELAgIERggUNeBAFBQBDIPQSECHKvzCXHgoAgIAhYEBAisMAhL4KAICAI5B4CQgS5V+aSY0FAEBAELAgIEVjgkBdBQBAQBHIPgY+FCBKJRK9I9unW61fiIAgIAoKAIPBxIZA1EZw4exXTF6zCnMXr1HNVxR74/UGVvmg0ht0HT2J+2QZs2lmFQDBkpDsWi2P/4dNYUFaBDdsPwucLGG7xeAIHj53D/LIKrNuyH26Pz3CTH4KAICAICAIfLwJZE8HR6kuorW9Ge6cdre1dsDtc0L38iu0HUVi6Hm6vD5t2VWFZ+U4j9dv2HsWshWuUkN+x/xhKVm1BPB5X7nsOnsS0BSvhdHuxt+oUipdtAklFjCAgCAgCgsDHj0BWRECBf+r89Yypcro9+GhSER7VNip3p8uDUQVFaGnrRCgcwajJxbj78Ily8/kDGD2lGE8bWsCRwtipi3D99kPlRr9jpi7CvZqnGeMRS0FAEBAEBIEXi0DWRHDy7BWcv3IbZWu3Y/Puw/AHkmqhm3dr8FFBkaEmImnkzyjFmUs30dDUhpETF1hUPpPmLMXR05fUqOKDCfNhc7iNnE1bsAK7Kk8Y7/35wfjkTzCQOiB1IJfqQH9kY3/8ZE0Eqyp24+zlW3j0tBEVOw6hePkmpeI5d+kmCuYuM9Q9LIwphStQff4a7jx4gomzyxCJRI00zSxeg6oTF1DzpB75M0oQDIUNt3ml5di654jx/qwfnGNoanegvqULDa02+RMMpA5IHciJOmCWqc+Sk325Z00EbR02I7xAIIS86YvR1mHHpet3UTCvFyK4/zhJBNGeRPDwBRABFyn5AiF4/UH5EwykDkgdyJk6oOdZDaE8wB9ZEQHjYMTs7dPE4nFMX7ASd+4/Rk1tPT6aXGyoiuhn3IwSnL54A/WNrRg5qadq6MipS2hp7wRVQ3anVTW0Y//xAWZJPhMEBAFBQBDIBoGsiOBJXROmzl+pVgwxklA4jPEzl6hVRJwr+HDSAtTWNan4XR4v8qYtRnNrp1L7fFRQjPuPkhPAHEmQJGrrWxCNxTBmykLcuvtIfcehzviZpbj3sDabfIhfQUAQEAQEgQEikBUR1De1YczUxahvbEE4HMG+qlOYXrTK0P2Xb9mv9gmQFLhclHsCtOFyUu49oNvug9VYsWGXdgJ7/zOKVoGriSqPnkXZ2h1IxHvflGZ8KD8EAUFAEBAEnhuBrIiAsdU8aQA3kc0sXo2l63ag0+YwEhGORLB93zEULlmPzbuPwOvzG27RaBS7DpxUbpxk5l4DbWKxGPYeOoXCJRuwflslXG6vdpKnICAICAKCwMeMQNZEwPTEEwljFJApfX1tBhuoW6Z4xE4QEAQEAUHg+REYEBE8f7QSgiAgCAgCgsBgQUCIYLCUhKRDEBAEBIGXhIAQwUsCXqIVBAQBQWCwICBEMFhKQtIhCAgCgsBLQkCI4CUBL9EKAoKAIDBYEBAiGCwlIekQBAQBQeAlISBE8JKAl2gFAUFAEBgsCAgRDJaSkHQIAoKAIPCSEBAieEnAS7SCwGBAgNfJmk+w5DEvHZ124/BIppHnf/EEAf3Hnf88RYCGF1B1dCXdbA6Xup7WHN5gyKOk4dkICBE8GyPxIQgMSwS27j2CH/1mPG7eSx74yDtG5pWUY17penVL4JUb91W+m1o6sGjlZixasRklq7aCB0jyScMjZRYsrcDilVvUWWJ/GDcXrW2dwxKv4ZwpIYLhXLqSt5xAIBFNXerU3wzzaHjeEsibAy9cvaM+o11Ta4f6XXn0jDo6PtPFJ5PnLVdng6XHdfTUJUyYtcRyyVS6H3kfnAgIEQzOcpFUCQL9QiBadxXupf8J//5ZSIRSBzk+62P26E+cvap6+ucu3+zhvaa2QV09S9WR2dyrqcV74+eBd5SbDc8QI7EcOnbObC2/hwgCQgRDpKAkmYJAJgQ8636LrpH/E7YxryJ891gmLz3sLl67g6JlG5X93JJ1OH/lVg8/y8p3KpLgNbBmU7p6K1Zt3GO2Ur/vPnyCDwuKLPeS9/AkFoMWASGCQVs0kjBB4BkIxCJwFn8ftnFvwjb6FQQvJIV7X19xcpfqm5t3H6lJYN4nUn3uqmXCmCOEP46bC/O1tAyzpa0Dvxk1C08bWnpEMWfROqzZtLeHvVgMDQSECIZGOUkqBYEeCMQczXDO+y5s+W/BNuY1BE6u7OEn3eLx00aMnrJQjQg4Kvi/f5iEvOm8LTB5s+DDx3V4b3wh7j7oeUNgxY6DmLagZxxNLe347ejMBJEev7wPTgSeiwjOXb4FuyN11zCzeOnaXXBYeeLMlR45vnrzAZav34Uj1RcB64gTN+7UKLdDx88jnoj3+FYsBAFBwIpApOEmHDP+Evbxn4Nt7OvwHyqyeujjjUs8eVkU9fonz15R95DzKtpfjJyG3QdPqkulHC6Pce8Il4z+8sPpYJs3G95NXrZ2e0aCMPuT34MbgQETAXWCP3tvCppNS8UOn7ig7jS+V/NUVQ7zBfSsbJPnLVN3EZMMNu+qMpA5e/GmqpB3HjzB6o17sX7bASTSiMLwLD8EAUFAIcA5AfukL8E+4R3Y8kbAt3d61sjwStkHj+rUdyfOXsG46SVYsmY7ipdtUstFa+ubldvDx/WqTadPHnM/waqK3bh2+0HWccsHgweBAREBN53wOsr3J8xHa3uXyk0gGMTYqYtw9WZy7XFre6e6lJ4jhlgsjnEzSnGue1LKZneq4anWQU6cXYaTZ6+qcNwer3LjUjYxgoAg0DsCwQubFQHYJ34Btrw34N2a17tncREE+kBgQERw7PQlVB45g5JVW9DQ3KaCv/ewFh9MnA+PN3lPcSwex9hpi8EVCi1tnXh/fCEcztSSM05YVZ+/hi6bQ+kkuTtRG44c9h8+rV/lKQgIAhkQCBwpge2jT8M+6YtJIlj/xwy+xEoQeDYCWRNBY3MbDhw9C58/iKKlFQYRcKUB9Y28iF6bKYUrcPLcVdyveapWKoTDyW3pdJ9ZvAaHTpwHJ6/GzShRW9P1d/NKy7Fl9xH9+swnl7i129xo6XCgtdMpf4LB8K4DXW602tzo2jQOjjGvKiKwc8K47D/VCL3V5hne+Zf6bZRvX3fAP1NwmjxkRQQU5EkSCKggipZtQoct2ZOvPncNBfOWqUknOnISiURQff46bt17BKp/oiaSIBFUnbyIB4+eIn9mCUImkiARbN3TfyJgXHaXD10OD2xOr/wJBsO7Drh8sNnssK36Nex5I7qJ4G3Yi/8ZXV022Fz+4Z1/qd9G+VLt/iJMVkRw+vx1tbKHK3zOXrqpJpaoIurosuP67QdKFRQM6e3uCUyYVabUP1yaxiVrPl+SQJhwkkTVyQtobGlTOxi5KkGbmQtXg5NYYgQBQaAXBIJuuJf8u9pDoFRD+W/DNe/vgKh1J3AvX4u1IGBBICsi4Gqg8m0HsGHbAbV55Pd5c7Bw+Sa16oAnE3KOwDx5TOFP1Q/nDT6YMB/1Tcn5hEgkhrxpi9VaZRLHhxMX4HFto0pYPJFA/oxStQzVklJ5EQQEAQOBuLMFjtl/rZaOkgi4hNQx66+R8NkNP/JDEOgvAlkRQXqgcxaXq/XG2r542Ua1/JPvx89cVicSUm1Ds2T1Nixdt0P95nJRnlio9VsrNuzC4pWbldul63fV6Yfm+QTlIP8EAUHAQCDW+hD2CZ+HfeKfJFVDJIIZX0esq97wIz8Egf4iMCAi4AmFPLTqx7+dYOwbYIQ2uwtL1mxT64+Xrt2B5u6TDOnGre0kAh5nSz96tRHd3B6fUjmpY25Xb824hb2/GRJ/gkAuIBCpOZscDRhE8A4c076GaPPdXMi+5PEFIzAgIqA6h2eUd9mdaGxut4wK2MtvaGpDKKznClIp5sQGCSB9Uwp9cOUP3fyBYOoD+SUICAIZEQhe2Qlb/tvgHgKlGprwDuxTvopI7aWM/sVSEOgLgQERQV8BipsgIAh8/AgEjpUmJ4oNIvg87AVfRvj+iY8/colh2CEgRDDsilQylAsI+HZMVJvI7JP0iIDzBV9A+Mb+XMi+5PEFIyBE8IIBleAEgU8CAc/qX6iD5pRaiGTAuYLxn0Pw/KZPInqJY5ghIEQwzApUspMDCERCcJX8G2xjR8Be8CWlEiIR2Ma9gcDJFTkAgGTxRSMgRPCiEZXwBIGPGQF1D8H8/60OnONeAmfh38E+/h11J4G/qvhjjl2CH44ICBEMx1KVPA1rBKKNt+CY8Q2lGnIt/iGUmmjcW7CN+uyAjqIe1mBJ5vqFgBBBv2AST4LA4EEgcv8kOEnMy2jcK/4Lvt1TkreUjfosvNvyB09CJSVDBgEhgiFTVJJQQSCJQOjydnVZvW3sa/CU/x6BM2thH/+2urfYs3GkwCQIZI2AEEHWkMkHgsDLRSBwfClsoz6jRgS+HRMQunlAHTfBC+w9a38DxKMvN4ES+5BDQIhgyBWZJDjXEfBSFTTmVbWhLHC0BJEH1erKStq5V/wUibAv1yGS/GeJgBBBloCJd0HgpSIQi8Kz4T1QLWTLfwvBS9sQeXoZ9slfUauGXKX/jrgvddvfS02rRD5kEBAiGDJFJQkVBIBEyAd32Y+Su4rHv4Pwg2pEW+7DMfVrSlXkLPo+4k6571vqSnYICBFkh5f4FgReKgJxrw3OOd9WowEeQ00SiNmbupeTjoBjzt8gLkdRv9QyGoqRCxEMxVKTNOcsArHOWtgn/2ny5NEpX0Xc1Ya4z64upbHljYBj+l8g1laTs/hIxgeGgBDBwHCTrwSBl4JA5NE52Cd+UamGXAu+h4TfhUQkCOecv1FHTPDgOW44EyMIZIOAEEE2aIlfQeAlIxC6uhP2Ce8Ym8kS0TCQSMA5/+/VKiKOCjh5LEYQyAaBrImAl9GUb63EvNJy7Kw8gUgktWaZ11IeOn4ORcs2Ymfl8TQ34Ej1RRQv24Ste44idcl9MrnHz1xRbpt2VcnlNNmUoPjNKQQCx8uSu4jHvArv5tHJvCcScHVfZE8iCN8/mVOYSGafH4GsiIA3i01bsBK3HzyBzeHC/LIN2LL7sJGKbXuPYvaiteBF9iSLNZv2Gm57DlZjetEqdHQ5QGG/vHwn9H3GB4+exZR5y9Heacf2fcdQunobeJuZGEFAELAi4NtVoEYD3FDmq5zb7ZhInjeU94Y6iC50Y5/1I3kTBJ6BQFZE4HJ7UbhkA1rau1SwN24/xITZZeq31+fHqIJiPKipU+8kilGTi9DeYVMjg9FTFuHm3eQklsfrx+gpxepqyng8jrzpi3H5+j31XTAYwpgpC1HzRC7hVoDIP0HAhIBn3e+Sm8lGfQbB06sNF2/FSEUCtrw3ELwgdxIYwMiPfiGQFRGkh3j4xHnMK12vrG/ff4wPJxXB5w+o93gijnEzSnDu8i11r/EHE+eDRKLNpNlLcezMZbR12PD++EJ18b12mzp/BXYfkOGtxkOeggARSIQDcC39kSICe/7bCF9Pjbh51ATVQiSCwIllApggkBUCAyICqn4qj5xRcwFU59CcuXgDBXOXgT18ZRIJTClcgZPnruHugydq5GCeT5hZvAaHTlxATW098meUWOYMOP+wdc+RZDj9+M+L75s7HGhotaGxTf4Eg2FYB7q8aK65B1vh38OR97q6qL7lUhUa7EE0drjQsW0KHHlvwDHuTXTsmIHGTjca2+3SHoa5PDDL1H6Iyl69DIgIGpvblKCmLv/6nYcq8NPnr6NgXooIqP8nEVSfvwaOFibOLkM0mppYJhFUnbyAh4/rkD+zBKFwxEhktkSQSAAeXxBub0D+BIPhWQf8EbgeX4N9xtdh581ks74Jd+0tuANRuP0hOA8uhH3s67DnvQHntknKzi1tYnjWBVMbNzrehvQc2I8BEYGO6mlDCyYXroDfH8Cd+48xavJCBAIh5UwiyJ9ZitMXr6OusQUfFhSBcwPacPRwuPoimts6MHLiAjhcHu2E6QtWqkljw0J+CAKCAGK1F7rvIRihlovCZzNQCZ5dlzx/KO8N+LaOMezlhyDQHwSyIgLq85eu24GObnVQIp7ABxMKce9hrSIDCvT6xuQ5Jx6fH2OnLVLzA1xtxPmDR7UNKk1cOjpuegkeP21CJBrFqMnFuPugVrlFozFFILfuPepP+sWPIJAzCIRuVsI25hU1F+Aq+VcgkVpZl7yj4DU1R+BZ++ucwUQy+mIQyIoI6hpb8csPpxvC/vyV25hSuBzO7t78yg27sWjFFkRjMew+WI2VFXuMVJZvqVTLTSnoDxw7i7K1243lo5t3Vallp9R3HT11CYtXbpXlowZy8kMQSCIQPL1GXT7DSWFeSGM2odtVydVEeW/AtfTHZif5LQg8E4GsiICh3bhTg0UrNqtlpBT8jS3tRiRUC1XsOIjCJeuxfusBgyDoIRQKY/Ouw+q7tZv3we50Gd+FwxFwDwKXpq7auAfctCZGEBAErAj49s9OqX/2TLc4RmrOqNEAScJV/E+W0YLFo7wIAhkQyJoIGAaFutcXMHr06eHqJaTp9nwfqFumsMROEMgZBBJxeDdyr8DryQtpqldYsq7uJJjEM4heh3P+95AIpubcLB7lRRDIgMCAiCBDOGIlCAgCHyMCiWgI7rL/UAfL2ca9idCN/ZbYok234ZjWfSfB3L9F3JUaqVs8yosgkAEBIYIMoIiVIDDYEEj4nXDoewjy30a07polibH2R3DO/pY6fsIx668R7XhscZcXQaAvBIQI+kJH3ASBQYJAtPkeHFP/TKmFHDO+jlhX8igXnby4ownOBd9T11U6Zvwloo03tZM8BYFnIiBE8EyIxIMg8PIRCN08AN41YBs7Aq6SHyLhS+7o1ymLezrhWvwvauWQY8qfIfL4gnaSpyDwTASECJ4JkXgQBF4+AoETy5Orgsa8oi6vT8RjlkRxcpjLRm1jXoV90pcQvnvU4i4vgkBfCAgR9IWOuAkCgwQB785JsI36LNTx0/tn9UhVIhaBe9W7SSKY8A5C11N7eHp4FgtBIA0BIYI0QORVEBh0CMSj8Kz9TfdmsjcRPJs88Tc9ndxkZhv9ilpZFJKjqNPhkfc+EBAi6AMccRIEBgMCcXcHXAv/Wa0Ishf0rvbxbh6lRgwkg2DaPoPBkA9Jw+BFQIhg8JaNpEwQUAjEWh7AMf1rao7AMfPriLYmL3hKh8fL28t4FtFHn0bg8MJ0Z3kXBHpFQIigV2jEQRAYHAhEHp0zNpI55/9vJEKpU3zNKfQfmJfceTzqM/BnmEcw+5XfgoAZASECMxryWxAYhAjw6knb2NfViMC98ue9pjBwYqnaZ2Ab/Vl4t0/o1Z84CALpCAgRpCMi74LAIEPAt39W9zWUI+DbPbnX1AXPbYB9/OfUhLF344dy8FyvSIlDOgJCBOmIyLsgMMgQ8Kz5dXIPwdjXETy1ptfUha7uhn3C59USUq4ySkSSl0T1+oE4CALdCAgRSFUQBAYzAtEIXMX/mJwjyBuB8P0TvaY2dPcI7DyBdMxrcC/7iZxA2itS4pCOgBBBOiLyLggMIgR4ppBj1jeTK4amfBXRpju9pi78+BzsBV9W8wk8biLuTV1l2etH4iAIABgQEfAGMn8g2Ot9BPre4kwI89rK3kxfbr19I/aCwHBGIFxzGvYpX1GrgVwL/gFxR3Ov2SVJ2Kd8Vc0ncHVR3NnWq19xEATMCGRNBE0t7VhZsRtzFq9T10s+etpohBcMhrBxZ5W6knLNpn1weXyGWygcwdY9R5Qbv3c43YYbr6jcvu845i/ZgOXlO9FlkxvKDHDkR04joFYMjXtL6f3dK3/Wp95fjR6m/XnyhNKZf4WYLdU2cxpEyfwzEciKCHiF5PyyDahrbFGjgUPHz+OjgmK4uwX+6oo9WLh8s7qQfteBE+pKy0QioRKxftsBdYUlhX7l0TNYULYBsVjy4Kwtuw9j9qI1IFkcqb6IuYvLEY5En5l48SAIDHcE/FVF3buFPwvvtnF9Zjfu6YJj+l/Clv8W7AV/ilhHbZ/+xVEQ0AhkRQR3H9biFyOnG3cK867h/JmlaGxuh8fnx8iJC1DX0KLC9nh9GFVQpNyo8vlwUhFqntQrt2AwjNFTFoKjiWg0itGTi3Hn/hPlxvex0xbh1r1HOo3yFARyFIEEvJtHg/sCeBdx8Fhp3zgE3XDM/Q5s495Sy0hjzXf79i+ugkA3AlkRAQX6lZv3jUvpG5rbMGvhGjUCuHX3EUZNLoY/kJwD4Ehg/MxSnL54XY0gSAQeb2pH5OS5y1Tvv6WtUxGIw5m6Y3V60Urs2H8sq0KKxeOQP8Fg+NSBBKI+J1xlP06eMTTh8whe3olYPNFLPU8gFvDAuegHaoUR9xOEHp3tw7/UleFQV7ISkn14zooI0sOpPHIG5y7fUtanz19HwbxliMfj6p1EMKVwBarPX8Pt+48xcXaZ6v3rMGYWr0HVyQt4+LgO+TNLEAqHtRPmlZar+QTD4hk/4vEEGtvsqGvuRH1Ll/wJBkO/DnR40fjgFmwz/xqOcW/CPvkraLp6EvUd3sx5a3OioaEZXSX/AUf+m2pE0HxmJ+o6e/EvdSQzjkMMF6raX4QZMBHcffDEIAEm5MzFGyiYmyICdBPByXPXQL8TZpfBnGgSwaETF1BTW4/8GSUIhgZOBJyGCIYiCATDahkUMyV/gsGQrgPhGHxPrsE2/h3Y89+CY+ZfwW9rRSAc7aVuRxDw++Fa8xvY80bAlv82PBe2IhCO9eJf6seQrh/dMk7PwT4vGRCLp02d+BT/8aU/hoL9wpXbluWj1OlT/ePzB1QQ8UQcedMX4+zlm6AK6YOJ8+Fyp1YRTZxVhmOnL6Otw4b3J8yHzeEyop5SuBycbBYjCOQyApFbB5JnB417E64l/w7Ent0+1ZwCzyUa9xZCZ9flMnyS9ywQyJoIqOapPnfViMLl8ioh7vX58VFBER4+Sl6qbXe6VU+/vdOuVgBxclhPANOvnmSmKilv2mJcuXFPhRkMhTB+1hLUPGkw4pAfgkAuIhA4sjhJBGNHwLuJZwclV+D1hYVPHUX9mvou8KzJ5b4CErecQiArImhq7cDqjXvxpK4JLa2d6slloY1NyY0rW3cfUfsLuMx0w7YD2LSrygCTPfzpRavQaXNi8+7DKN9aabhxroGjgI4uB3ZUHseqjXsNN/khCOQqAuqiGap5xrwKfz/vF/AdLIRt9KtqwthfOSdXoZN8Z4lAVkTw8HE95pSUo7B0vdoTQMFeumYbuIyUhr37A0fPYsHSCuw5dMoyAUxdVtWJC8ptZ+VxsOdvNkdPXVJu2/YeRV87k83fyG9BYNgikIjDvfRHyVNHR7+C0NWd/cpq4PjS5OU0eW/At3Niv74RT4JAVkQgcAkCgsAngwCvp+QxEbaxI2Cf9AVEHp/tV8TBc+uNfQeejR/06xvxJAgIEUgdEAQGIQLR+uvJXcJjX4djzrcRa898PWV60kNXdyV3Io99He5V76Y7y7sgkBEBIYKMsIilIPByEQjfrIQ9/3PJk0RL/hWJQGpVXV8pC98+pEYR3InsWvQDJILevryLmyCgEBAikIogCAxCBAKn1sA26rPJS2bW/a7fKYw23YZj+l+oVUP2iX+CSB/3F/Q7UPE47BEQIhj2RSwZHIoI+HZPMXT9vr3T+5+FeAy8nUzdcTzmFXi3j+//t+IzZxEQIsjZopeMD1oEoiG4eT3l2NeVeihwJruNYaErO5MHz+W/rXYk93WHwaDFQBL2iSIgRPCJwi2RCQLPRiDus8NZ+HeGeif8oPrZH5l8qBVHc76jjpmwjXsDwfMVJlf5KQj0RECIoCcmYiMIvFQEIo/PJy+hH/82HJO/Al44k63x7Z2RnGPg6qGVP+/zQptswxb/ww8BIYLhV6aSoyGOgH//7ORGsrEj4F7xMySi1s2X/cle5NE52Cd9KTmqKPgyonVX+vOZ+MlRBIQIcrTgJduDE4FEyOdrLegAACAASURBVAtX6b8bO4oDJ1cMKKGJaBjuJf+hLr23jX4F/oOFAwpHPsoNBIQIcqOcJZdDBIFo7SXYC5I9ecfUPwM3lg3UBE6tThJK/ltwLvge4n7HQIOS74Y5AkIEw7yAJXtDC4HA0VKwB88NYe6lP0YiNvCLR2KdT+GY0X2HMW8su75vaIEhqf3EEBAi+MSglogEgWcgEA3DVfYf6uRQEoH/8KJnfPAM53gM6gRTEsuY16DOHuq+QfAZX4pzjiEgRJBjBS7ZHbwIRBtvwz75T9U1k2pXcN21505s6MZ+FZ5t3JtwzPg6Yu1PnjtMCWD4ISBEMPzKVHI0RBEIHCtLTu5yyWfZj5EIpW70G2iWEgE3XEX/AFv+W7CNfQ2B6pUDDUq+G8YICBEM48KVrA0hBGIRdVooVTicIwgcWvDCEu8/NF+phjgqcJX8m+wpeGHIDp+AnosIYhn0jbFYHE0tHZbL6DVcvLiGt5wFgj3XRfPimubWDvgDQe1dnoJAziAQa74L+9Q/T677n/xlRB717/6B/gAUabiR3FOQ/zbsk76ISM2LC7s/8YufwY9A1kRgd7hw4eptVOw4pIS6OYt2hxtla7dj0YrNKFm1FS1tnYazy+3F8vJdWLRiCxat3IyG7ust6cHj9WPlht1YuGIzFi7fhNr6ZuM7+SEI5AICwbPlRq/dufCfkAgHXli2E5Eg3Kt/kQx/9KvggXZiBAEzAlkTQUt7Jyp2HMTP359qEeYMlEJ8VcUeFf6x05cwe9FaxGIx9V62ZrsiCb6cuXgD0xesNK64XFWxG4tWbFL+Ll2/iynzVsAf6DlqUB7knyAw3BBIJOBZ86vkaqGxI+DbP+uF5zB4fiPs495UIw7n3O8g7mx94XFIgEMXgayJgFmlcKeQf2rqubd1dOGDCfPR2tal0KCKZ1RBEZ48bYLXF1Bu9U3JyheJRDFm6kLcfViLUCiMDyctwOPaRvUd1Ud50xeDhCBGEMgFBHiWkH26Xu//DmJPzr/wbCdcbXDN/lbyILq818ETSsUIAhqBAREBBXk6EVy9eR9jpi1CMBjuDjuBCbPLUH3+mlL1jJpSrAhBRzylcAWqTl5AY0s7PioogtOduklp5sLV4CX22ZhwJIpQOIoQn/InGAyFOsD6GgN8p8vVsdHcO+Ao/icEHR0IRWIvtgxjgGtLvlo5ZMt7A67Vv1Qj8vCLjmco4D6M0si51RdhBkQE4XCkBxGcOncNBfOWQSeMTwr76vPXceveI0ycXYZot5qICZ9ZvAZVJy/iwaM65M8sQSgcMfIzr7QcW/ccMd6f9SMeT6CxzY665k7Ut3TJn2AwNOpAqx31rXZ0rPotHGNfU3/tG/NR1+FDfYvtheahriuA5vP7YZ/wDuz5b8M2+c/QdO10d1zSZoaq3GCn/EWYF0YE5y7dxKQ5S405ASaORHDy3FXcq6nFhFlLjDkBupEIDp04j8dPGzFuRollJRGJYMvu/hMBw4tGY4jIn2AwlOpALI5Q2xPYZ3wjeZHMxD9B8FYVInG8+HKMxRHxOpMH2o0dARtvL6ta+PHENZTKYIinVXe8n5cMXhgRUN//wcQFagUQE8WlpWOmLsLFa3fQ3NaJ98cXwuHyGOkdP6MUJ89dQ6fNgffGF6KzK3UgVsHcpdhXdcrwKz8EgeGKQIirhSiYeTBc4d/1+5L6geIROFLSfbn9G3CX/BAIptrkQMOU74Y+AgMiAmZ7Xul6NLd0GAhwcpiC/9qtB8qOk8dUBzmcHnBvwbjpJWrZKR1tDpdya++0K78TZ5WBqiUat8eHibOXoqG5Tb3LP0FguCLAZZ2u0n9TK3nYQ/dXzvnYsxprfwSeamrP/5w6eiJ879jHHqdEMPgRyJoIPF4fLl27g5/8fhIOHjunhLrOZtXx85g2fyXuP6rDsvKd2H/4tHbC8dOXMXnectyveYqVFXuws/K44Xb6wnWlVqIKae3mfVnNDxiByA9BYIghEL53HDxTyDbuLdgnfwXRxlsffw4ScXg2/LF70vh1eLeM/vjjlBgGPQJZE8HDx/VYsma72hRWunprj2WeF67eUSRA4Z5urty4r9xOnL1iTCprP9dvP8Ty8p04eupSDzftR56CwLBBQJ0MOkbp6tXJoOt+BzzHkdPZ4BK6tju5Z2HcG3DM+TZiXfXZfC5+hyECWRPBMMRAsiQIfOIIxDqeqCMluIKHfzwl9JMycXc7nPP/3jjgjpvNxOQ2AkIEuV3+kvuXhID/yKLkpC0Pgiv+x499kjg9m74905O3l/ECnGX/CV5tKSZ3ERAiyN2yl5y/JAQSARdcC//JuE84cHzJJ56S6NMrsI9/J3n3Qf5bCJxd/4mnQSIcPAgIEQyespCU5AgCoet7jXN/eJVkrO3hJ57zRDQET/nvYRvzqlJN2ad8FZH6578I5xPPiET4QhAQInghMEoggkD/EfCU/y65amfs6/BuGtX/D1+wT85TOOf+TZKUxo5Qm80SvtR+nhccnQQ3iBEQIhjEhSNJG34IROquwV7w5aRKZvznwCWkL9OEbh6ATamI3lGjA9+uyS8zORL3S0JAiOAlAS/R5h4C4TtVcBZ9H7b8z8HG6yiX/J8Xch3l8yLp2zcrqSIa/446nTR0dffzBinfDzEEhAiGWIFJcoceArHOp2rjlm3855K7iHno26hPI3hh86DIDO81di/7iSIne/5bcMz6JrgDWUzuICBEkDtlLTn9pBGIhhA8s04JVl4cr4hg7OtwTPkqAkdLB9WSzVjTbdinfa37kvvX4Vr6Y8RsstHsk64yLys+IYKXhbzEO6wRiHtt8G78QPWyeYSE+st7A+41v0K07uqgzHvw4ubknckT3lHp5qaz8IPqQZlWSdSLRUCI4MXiKaEJAoh11MK19CfqjmCe/68unJn7N+AOXi7bHLQmkYBv15RkujmPkfcG7AVfhNrnIBvOBm2xvYiECRG8CBQlDEGgG4Fo/XW4OCE85jXYJ3xeTcJ61v8BMVvD0MAoFkWgeqVa2cTjse2c1xj7Gjzr30Pc0TQ08iCpzBoBIYKsIZMPBIHMCHApqHPWN5OTrlyBM3YEvLumIBFKXcOa+cvBZxupOdNNaK+qW81IBs7Cv0Xo4lYgMohHNYMPyiGRIiGCIVFMksjBjEDc3YHAiWVwTP1qcnMWVwWN/xz8R0sGc7Kfmba4oxmejSON1US2cW+o/LmX/xSRmtQR888MSDwMegSECAZ9EUkCBysCnBCmGkWpgsa+nlSjKL36lxG6ODiWhj4vdolYROXRMf3rSXUXVUV5I9Q9Ct4tYxC+fQgxeyMS4cDzRiXfv0QEhAheIvgS9RBEIJFAtOU+gqdWw1n0D90neL7RfcvYa+p8//Ddo0MwY30nOdryAL5t+bBP+kJyJRRHPSS98e/AMe1rcK/4L/gPzkfoZiV4dIWYoYXAoCGCQCCE63ceoq3DNrQQlNQOXwQScSSCXsSdLYjWXoL/0AK18cox86+SwnDcm+AGLB7c5pzzLSUI446W4YsHoFRC7pXvdp+c+tnkU5HCCNhGfTZ59/KcbyucfPtnIXz3CGJddeAZRoN6xdSwLrVnZ25QEEF7hw0LllZg9ca9mF+2AbytTIwg8MkgkABVPOzlRx6eRujKTqXv9+2bqfTj7uX/F86530lOmOa9kRoB8ML5sa/DOftb8FcVIdb19JNJ7iCIhXcXhK7tgXdbvjpO2z7pi+poCuJh+VNE+bYaMbhKfgjP2t/Au2MC/FXFCJ4tR/h2FaL1N8A5FiTigyBnuZuEQUEEC5dvwuqNe1QpPHhch/EzStUl9rlbLNnnnI0z7ulErK0GkadXEKm9jMjTXv6U2xXEWh+o3m4i6OkRYSISQNzZpo4a4BEJcW9Xxp2w1A2zIVMdwL+4qx2JsL9neEyf14ZYZ50Kk73s/uqVk3G0J+Nof2zEpeJsf4Ro/bW+86txeHIBPAI6cHIFfHumgaeAuhb/C5zz/haOmd+AffKfqiOZVc921GdUT5+CzU6BNv5t2EkEo1+Bo+DLcC/6AQJVReCEai6bhN+BWMs9hC5sBOcM3CU/hGPanyfPLhr7mhoxcdRkzxuh5hhsoz8L20efVoRhn/gFOKb/BZxzvwvXoh/AU/4H+PbOQKB6lVIxsR6zPuu6lSzvx4g23ESk9lLv9VuX9wt+RpvvqvJOhHwDLnLVTlU7eIpY+2PEna39bgcDjrQfH750IuiyOfHBhPmob2w1kps/sxSZ7jw2PGT4kUgA8XgMwYtb4Ns5UTV0Nvbh/uffN1P1srhjlY2JDcs27s1kz4yNL9Mfe7N5b6qemnPBP8C9/CfwVIxUWPn3z4J3Wx7cq96Fq+j/h2PGN1Svlz06xuHdOg7+ytnw75sF7+bRcK/6OVwL/1kdo+CY9VdwLfxHuFf+TB2vzLDolz1H95pfw1Xyr3DO+XYyTMa78ufwbh3bZxl5No1S/niRC8/AoVqG8ST/vgnHjK8rIa16opny2sOOvXrrHwU8BZWdQn/sa3CMfRWOPE7+vq0mRe0FX4J92l/AtfpX8J9YjnDNWcR8LiSA1F8ioe7aTuTS05z/7t8xvwvh2svwX9gMz/Z8OIq+D/vkr0BhOOHzcOS/CUc3xgpv4p5WHsnyGaF2Yzum/6VRt3T5q/0ZHH30KNte6vsL8sd8OBd8D1w15d0yus96m0nueLfmqTak2sHsb6nOBw8hZFujW6ZvetjtnITAieWIBb0v9G73l04E92tqMXrKQri9KZadvWgttu45kkHcZ7YKhSNo7HChvqkd7Yt/BNvv/j/YPvjvsH3wP9D1wX+3/KXbpb/TP+34vfnbpJ01vExx9BaeOazs4rDGqb9NhUf3/6EOMWNvVQlEEsG4t4zemCIGZZfUaSu9tiYLXkwy6jPo+vB/qXAYVtfI/wn7qE+r3q8Kb8xrYE+OdnRTf93+eHhaMt7XknEzDdpftx/6V71A6pAZFhvxmFdS4Zmw7oHfyP9lylv3t0pgUw3R/d6tqzfypfPajYE5/1wC6Rj3RncamK9XYJv4J+ia+U10FH4f7SU/RtvK36Bt00S07l+MpuOb0HDpCOrv30ZDczuaHUE0OkJo6HChodWm/pra7MZv2jW22dHYlnTTfvie2S7t21Yb0sNjGOl2fM8cXqZ4nx2HCq87PzrNmePoLd7uODpcaLQH0eyKoKHNjvqndai/fRmN5yvRenQtWnfNRWv5KLQtfRcdRT+Abda3YZv4he7RV7I87d3LVI0ODUcWRpmTADg5312/u8tal7EafagjPdgGkn/KjnM5Jr/pdvYMdUWNBNV33d+SUHR7Gcn2kpIRPeptBjli0+2Ao6Js24EO7/f/DR0zvomGxzWo73DDFwhmFopZ2r50Irh68z7GTS9BOBIxkj6vdB227u3/yosOuwvNnW74/AG4tk2Ak8P8ud+Fbc531LCfQ381/M9gRz+Oud+1+KMdv9ff8ans0sJLj8PR7c8xr+e3A4mD3/TIw4uIw5S3zHEk4+1vPsx5S8ekN9wZtsK+u2w01srOlD6N/fPH8V11Ybtr+U/RsfZ9eCrnIXhuvZrM7LxZjfb71xDsaoHf64E/BnT44kqg+WKAPwr4I4DNHVAC3+sPwRdI/jndftQ1d8LjCxp2FNDtNpfxTr8tnQ60dDgsdu02txLmOiw+uxwe1Ld2Wfw5XD4Vh9dvjaPDRkGQSktzhwOtndY42rpcaGq3W/x1OjwqH/pbhlvf0gW702vx19hqQ4c9LY52O9o6nRZ/fG9uT8Xr9gZQ19wFly8EfziusPNGgPpOHxyBBHwJwB+KIuDoRPO9a3DeOwse0R04vRb+yjmwrXsPtsX/1t3+km3JPuc7lraQqj/9a2vm+qPrlLmN990OkvIjmzr6PHH0KUdmfgOu1b+G39GJdqcfze12Q24+z4+XTgS37z9G3rTFFmabW7IOW3Yf7ne+WFn5p0wsgkQkCLvNjpaWNvWb7/zzuJxobGox7OKRIBobW+BxuQw7+uN3DrvdYtfe3oHOjk6Lna3LhtbWdsMuEvSjvqEZQZ/HsIuHA2hobIE3LY7m5lY4HQ7DH+Nta+tAV2eXYRf0elR40aDfsIsEfMou5PMadrFQAA0NzfC73YYdw2tqaoXL6bTYMb1MN935F/C6k3GETHH4vcou7DfHkcxbwGONg3gSVx2e20mMW4132vs9bpU+plP7Y9jEivnRdsynws/bN34uhwNNzdY4fG63wpl46/BCviR+LJekXQjRSBj1rTaEYqnq1elPoN1lvbzd6WEjs97WRcFJ4Wg24XBUCVGqhLShwHe4UyNc2nc63Oi0ddfRbo8Ot1+Rg/6OT48/qMjBbBcKRVQcZjsKfabRbDpsLnQ5rHHYXT60djrN3uD2BdUIw2zJUYA/YMWAQsblte4PaOtywua0zinxnYSjTSweV+mNRE0gA2ho6UIgaI2jyeaHO9UHVEEwvTZbqk6x7Nj22AZ12UYy1NFoqH91lGGoNm5LtXHWUdY9cx0NPUcdZRzNzW1wmuSIz9WfOhpUbYJpMbdxLUd8bhfQfe6TqqMd1jqqyyDb50sngqaWdryXX2hZNjph9hIcOn6u33khCbAHZjZ2TwgtXdYK6wlE1JBe+2PTbWh3wROIaiv15HcOr3UbfbvDh06nteHZ3EG02lLHBzCUujYngtGUUOCv+nYXvEFrHBzBOH3WRtFm96HLlWp4wUhChWduTtF4Mo6QKTiut6hvc8Jvlm4AmjrccLErazJML9OtTSAS7xFHJJaMI2yKmHEwb4GwdXUHVSTEVRu3nxhbhRF7hUyf+UuGzfAiJktGp/CL9I2fyxdGU6c1Dl8opnBOfQmEokn8TFCBRVPfakeImew27CG3mwQZrSnI04mAPWcSgUnmI9gtpGOxVEZIBHZXql4wPNVZSSMCCmn6NRu3L9CDCCg82WOPx1O5IxGkkw3bQKfuEHUHanN6exABhTvVPtqQxEgEPr+1zpMI0smGRMBRi9nw3UwEJACmNxRJIc+0kwj8AWscTAdHEGbT2uVWoy+zHdse26A2meqorj/PqqMMQ7VxTyot/nBM1b1UKUJ1FgZaRxlHc6cHTpMc8QX7WUcztHEtR1jPtVF1NK3+aLdsny+dCOLxOKbNX4HKI2dU2ju6HCiYuwwdnamK+qxMZSSCDI3Mk9bICC4bNof1ZpOpR9efRhaNJXtCwXBKMOpGRiFiNpkbGXt0qUaWSchEdSML96+RpffoVG/LmRJSrABstOzFaROJJHu5YUtDTuYtvUdHNQhx1YaNmjpys/EHw0oImAUZw2a85l4jhSntmG9tMuHn8viVukP74ZO9dQozc8+cc0cMj+WiTTTWLaRMZSREMMiIgCMCUx1l2ZHgzJ29THVUj0SeVUcZnmrjrhSx+IMhVVfMdZRENtA6yjjYkXCaRoYk2n7V0QxtXLcD1nNthhURMFO37j5Swv/E2StYsmY7Dh0/r/ParycbOhu42VComIUM3Ug66XZ8Nxc+/dHOLBhpx/DNAoV2jIOCWRv2FFlBzcKIbv2OI2qNg+Ekw9MxQIWdMY5ItH/5YN5MgjGu40hF0Xcc5u6wkbeUoM2EsY7DFEXGOPqLH8smvRxZhul2/cVP1R9TOTKdzxOHqj8mjBleso6mcFJx9LOOZsJPxWEi72Qc1vqj4zDXUWWXAT+G1692kFZHk/GmtwNdb1MjGPpjvc0UB+uM2TC95jpqxGFq46myTcXBXyqOZ9RRlZa0ODJhnDGO52jjz1NHdZrN+GWqo2Ycs/n90kcEOrFPG1qwZc8RXLv1QFvJUxAQBAQBQeATQGDQEMEnkFeJQhAQBAQBQSADAkIEGUARK0FAEBAEcgkBIYJcKm3JqyAgCAgCGRAQIsgAilgJAoKAIJBLCAwrIuAsf2t7F0Ih6/r8bAr0waM6tHdZlz/29n04HMHeQ9Uo31qJih2HsGH7Qew5WA2vz7rfIP177oDOdNy20+XBrgMnsO/wafh72Tpuc7jgcFrX0DP8UxeuY82mfTh76WZ6dMZ7MBhW+KQtqlDu5y7fwrot+3udrGfauuzWjUkM5/jpy1i7eZ96pq/c4gqOQyfOK3euCDMb+j1SfVG5Ha2+qM7sMbt3dNmxfd8xhS03HWrDFSYnzlxRaSXmjPvy9bvaWT3p55hK135UnTivVotpD8FQGIdPXlBYHTx2DpFoahku/didbnW8yaZdVWhq6dCfGc94Iq4wZDjppqa2Aeu2VmJv1Sm1yz3dne+dNgfuP6rr4cQ6s2P/cVRsP4ja+tTdwFwCuye9jh1iHUst2dWBsW7cfVirX9WTZX7g6FkVtj1ts5nZI+NsbG43W+Ha7QcK3yPVl3qsyjN79Hh9MJeRdrtxp0aVH88NM6920e58NjS1obbeenDfxat3sHbzflQeOQtf2rJrYrxh2wHV1tjudh88acH6zMUbqm7sqzqF9DJiOncdOInybZUK5/XbDhhYs00abXn7QZXuR7Wpe6brm1qNNr5+6wFVN53u5FJv1jfmkXVx18GT8Hh7tn8uhtm4s0qVRfpeCuLQ3mnvVW4EAkFUHj2Dih0H0dCUOpPNjOPThmaFpdkum9/Dhghu3XuEOYvLMXnecgSCqbW22YBhszvx2zGzcfPeo359VlvXhPEzl6jCpUDctu8oFq7YDH9a5dWBUbhzo9zISQtUBdb2fFLQTu3eT0EyWLRiM4KmfJDgWHG5+e7ug9TFHyS/LbsOY/fBapy/cgs8p2ln5QmLYKUwoWDkmU4kKzMRsBJv23tUVezzV27j16Nm4pJJsPJQQK7m+mP+PFy8lhK4XG7Hhli2djv4Hf2srNhtLJ1l2jftPKQEMd2nzl+pGjcTxuNENu8+jAPHzqpvZxavwfL1uwyB3djcpk6jJalVn7+GjwqKcObSDQWXy+1VDZIC/sjJCwr7miepBkvy2b7vKPYfPq3C5i710tXbVNgkH55yS4IhVhS8KzbsNsiAmxtLVm1V+SdJTJqzFHWmwxC5zHn24nWYWriiRx1jWpn/C0qI7cOCsgoEQz3rYeGS9Vi6boe56MF6V7p6Ky5cuY1jpy5hwuwy3KtJHmv9RNWxUoWVqmN7j2LRys0ZOwqLV25B8fJNRtjEonDJBpDUSMjEguWZboLBID6YOB/Hz6TImvt6SErEieGuqtjTY0mnDmfd5n2YXrRKv6onl4CzY0Gh/v6EQlAwpxsuEeXxMqy72rATRIxYZyqPngVPJjYLTpb7rsoTqhNx8Pg5nL10A6zfsVgM+w6fws7K47hw9TZKVm9VZWU+uqbmSb2q/+yAsDPAsNo7kzvFSUYkmCMnk25sp2xz2pw8ewXb9h1T8VYdP4/qc1fBO1RU+2GHZct+lWamiTLA5Unt1bl++wGWrNmGyzfuYfqCVapt63Af1TaiZPU2jJmyCB2d1s2F9EPyWrpuu2q/JL3fjZ2t6ov+nk92fD+cVKTSZrbP5vewIQK3x4ujpy5h4qyyHj2B/gBC4bh20z68+8G0jD22TGGQ5dlz1YZkdC+tR6bd+GTFb+u0qYqefqge3+eVlBveZy1cA/aUtWHvhpWVx3HcupfqIbNHO3F2GW532z162pg8ssOf6jGysrInumT1NqyuSB73rcO9cuO+Euj6nSMD9n60YSNjr23CrCU4d+mWtlYCctyMUlAw05CQpi1YadwlcfHaHXxYUGT4r29qw8iJC1RPlr1WCh69vp33UfAEWt3wKFApkLVhj5YNiIaCzExU2o9+UoC+lz8PgWByA5/d4VJhMw6ecLtiwy7tVT0pODWRUBCzI6HNsvKdShjqd9YxCoqJs5ciFLaOCEgw67ZUaq9KmN+4Y71X4/KNu3j3/anYuPOQ4Y8/SOz5M0oNEt2445BBFnWNLejsSgmIm3cf4V6NtdfPMG7eqcEvP5yeJNvu0E+duwae5KvNsnU7FInqd/3cVXkcP/3jZCXItB3rYtWJC+qVnZQxUxZmHCGx10zhZC4vkpciu+4ex427NRnbBQXxT/9YAI44aNxur8KB32tDIjjcnQ7anblww8BJ++GTo7ffj5tjtMdIJIJRBcVGu6Cf+zVPe4w+dBgPn9Sj5nGqQ6Ht9fPcpZsWQtL2nV12JeSjppElOzUkMhqO9EgCejTW2NKuyFV/z5Hd1ZsPFBGYy1m7s7NiHk2zo8DRi9lwxPjTP0zGmT60AWb/mX4PGyJg5ihI5ixep5g6U2b7suNlOBTG7OGaBW1f31DAasMC5fCtP2qp3QdOql64/pYbQybMKlO9QW3HHvNcEzFo+4XLN4LCwGyoEtCqJDaiMVMXwR+wVhb6Z09o3eb95k+xZtNe1RMkgdDd2S3YLZ4AUIiY1U4UPCQrs1m5YbcavtKOpLVw+WZQENO0tHWqnjQJjb/ZwNmIaCjcpxQuh8OVHGofO3NZ9Sa1OuHEmcuqV6/9stdN9QrT22LqtdGddYDCnXHQuNweTJm3XBEWcaKg16oIkhdJRxMQy67T1GNevn6n6iWqgLr/tbR2qjpmHq3RiT03s8qOxGkmAofLrXqj7J1z9GQ23GVNomZ6aOiH9ZDGWsf8yTpm2hVNP4ybaoMtu49YBD0veWKvXhv2YvOml6jes7ZjL3nTziqFA9Uq2lD4uz3JnbfEcPTkYjS3WlVl4XBYpZUjrFUb9+pPlXqUds2tnYo4dVkYHrpVQlTtcTShCYfY8lQBs2p1b1W1qiv62/OXb6ny4+iFNxpqQzUNR9HsYdOwkzFt/kqjrGlHtS/b9uXr93Dy3FWLQCWhUZV19dYDpXokpmbDkc3jp01qJMDvtWFaZxavVr19bceRO0mHhnKFI1LiyVF5JrUg2wRH8np0osOhZmNeabnKA0cTmY7mf/y0UamcVlXsRfW5a/rTrJ/DigjYkyWgHLJlY1jhqTtk73bp2h09BG1/wjp98YYa2vfHL1Ux/NOGQjtvurWnT7XJlMIV2ovxR7WOhAAADc5JREFUXFC2IWP6ODRubGnDivW7cOp85grBnrWZCChkSDZFyzZi/5HTSoiMmrzQ6CEbkQJKdWEmAvZUSTh6CExdNEcrS9ftNH9m/Gavbuf+48a7+Qd7PL0dMkjhyN623mjY2taJZeU7cPzMZdUAZhStxu37KVWZOVz+pnAzC0P26NmDrdh5SKmd7j/qebMY6wPnHUpWbUGX3XqGVV1Di6pj6USg4+U8yt5Dp7B++wFLp4BqLDZaCiCq5zIZdiZIHhRo6UKX/lmuVHukG6qMKGA4muM8kTbTF6y0jCqv3bqPUZOLDQHI0R7VDSRICq/q89f1p8aTI16SDOc92GExG/aSKTw5EtbERXfWQZYL1TwkPaokdQ+Z7qx3+w6dUvNk7PGyrtM4XV6MnboYj7tHBCz7+Us2WNoBSYv4UgVEFdLWPUctqk4VEE8ruPcI7JiYiZQCnPgQL3YA5pdVgEfa0FBgr9q4R9Ur3pQ4r3S9pZOxc/8JpUrkHGDRsk0o31JpzJvwBOXf581VZMi5OoalsaJKjuS780Dye47ezW2fcbO+kUzSiaC1o0u1sbVb9itVJ0cWVEtqkqLqj51KdiI4ijSr9jQO/X3mPBGwspGpn9QlJ6zI3lo/228QgyGw99jWbj2Zsrfv04mABTt6SjEePk5NIrJxUNWSbnojAgpICi4S4RPTZKP5+3QiYEX61Ucz1LEe2h91uYzD3IDoRh22mQiIGxsDKyYb/LHTl1SD57xBumGPm0STae6GZ0pRn+/LMPnJcG7erbEQG0cYHBFoc/DYWdVDZ3rSDQUc9cZsaNo8etKAfVWnMbe0HL8ZPQu8ES/dkJioiqrYfgBcEGA2fREB1RHszXN0Q4GvDXvdHNLTsK5t3pX5ZF0Kec6XUCClD/854qOqiious3lS36z03bQj6ZVvPWA4F8xdilMm4X7t1j1VRnr0SOLgvAcNJzrPXbaSDFVhqyp2Y+qClaocjIB5jk5rh5qfoR3LiPVfm3EzSlTPnvWLhqq8gjnLDJUtSZ2qQxoSxeHqpAqK75WHzyh1FgmK5cD6VVi2QfnlP2Kk1ZEsV3ZczPM49MNeOsuYAtJs2KO/9zBF/CRcLZSp5tXqVX5DYiMBanPlxj2DNDjaGDttMe50z9URC2oDODfwi5HTcNakQuWI+90PphpzMxT27ECZFyL0RgQcpfzLz8fgpKmnX1i6XuWN6eIo5Vr3tb5sd6cvpEZ0Ot39feY8EVDoU2/M3hqBpwDYf/iMRS/7LDA5L8BheH9NOhGEQiHVa6C+XhsKTgqUdNMbEWh/1HfPKF5jVFptz2c6EVCvyUarGyX98KKgyfNW9NCBpxMB/VL2sqfHiTeutCJ2nOAzG/a4jp+9Yhnua3f2ntmLcZkO5tJufD58XK/CTz93xuyHQpa9LF+aKoxDcYbtMB2ZzJUV7PlqQ1UJGyVXbKQbEgtVF1zpYTZ9EYH2x4bNSVr2FCk02ENm2VJtV751v1Jdcb6Co7hMZveBE1hZscdQFdHPnftP1L3eZv/s0XMSlwKBYXPugfFSMBIzqu70YY787urNe2pSkecKtbV3KXUf1SWs++xdb9p12FCTmeMhPjOKVyvVCO3ZSaDg4UQ+42V6Zy5co1QYFP5zStZh96HUBDDrxviZZWrkQfUfR92cF2G8nIhevWmvIhbN5RxlcLKe+nT2gvU1tuY06d+zFq5WBKjfucqIBNLaj04ZsaHwzmSOVF/os00XLatQc5Jur0+RqCbXO/cf46NJRSpvDHfzrio14tZx8MypqQtWKRWUtuuNCKjC5LyaWeW4o/KEutudCwyWrd2hRoLEkXKB9bWlLTXBrcPvz3NYEUFDc1vWcwQU/kvXblerVtjj+t2Y2SiYuxxnLvQcJvcGKFepLF61pTfnHvY79h9TK1e0A4UOe4JcvqYNe2g8gC/dFC+tsMxhsMfKBmmuAOx9ceI83Rw6dk714rU94+UIgisdtGFvjSORdCFVtnabUj1of+lP6rk/KihWeljtxiWyXD2i5x2YVr2kjxNjjJfLNWnYmzaPGLgckcNsPU+gV2Jx2E01hR6xcBRFItCTwwyLIwEKEr3clcKJAvng0bOWFSr0W7pqm6F7pXBmr1ovg31c24CRE+Yb8y/0Tz+ch0pXDXFlCNUR2rCMi5ZuVCuk2LNcXr5T1TFO3v4xv1CNCrTwYNlRv6vnl9o6utSEN/Ohzda9R4x5Em3HewooaFhvOUFJHP6QN1cRArEkSZh76lwJw9VbNBylkaD4Hf/eG1+oOiOcwGW9oC6eAkYbCuz125KjPao9dlQeVxPC/Jar3X47Zpaa16FQYy+Y9VcbtkuuruOyShIBVS86Xq52obqKI9FMhD9pdpmh+ya5c8Sl53QYPlcrcWUTDeNmHvWcBMPT9YbuzNt506iH9YijaBq2F9Y3beh3wdIK9crRGedf6hpSiyjY8Tt98boiNObXbJhGrQY9fvqSZWRPFeqkucssy3yJy+yFa3qohjj6HT15Ieob24zgWZeoWmTd5oo3jeP74wvVKIX5Z/lla4YVETS3dRirS7IFQvunaoirZLIxXJZHnWJ/DSeCd+w7ZvFO/e/YqYuUHZcdUsfKHnG6mbNorWXCyWZ34ad/KMDdB8mVJC6u8Ji6yBi2mr9nD8g8R0A36kvZSPV6elbi9RnUO5zcTV+tQz24PimWelv2RrVulJWbIxA9h8C4OKwnObAnSze7MyXoGDYFBg2FLUcZ2tA/8eGSVfbotTCjOwWOeTkmBTQbg3k115Wb91Wvn+RSvGyTIXCJM+dIuGKEhosFRk6cr6NVaaTuliSiTVNze8Y6xslhCl5tOO9C4ZFumA+tjtBunCzlsl1tOCk4afZSCwHNWbwW85du1F4yPjmyq9ieWpHECUsKeK1KofA6ezm18ssciNpDcrtGWZGwKdi5TJKGxMhJXC6hzGQYj3k1Fgnxw0kLFCHTP4Uh648mb3MYnFRmR0abA0fPYMP25KiN+UlOHicXPrCH/MsPZxhEwNEISYRCkR2Ro9WXLHefs7z1pC2FI8to+95Uu+PCAe5JoeF8nHm0OKNolepM0I0jol99NBMPu5cp851LmlnHuNSZdYg9dG1ImpqcmDZ2kLTaiWlmvFrPz2/YOeKCBhJZuqE8ImFrw44bR4DphktfOaE8UDNsiICVhsv6/vXdPCUYOJmZjWFvg2qAH/1mvOpZ6cnJ/oRBAah7D335Z8+Ck2P/9d4UtV+By74o5GjYAyfbsxItWrkFVSetR3Fzsw8F3r++OxaT5iyz6OtZmanTZIVhxTmSNhrgUkf2fjgf8O7IaWo0onXQFHJsALMWrVW6afYyzCtnqNPkBNv/+VW+6nFQ3aINiYVrxJeW71RpNq/g4XwCl0RyaM+lhTOKV2F6UVKoElu6Ma3skc1atAaTC5cbenGqHSjs+S3/ONmmGykbFlUY3LjFPBN3cw+Rk60q3tVbVdjsvU+cs9RoZJyP4BrzZet2qnSZ88PVSyQWTiTyWbp6O7i3QBvOTXB1F+sYvydhacO5hrK1O1QZEENuWjKPcOiPKgvuA/nFh9PVJjHdAyZZsuwpTDkxuHjVVqVy0WHzOa9kvWWPgNmNv0ke7F3//P0pamJSEzt15SQlYk2ha17myO84KuFCCXYmKFT1yiGqtTgiZY+T9Y57U/TozBz3pWt3lHrxJ7+fpIhP55nzRixD1kmWYboen+v79x85o+ojl/vqOZRL1+6qUU2ybDcawpdxUphzjoUYUb3EOqtX0nD0wg4N6xpH51SVUI/falKVUG26but+Vb7sELBe6xEqJ6hZpzg/Q3URJ5r1iE3he/EG1m5Jdjq4l8TcUSGRcW8HR2ZL1m5Xo049quS37IhMnrdM4ci0cVSrDecZWEf/5WdjlCpKzztod85zUG2nw6f80GVLP+z4UA33X+9NVuXPjsZAzLAhAg4HuT6dvQaCqXtB/QWFw3KuvOCEEvWX6TP4fYVDJjfr8XrzSxUFe/lUR7FS8qmFgf6Gy98ykRjjYL6YP64jN0828VuOYrheWw+LdXh8kmTYUNjzZZwUWnoiT/tjetiT0w1D25MwiCt7MlxhY95jQD9s4Ox5sUdmNpywY16ZZuJJPxpTDteZFrObWZiTiDjvQnfl52GtIcgZBxsZ08T0anWKjpu7MJkXc9jpmHDkwaWHZkGuv2cjoz6e35sFAd2fVcfYmWAZsAwzDc9ZRsQ+WfZWPxztMM/EKdPOVFXHXD13lOt0U59OfX+ybtXD3PtmPhlnJsP86vRwvsxMfCwv6usz1UcdVkt7p+p1s36xfphHT/yOeDDt6YYjRwpfxs10m4mCdYHxmpeRmr9X5Xf7oaUDwM4O26653OkvvRyYFi6/Ni/M0GEzPrplWklGPyx/CnFinW44SmCauQw7k6E7v00/UYB1nWnmZDWf5k6YDocjNNZ1PXLV9nwSb5Y56xxHP+m7w81++/o9bIigr0yKmyAgCAgCgkDvCAgR9I6NuAgCgoAgkBMICBHkRDFLJgUBQUAQ6B0BIYLesREXQUAQEARyAgEhgpwoZsmkICAICAK9IyBE0Ds24iIICAKCQE4gIESQE8UsmRQEBAFBoHcELEQQTDtgq/fPxEUQEAQEAUFguCBA2f+0qROfami1w+nxg8wgf4KB1AGpA1IHcqcOuDx+1LfY8Kmmdjsa2+yKFcgM8icYSB2QOiB1IDfqAEmgscWG/wc0/zVXysBUFgAAAABJRU5ErkJggg==;" vertex="1" parent="1">
          <mxGeometry x="168.73" y="130" width="150.51" height="85" as="geometry" />
        </mxCell>
        <mxCell id="hm0pcYK8jrE48RgcLdMb-11" value="" style="shape=image;verticalLabelPosition=bottom;labelBackgroundColor=#ffffff;verticalAlign=top;aspect=fixed;imageAspect=0;image=data:image/png,iVBORw0KGgoAAAANSUhEUgAAAYIAAADaCAYAAACrUEWnAAAgAElEQVR4Ae2993sdy3Ulqj/h/Tye5xnrXvLyRmVbkm3JimNL9siyJVt6o1G4kqx4EwMIgjkHkARJgGACcyaYc84JzDmAIHLGyTmv961q1EH3AUAEIhzi7Pq+E7q7usKqqr127UqfamhxobbZhfKaZvkIBlIHpA5IHcigOlDT6EB9sxOfqm1ywenxIRAKy0cwkDogdUDqQAbVAafHj5pGJz7FnkAwHIE4QUAQEAQEgcxCgLKfHKCIgL0BcYKAICAICAKZhQBlvxBBZpW55FYQEAQEAQsCQgQWOORCEBAEBIHMQ0CIIPPKXHIsCAgCgoAFASECCxxyIQgIAoJA5iEgRJB5ZS45FgQEAUHAgoAQgQUOuRAEBAFBIPMQECLIvDKXHAsCgoAgYEFAiMACh1wIAoKAIJB5CAgRZF6ZS44FAUFAELAgIERggUMuBAFBQBDIPASECDKvzCXHgoAgIAhYEBAisMAhF4KAICAIZB4CQgSZV+aSY0FAEBAELAgIEVjgkAtBQBAQBDIPASGCzCtzybEgIAgIAhYEhAgscMiFICAICAKZh4AQQeaVueRYEBAEBAELAkIEFjjkQhAQBASBzENAiCDzylxyLAgIAoKABQEhAgscciEICAKCQOYhIESQeWUuORYEBAFBwIKAEIEFDrkQBAQBQSDzEBAiyLwylxwLAoKAIGBBQIjAAodcCAKCgCCQeQgIEWRemUuOBQFBQBCwICBEYIFDLgQBQUAQyDwEhAgyr8wlx4KAICAIWBAQIrDAIReCgCAgCGQeAkIEmVfmkmNBQBAQBCwICBFY4JALQUAQEAQyDwEhgswrc8mxICAICAIWBIQILHDIhSAgCAgCmYeAEEHmlbnkWBAQBAQBCwJCBBY45EIQEAQEgcxDQIgg88pcciwICAKCgAUBIQILHHIhCAgCgkDmISBEkHllLjkWBAQBQcCCgBCBBQ65EAQEAUEg8xAQIsi8MpccCwKCgCBgQUCIwAKHXAgCgoAgkHkICBFkXplLjgUBQUAQsCAgRGCBQy4EAUFAEMg8BIQIMq/MJceCgCAgCFgQECKwwCEXgoAgIAhkHgK9JoJEItEpWr1+1mmI8kAQEAQEAUGgvxDoMRE0t9ixdusBzFmyDnnLt6CmvimZtmg0hj2Hz2B+4UZs2XUUgWAo+SwWi+PAsfNYULgJG4sPw+cLJJ/F4wkcPnkJ8ws3Yd22A3B7fMln8kcQEAQEAUGgfxHoERE4XR4sWbUNj0rL4Q8EsevgKYydnp8U6puKDyO3YAPcXh+27D6K5et3JVO/Y98JzFq0Rgn5nQdOIr9oG+LxuHq+9/AZTFuwCk63F/uOnlMEQ1IRJwgIAoKAIND/CPSICO4/LsOvP54Oh9OtUhYKhTF2+hJU1TQoYhg5cSFKn1erZySNUZMWoq6hGaFwBKMm5+HBkzL1zOcPYPSUPJRX1YE9haypi3Hr3hMjzHAEY6YuxsOn5epavgQBQUAQEAT6F4EeEYHX58epC9dhc7hUqijkZywsUoKeJDFy0kL4/UH1jOME42YU4ELJHUUUH09YYDH5TJyzDCfOl6C+sQUfjZ8Pm8MgF748bcFK7D54ukc5Z3zyEQykDkgdyKQ60CMh+QLPPSKC1HCOnLqE0xeuq9sXrtzCpLnLk+YeFsaU3JU4e/kmSBITZhciEokmg5iZtwZHT1/B07JKjJuRj2AonHw2r2A9tu89nrzu6g/HGGoaHaisa0FVvU0+goHUAakDGVEHzDK1Kzn5oue9JgIKcAp5CmG68ySCeZ0QwaNnBhFE2xPBkz4gAk5g8gVC8PqD8hEMpA5IHciYOqDHWV8k5LvzrFdE8Ox5NS5cvY1YrG1A9/b9Jxg5OU+NFTBi9giyZ+Tj/NXbqKyux8cT25uGjp8rQV1jszIN2VvHHfguTUM7D5zqTvrFjyAgCAgCgsBLItBjInjyrBInzpUg1jrjx+v1gwPDLrcXn0xcgOcVNSpJLo8XY6ctQW19szL7jJyUp2Yb8WEgEFIk8byyDtFYDGOmLMLdB6XqPXZ1cmYW4OGT5y+ZNXldEBAEBAFBoDsI9IgIGpvtag1ATX0jXG4PGpttKN5/Smn8jGz9tgNqnQCnlnK6KNcEaMfppFx7wGd7Dp/Fyo279SOl/XPQmbOJDp64iMK1O5FoNTklPckfQUAQEAQEgX5BoEdEQC2d8/3nLFmrhPrkeSvU4jE90BuORFC8/yRyl27A1j3HwVlG2kWjUew+dEY927TziFproJ/RxLTvyDnkLt2IDTsOqt6Ffia/goAgIAgIAv2LQI+IgEmh7Z/mHH7MYwTmZL5oMVhvn5nDl/+CgCAgCAgCfYdAj4mg76KWkAQBQUAQEATSAQEhgnQoBUmDICAICAKDiIAQwSCCL1ELAoKAIJAOCAgRpEMpSBoEAUFAEBhEBIQIBhF8iVoQEAQEgXRAQIggHUpB0iAICAKCwCAiIEQwiOBL1IKAICAIpAMCQgTpUAqSBkFAEBAEBhEBIYJBBF+iFgQEAUEgHRAQIkiHUpA0CAKCgCAwiAgIEQwi+BK1ICAICALpgIAQQTqUgqRBEBAEBIFBRECIYBDBl6gFAUFAEEgHBIQI0qEUJA2CgCAgCAwiAkIEgwi+RC0ICAKCQDogIESQDqUgaRAEBAFBYBARECIYRPAlakGgJwg8ePIc1bUN7V4pq6jB4VOX1FniPE5Wu3uPnuHQiYu4fueRvpX85QFTN+8+xvPK2uQ9+ZO5CAgRZG7ZS84HCYFENMyj/rodu88XwOrNe/HNf/sDVmxoO+ubAZw8V4IZeavVud/7jp5DXUOzCpf3Zy1eq46OnThnGXbuP2mJ78LV2/jHn/wZi1ZusdyXi8xEQIggM8tdcj2QCCRiiDWUInzvKPyHc+Fe8XN4t3yCuMcQ2l0l5VFpBbbtPYaFyzZZiKC+sQUjJy1ETV2TJQibw4Wx05agorpe3a+oqsOfs+cmScLl9mJewQYsWbUVy9fvsrwrF5mJgBBBZpa75HoAEIi7m+A/NA/uFT+DY/Y3YBs7ArYxrxu/n/wlfLsn9ygV7BUsW7sz+c6Jc1cxJXclqmoa8PBpOZpaDLPQrbuPMWnOcujzwfk7dvoSXLx6R727aecRHDh2XvUm8ou2JcOTP5mLgBBB5pa95LyfEfBuG4OWkf8DtqxhsI19o/UzAvbx78I+/j3YJ30ekYob3U7Fyg27LURQvP8k/jh2DjbsOIyla4qRNW0JOC5w8eptTJhViFgsrsKOxmLImVmAS9fugr2Iufnr1f3TF66hcG1xt+MXj0MXASGCoVu2krNBRCDuqDF6Adlvwj7+M3BM/Ru4Fv8Q3q2j4Fr8r7Bnv6UIwrPxQyBhCOyukptKBDv2Hse0BUXJ1zhGMGX+Sly9cV/1FGKxmHpGIhg3swAXS+5gzpJ1yF26EbfvP0HB6h3ImbkUlTWGCSkZkPzJOAR6TATxeByRSBTVdY1wuDwWwO4/LgMra9Gmvcr2uGPfCfj8gaSfOw9KsXrLPpy52F4L4rtrtuzHyfPX0P1htGTQ8kcQSCsEQjf3wJb9pvo4Zn8T4YenkIgEVRpDN/hsBGzj3lE9g8jjM91K+9qt+1Xb0p4vXL2FCbML9SX2Hj6LGQtXK8H+YU4uGltNRXUNTfhwfK6aIXTszBVs2HEIG4sPY8LsZfivUTNx5cb9ZBjyJzMR6DERVFTXqe4ku6SVrYNRGrqjpy+DFe3y9bs4f/W20joi0ah6fP7KLUyauxx37pdi2bqdIElod+X6PVUpb917ipUb92DzriP6kfwKAq8eAokEvMU5sI15zdD6N39szUMsAnfR+4apKGsY3Kt/DcQiVj+mq2abA6cvXseYKYswcuJCcMaP1+eHx+tXbYrK1YlzJRg/a6ky//DVNVv2YfrCIhw/exWzl6zFzoOnTCEafzm1dNGKre3uy43MQ6DHRBAKhfG8ohbZ0/PB2QhmR2Hf0ay4cDiCcTOXqgpM/6zYrNRNrXOeOb3t1PlrKiin24PRUxahqrbRHLT8FwReGQTinhY453wL9nFvwTbubYSutbfDRx6fhS2HPYJ3DT+393eav9r6Juw8cBL7j53HviPnsP/YOXDmD53d4caug6exbe9xPHlWmQyD6wRIAlt2H8W5K7eS981/uCbh4ZPn5lvyP0MR6DERECdWMg44lacsRqEN8klZpZqRwIEp7Z6VV+ODnFzYnW59C+NnLlUVtMXuxAfjctHU7Eg+mzRvOQ4ev5C8lj+CwKuEQPj+McPsk/M2nNP/FnB2sGgrEYNvy8fGLKKs4XAt/U8g0mZGfZXyK2l99RHoFRFQw5+9eG07Iti445AS4IdPXkLe8i3YVGyYeG7ceaQGpULhtu7vzLw1OHL6Mp5VVKvehT8QSqI5r2A9tu05lrzu6k88nkCT3Y36ZicaWlzyEQwGqQ640eAMwrY5C/bsN2DPGoamot8babF5rGlyBtBw6xRaJnwe9px34Bj3Fuwni9Dg8KHB5rb6lfIUPDqpA3qKcFcysqvnfUoEt+89hT9gDIjRfkkTDzX9m3cfKfslZy9oRyI4euYqHpeWY9zMfJhJgkSwfe9x7bXLX/ZQbE4vmu1utDg88hEMBqcOOH1orqmELff7sGePgCNrOOxn1qHZE0GLw2tNk9MHm8sH5/Yc2Me+AXv2m2jJ/R6am5rQ4vRZ/Up5Ch6d1AE9M6xLIdmFhz4lAmtcCbX0/fb9p6BpiKRgnkE0NXel6hFU1TZg5KQ8uDy+5OuzFq3uEREkX5Q/gsAgIxB7fFpp+Jwx5Jj5NcQbS1+Yolj9IzimftmYXTT5i4hXdWzPf2Eg8lAQeEkEekUEnD7KMQLzYHGLzan2Q+GCFe0o7O8+LFUzHD4aPx/VrQPAaqXjtMW496gMwWAIH09YAG6cRUftftyMApnSpkGU31cKAd+BObCNfk3NCHKver/rPYWiYbhX/ap1xfEbCJxe/krlVxI7NBDoFRFwLQGngtbUtc3s4S6Gvxs9Cw2tREACGDNlMdytmv6SVduS+6Rcvn4P8ws3JpfAL1+3EwWrtytEb9x9rEiGs5PECQKvEgKJkA+uvH8x1g+MHYHg+TXdSj73H1JbT4x+DZ5NH3V7gVm3AhdPgkA3EOgxEXCK2rz89fjxb7Ixdf4qlNx8YESTgJoeWrR5Lxat2ILZi9epbW51GrgRFlcy5q/erj7lpqmnTpcHhWt3Ir9oO0gYz8qN3oF+V34FgVcBgcizS7BP+KyaDuqY/EVE6592K9nhB8eN98aOgDP3u4g5rdOyuxWIeBIEXgKBHhOBx+tTKxS57zmFud3hskTP+0/LqtqtOqanaDSq3jWPFeiXOejBXgUXyogTBF5FBHwH58CWNVx9aO7RK4m7ykvc1QCuPrZx5lD2mwiXXuzqFXkuCPQpAj0mgj6NXQITBIYIAomgB67CnxhEMPo1BE4W9ChnnvV/MHYlzXoD/uOLe/SueBYEXhYBIYKXRVDeFwQARMqvwz7xs7BlvwX7lL9GtAe7ihLAwJkVyS2quW21OEFgIBEQIhhItCWuIYsAewDGWQNvwlXwYyTixh5b3c1wpOxqcpzAMevriNnatovobhjiTxDoLQJCBL1FTt4TBDQC8ajaIsI29k1lGvIfW6SfdPuX+xO5Fv3AMC2NewfcoVScIDBQCAgRDBTSEs+QRSBacw/2qX8N+7i31SZykXJjA8WeZti7bTRsY4bBNurT8B+Y1dPXxb8g0GsEhAh6DZ28KAgYCAROr4At6w2lzbsK/gOJgHUmXXdxCl7apKaeMix34U+RCBo7jHb3ffEnCPQWASGC3iIn7wkCRCAahmfNb43xgTGvg1NIe+uiNQ9gn/xFRQY8xjJa/6S3Qcl7gkCPEBAi6BFc4lkQsCIQa3gKx7QvG2sAJn4O4SfnrB56cJUIB+DK/1HyZLNgibHavgdBiFdBoFcICBH0CjZ5SRAwEAhe3tw6wPuW2l4iEXo5c45v33Sjd5E1At4tIwVmQWBAEBAiGBCYJZKhioBn7e+MhWA0C+2f8dLZDN0+YIQ39g04F/1vJAJthzm9dOASgCDQCQJCBJ0AI7cFga4QiLVUgHP+1SKycW8h/Oh0V690+TzWWArHrH9Qu5dyvCBSdrnLd8SDIPCyCAgRvCyC8n7GIhC8uq1Vex8OV94PEPfaXh4LHmy/4ueGuWn0pxE4t/rlw5QQBIEuEBAi6AIgeSwIdIhAPAbv1tHG2QNZw+DdOb5Db7256T+8ALbsEbBlDYNn44dAD1cp9yZOeSezERAiyOzyl9z3EoG4sw5OmnCy34R9/HvggfV95cKPzsCe866aiUQzUdzddu5HX8Uh4QgCZgSECMxoyH9BoJsIhO8cMqZ5jnsbzjnfRKIvzEKtcVPwO+d8yxh7GP8eIk/PdzNV4k0Q6B0CQgS9w03eynAEvNuykrOFvDtzeMhqnyGSiEXgWf9HZRriQLQcX9ln0EpAnSAgRNAJMHJbEOgMAW4Q51zwPdiy31Czezjls6+d/9hiteeQGifY8Ke+Dl7CEwQsCAgRWOCQC0GgawTC94/DnvOOIgHnvO8ibu/7o1WN4ys/Y+xflPcviLubuk6Y+BAEeomAEEEvgZPXMhcBLhyzjf60EtLezZ/0CxCx5nI4eXzl2DfU/kO93dG0XxIngQ45BIQIhlyRSob6EwGu9HUu/OfWgeK3ELy+u3+ii0fhXvZ/jHGI0a8heHlT/8QjoQoCPCEvFEZ5TTM+xS9eiBMEBIHOEYhW3TFOEhv3NhzTvoqYvbpzzy/5xL9/Zut6guHw7Zr4kqHJ64JA5wgIEXSOjTwRBNohELyypfXMgOFwF70PRELt/PTVjdCtfQYRZL8J1+IfIhEJ9FXQEo4gYEGg10QQCoXhD7RvBA3NNpw4V4KKqjpLRLxotjnUs7KK9oNrNrsLJ89fw9PnVe3ekxuCQLog4N2RbWz/MOqv4Ds0r1+TFWt8BvuULxkLy6b+DaL1j/s1Pgk8cxHoMRHU1Ddh295jmDp/FSprGizIPXzyHDMWrsbOg6cwv3AjSm49SD5/WlaFGXmrsfPAKSxYtgmXSu4knz2vrFXPivefxMJlm3D20s3kM/kjCKQLAomgB+6CH6v5/fbsN/v9XGHG5yr8qRHf+PcQurErXaCQdAwxBHpMBE63B+cu38Kfs+eisro+CUcsFsOUeStw6MRFde/BkzLkzCxAoLXXQILYfcjYnfFZeTWyp+fD7fEpv3OXrMO2PcYS/aqaBoydtgTsIYgTBNIJgQjHB6Z+Wc3kccz8GmIN/X+CmG/XBGM9Abe53jstneCQtAwhBHpMBDrvc/PXo7yyVl/ieWUNPhyfC4fT2D89HIlg9JRFuPuwFC12Fz7IyUVTi135j8cTyJ6+RPUYSAYf5uSitq5tnvT4WUtx6nzvDgBPJkj+CAJ9jEDoxm7YRr+uiMBT+BMAsT6OoX1wkZKtYO+D8bpX/gKItjfHtn9L7ggCPUOgV0QQDkcwe/FaCxFcvXkfObOWIhyJJlMwae5ynLl0A0/LKlUPIBBsq8TTFxThyOnLKK+qQ9bUxfD62gbC5ph6CMnAXvAnkUjA5Q3A6fbB6fHLRzDo2zrgDcLl9cO5eyrsWcNhzx4B+/YJcPkjfRtParn5QnA8vATblC/DPnYEHLO+AVflIzj7O97UdMh1/5bzS+Abi8VfIBm7/6jPiODsxRuYNG85kDD2XKFwnjxvBc5duYU7D55iwuxC0HykHU1Fx85cxaPScoybkQ/2ILSbl78OO/ad0Jdd/rKHUdfsRE2DDbWNdvkIBn1bB5rcqK1rQHPeD2Ef95YigqYzG1Fj86G20dG3cZnLrtmDupoa2Of9oxHv2DdQd2E3auzB/ovTHL/8T3uco9E2xbtLQfkCD31GBF32CGbkw9ojWI3DqkdQi6xp1h7B3Py2MYMXpF0eCQIDhkCsqaztkPrJX0CsbuBm8Hi3jjIWlmUNh//44gHLs0SUOQj0iggi4QhovjGPEZSljBFEolGMmpyHOw84RuBsHSNwKGSpwXNA+OrNB3B7vOpZbX1zEvWcWQU4ea4keS1/BIHBRiB0fadxRkDWcLiW/mRAzxIOnl9n7EQ6dgQ8q38z2FBI/EMQgV4RAXHgGEFjU9vRfDT7TJ67HIdPXlIwcSrpzLw1CLauVp6+sAh7Dp9RzzhraNqCVclxAZLK9r3H1TPOGpqauwpOl0ddy5cgkA4I+PZONU4jG/VpeHdPGtAkRcquGJvcZb+pzj6Ie9qUpgFNiEQ2ZBHoMRFU1zZi/faD+NdfjELB6u14XFqRBOfB4zJwEJjTRPOWb8GNO4+Sz548qwTJYNfB08hbsQVXbtxLPuMCM+PZKSxauRUXr7atMUh6kj+CwCAhkIiE4F71S9jGcMbQCAQvbRzQlMSd9XAu+L5ayObggfZPLwxo/BLZ0Eegx0RAE86xM1dw/sot9VuashK4vrEFR09fATX7VNfYbFfvlFe1TTvVflpsTjV4zN6COEEgnRCINT2DY9bXFAk4uMK3YoAXPMZjcK//g9EjGTMMgVOF6QSPpGUIINBjIhgCeZYsCAI9QoDnEdvGDlc7jnLn0UTY36P3+8Kz/9giY2uL0Z+Gd8snQKJvpg32RdokjFcfASGCV78MJQf9jID/0FxDCI99A95tY/o5to6DDz84CfvEz6nFbK5FP0C8D89I7jhGuZtJCAgRZFJpS157hYB7xc+M8wfGDBvw8QGd4JijBo7pf6s2oLONf2/gzVM6IfI7JBEQIhiSxSqZ6isEYs56OGZ/wyCC8e8i8nyQpjVznKDofdUj4Kll/qML+yqLEo4gIAfTSB0QBF6EgDqfeMJnlWnImffPiLsaX+S9X5/xlDI1cyl7hHE+QdDbr/FJ4JmDgPQIMqesJae9QIA7ftrGvKZm7Hg2ftCLEPruFZ5j7Jj1D2r2kn38ewg/6P42LH2XCglpKCIgRDAUS1Xy1CcIxF0NcMz7jjILcQfQ4KVBPjc4kYBn88fGwPWoT8vxlX1SyhIIERAikHogCHSCALeV4AIye87bcMz+B3C8YLBd+M5B2Me9rQaNnXO+CZKVOEHgZREQInhZBOX9IYpAAp41/6WIwDZmGLzFOWmRz4TXDmfu/1JEwK2pQ9fl1LK0KJhXPBFCBK94AUry+weBaO19OKZ9Bbbst9Q+P5GHp/onol6E6ts3HbbRnzYOyFn/x16EIK8IAlYEhAiseMiVIKAQ8B9fYmzpMHY4XAU/Bs8PThcXeXwO9vGfgS17BBwz/g6xhqfpkjRJxyuKgBDBK1pwkuz+QyARcKvpmRwfUHP2jy/pv8h6EXIi5Icr/0fGmoIxryF4tqgXocgrgkAbAkIEbVjIP0FAIRB5fEadPWDPeQeOKV9CrL7/D6nvKfQB7j009g01huFe/n+QiIZ7GoT4FwSSCAgRJKGQP4KAgYB362hjimbWMHg2/AmItx2xmi4YResewTHpi7CNexv2iZ9FpPx6uiRN0vEKIiBE8AoWmiS5/xCItZQnt5Swj30DoRt7+i+ylwiZPQBP0a/BGU3cGdV/YNZLhCavZjoCQgSZXgMk/xYEgpc3t27j8Cacuf84qFtKWBLWwUXgAo+wfMPY/mLRD5Dw2TvwJbcEga4RECLoGiPxkSkIxCJwr/y5sXaAW07vnZrWOY+1VMAx82vGhnjj3kbkvnHca1onWhKXlggIEaRlsUiiBgMBnjxmn/A5tW6Ae/lEKm4MRjJ6FKdXbTlh9Ao8ak1Bokfvi2dBgAgIEUg9EARaEfDuGNdqahkG1/KfIREJpD024SfnYMt5R207YZ/0BUSr5LzvtC+0NEygEEEaFookaeARCD8+C/uEz6jeAAdgB/qA+t7mmMdmqoNzsoapXVJ9uyf1Nih5L4MRECLI4MKXrBsIJEJeuJb+hzEvP+sNuAp/ikQgfVYSd1VOwavb1Cpj7pDKMYNYS2VXr8hzQcCCgBCBBQ65yEQEAqeXqZk3XEDGrRtobnmVXMLvgnPB91qP0xyOwKllr1LyJa1pgECfEoE/EERlTQMqa+pRUV2P2oZmRGNti3H4v6K6Dj5fe9trLB5X73i8/jSARZKQKQhwnx7H9K/APu6tVtPKZCDx6g24+o/nG2sKst+EK+9fQHIQJwh0F4E+JYKjpy9jxsIizF+6AbMWr0XRpr3wtgp9u9ONwrXFyC/ajkUrtqC8sjaZRpfbi+XrdmFJ0XbkLd+M0ufVyWfyRxDoNwTiMXg3faQEKInAOfc7iDvr+i26/gw41vQMjhl/r3ZL5Y6pPEtBnCDQXQT6lAjOXb4Jnz/YYdwkgBUbjL3TL1+/i6m5KxEKR5TfFet3oaBou/p/8+5jTJq7vNNwOgxcbgoCvUAgfGufcfpYzrvKxh4qMepgL4JKg1cS8BXnGL2CrGFwr/olEpGO22IaJFaSkGYI9CkRXLh6WwlwLeB1XpttDnw0fj6qao3TlCLRGMZMXYz7j8oQDIbw8YQFKCuvUd4TiQSyp+fj6o37+nX5FQT6HIG4pxnOBd83Fo9lDYN33e+AaKjP4xnIAGMV1+CY9HljOun4dxEpvTSQ0UtcrzACfUoER05dAj/zl27EvIINeFZumHjuPizFqCmLLGMD7BEcPXMF1bUNGDkpDzQPaTdr0Wps39ezg7lD4SiC4YjqZZCI5CMYdFwHoghFYvAemA1b1jDYx78D2+QvwVtaglA08UrXm2AoDMeqXxsb5o0dAfea3yIU8CMYwyudr47LUeo3caHi3BeuT4lg6+5jePDkOTjwW3LrAXJmLkUgEMK12w8wftZSy8DxzLw1OHrmKh6XlmPczHxVUXWG5hWsx/a93V8uH48nUN1gR0VtMyrrWuQjGHReB2wB1Fw/hZaJX1BrBhxZw9BYPAOVzV5U1ts7f+8VwLSiJYC6c8XgZnn2nHdhzx6Bhs3ZqGxwoLLR9WdQm6QAACAASURBVErnTdp1x3ItEolqsflSv31KBGZ2iicSmDRnGUqfV+HB4zJFCuHWMQGmmERw5PRl1WvInpEPf7CtW04i2Lan+0TA8GKxOKLyEQy6qgPhEFwrfwV71nBlFnIt+gEiziZEE3j1sYsnEAuH4N2RrWZA2ce/C55r7Dm6GNF4wvh0hY88f6XqQR91CPpuiwkKYk4N9ZsGi2ctWoPrdx6irqEZH+TkwuF0J1lr3IwCnL18Ey12p3rW1OJIPps4ZxkOHDufvJY/gkBfIRC6skkJR3vOe+oA+NDdQ30VdNqEwwVy7rW/U0dtqp7BuLcRurI5bdInCUk/BPqsR/C0rAp/GjsX9Y0tKpdefwBjpy1BZXW9smNR8F8sMfZBabE5MWF2IZpbhf/E2YU4fcE4WINjBRNmL0NNXVP6oSUpeqURiNmq4JjzTWOK5ZjX4d0yMi0PnekLkGOuRriW/qexUE4dXvM5hO8e7ougJYwhiECfEYHL48XC5Ztx7sot3H9chpUb96BwTTHi8biC7eylm5g8bwXuPCjFig27sffI2SScl6/dBXsBt+8/RdHmvdh54FTymfwRBPoKAV/xeGUy4alejpl/h1hjaV8FnZbhxBrLjJlRPLOA209M+woiZZfTMq2SqMFFoM+IgNnw+QPYd/ScWjR24NgFNWhszh4F/aqNe3D+yi3zbfX/3sNn6tmZi+m/9W+7xMuNtEcg/Ph06znE7yotOXAuMw58j1TdNs4s4MrprDfgXPjPiLult532FXaAE9inRDDAaZfoBIFuIRD3O+Eq+HHrpnLDoQ57D7ZNV+5WIK+wp8ijs7BP/qLaqto2+jX49k1/hXMjSe8PBIQI+gNVCTOtEAicWGJsI8FN5SZ+DpFnmbfQyn80z1hfQAwmfR6RsqtpVUaSmMFFQIhgcPGX2PsZgcizy3BQG855R5GBb++0fo4xPYOP++xwLf5h60rq4XCv+LlsQZGeRTUoqRIiGBTYJdKBQIC2cNfCfzFMQtkj4Jz/T4g76wci6rSMI3z/eOs4yTsKk+CFdWmZTknUwCMgRDDwmEuMA4EAdxYt5tGTw4wziGkSenRmIGJO3zgSCXi3jjY2pst+C87Z30CsuTx90yspGzAEhAgGDGqJaCARUKd2jR2hNGCSQeBo3kBGn7ZxxZqfwzHz68b5C9xsb0d22qZVEjZwCAgRDBzWEtMAIRCtvgfH9L8F1wuQBNyrfw2uthVnIBA4t9pYaKZOZHsP4Yc92+BRcBx6CAgRDL0yzegcJUI+deawMgllvwXH7H9AtOFJRmOSmvlEJAT38v8L29jharsNZ+7/QrTKWPWf6leuMwMBIYLMKOeMyGXca4d3e7Yh4LjhWs7bCN3cmxF572kmI2VXYJ/wWWNtwdgRcMz6OsKPM3wMpacgDiH/QgRDqDAzOSvRiutwFfyHYfIY/57acM23Z0omQ9Jl3gNnVqiT2Ww5b6tppfbJX0Lo2o4u3xMPQw8BIYKhV6YZlaNENIzgmZVwTP1rNSVSrRcY/RrcRb9GIiAHuHdVGYJXtqgFZvbst9SYCreuDpxcCiSMPcK6el+eDw0EhAiGRjlmZC4i5Tfg2fAnY50AB4az34Qt5134DsxCwi8k0N1KEb5/DE4efK8PtBn3NrxbPkGk9CISGbQVR3fxGor+hAiGYqkO8TxFy2/Au3WU0mRtWcNBLdY2Zhicc7+DkGy13KvSj1bcUAvubGNeh52mNQ4k57wL99L/hP/4YkTrZcC9V8C+Ii8JEbwiBZXpyUz4nWqPIO+2MWoDNc4KsnFHzbHcYvkteDd9KIujXrKSxBqfwb3s/zO26h47wsBXneT2BuxTvgjflpHg1FxxQw8BIYKhV6ZDIkcJnxPR6jsIXFgL7+ZP4Fr8r0YPYIyxUlhND815B+5Vv0T4wXEgFhkS+R7sTJBwuRjPXfQ+7FP/Rg2629TCPO7V9DocU78M3/5ZiDvrBjupEn8fIiBE0IdgSlAvj0Dc3YjAmZVw5f1v2Cd8pk0rbdVMaQriQjHPql8hfPfIkD1h7OWRfPkQuLYgcGwRXEt+aCzOy2YvwVik55z3HQQvrJcxhJeHOS1CECJIi2KQRHCDOBIAN4ZTZh9lmqDQeQO2UX+l9gtyzvkmPGt+g/C9o7Jz5gBWGe5cGrq5B64l/26UDWcYcWB+7Btw5f8YoWs7kQi0nUc+gEmTqPoIASGCPgJSgukdAjQxBE4vbyWA4YaAUUJmBBzTvwr36t/Af2yROm831lLRu0jkrT5BIOFzIHB6BRyzv5HcuI5mI3548E/oWrHRQ4hFgeQnAiQSfRK/BNJ/CAgR9B+2EvILEIhW3YZ/33RQy1fmHt0DGPM6nHO/jcDxxeBh84lI8AWhyKPBQICEzHMd7NO+osYN1NoNzt7KeQfcrsK54Httn/n/pE6E43oFbv8hLj0RECJIz3IZcqmiQI81PUOoZAc8Gz+EffIXDK1SzfwZocjAOfdbCBxfoghgyAEwBDMUrX0Art52KEIYpmZvcQaXMhuxV6c/nNmVNRyeVb8Et7YQl34ICBGkX5kMiRRR8FNQhG7tg3/fDGVLdkz9SnJbaDX1k4OPWcOVWYhz1WOO2iGR90zLRLTuEXx7phqEMPo1YxyBg/r6k9wOfLia+us/NA8cExKXPggIEaRPWbwyKeHAIE/6on3f+OX/esQaSxG6vgveXRPhLvwpHDP+ztD6x1BbpIb4liEkOPg74TNwr/i/CJVsR9yVuaeGvTKF3o2EctFZ5Ol5tSKZq5L1x7dzgrHoT61cNo4M5XTgwLHFalPASOVNxB21lrqk6xbHJRLhAAAZZ+hGEfTaixBBr6HLsBcTCUSel8B/ZIE6+9Y+5UvgJmXql//V9ReNBk9NkMKfM35oFmgdULRP/qJasETtMfLotDGgmGEwZmp2ww9PGrOOuA5EbweS/aZaxWyf+HlrPdJ1a+rfwLXg+3Cv+hW827NU3Qte2qBmjfGAHXF9h0DaEEEgEMKt+0/Q0GTru9xlekiJOBJBD+KuRsSayhB9XqI0MM7SoW3Xt3M8fLsmWj87xxsN7toORJ5fQ6zhKYKXN8G98hdwTP6SscBIzydng079UPCP+itFAI4Zfw9X/r/Du2uCipdhyTTDzK2U1O45A8zBhWoj/6caaFbKAnuLqfVIX/MZFQoqFqM+rd7j1hfOOd9SPUr/wTkgybButfu0VCIR9mcu4D3IeVoQQWOTDQuWbcLqzfswv3Ajbt2TfU16UIZqZg3PnuVAHE0zStDvnwHP5o/hXv4zZYO3T/qioYmxgdFE06qld/jb2jDZ4NS+M8mtHFob5bi3YJ/4OWPXykmfN34nfk4RhavwJ/Dtm64GhTlGoKYR9iQz4nfIIxCtvA3/4flqvyhVP+d8u7UOtdYlXaf4O+EzxriSroOqp8neJscguL3Im8aZ1OPfM3oX+jfnHTimfRXulb+E/+hChB+cQNznMKaycjprV58hXwrWDKYFESxasQWrNxsHiDx+VoGcGQVwewZoqlkiobTUuL0GsYZSxKhF+J1WlGihjIYR99rUfja0hccddR2vqozH1fuc+si9W6iJmz8UjtS0I+XWD7dJYLfXfzgX3i0j4d34Z/h2T1ZCPXRrrzLLRCtvKRsstwCgfdW7Y5zS1J0Lvq/mdlPTUt1uak7Uyse8rhqMPXuEum+nAOd/TvXjs9Gt/uhXf8a8ZjznAB/957xt/HJ7gYmfhXvZTxE4s1yNB8TtVUh+bPxfrXog7cCTG4JAZwiEfEi4m4x6pOqQqU61VCJaXoLwrX0Inl4G/+7J8Kz7Pdz5/270KlRdpalJ11PW1dZPa71VhDH600pxceb+I1yLfvDiT94P1HYm7tW/hW/XJAROFiB0Y7dSsjgobm7LMY6JlF/vsD2ntu8ur5+XqFPiqNBRzlDeDKQbdCJosTnx0fj5qKxuGzAcN7MA56/c6hEOJPh4PKb2SfHtmqDmOXOu8ws/uyfBs+HPap4zV7RycJM7WLoLfwLPpg/h2zdNbWnMA77da34LV/6P1Lx3mjw4V5qDnZ5NH8G3dyr8B+cqE4tn/R/V+85534Vj5t/DMetrps/XlV29zXaubej611ic015Lb9N8zDZ3sz87B+K4Y2TWMDgotNXukW8bGtWkL8A25a9hn/tduFb8HO6to+E9OA/+ixsRuLar7VNSDN/JQnh25MC18lewz/1O63vfhnfvDISenEc8ElTDdhy6e+GHBCsfwaDTOtBF/XlB/Yr5nAiXlcB/eTM8O7LhmP892KZ+GbZpX7V81BjWuLfgyBqmFCA1YeFFPeFOnxntk3sv8SQ3o01/3ZglxXeSY2G6HffiV+2i+56SL5QzlDeUO/4j8xG8sBbBC+vUb+BskTKzxsMBVbd6JCRf4HnQieDR0+cYPWUR3N62HsDsxWuxfe/xFyTb+igUjqC6yYXKmkY0LvkpbH/4f2D76L/B9tFfoOWj/2b5WO/9BWwj/9KiPSstmpryJ3+JFvU+w/jvsI38H4YGrbqmw2Eb/brxnvb38X9X/pU/kzZOjYQC2ujKDmvdLfNNQ4thd1fNpjHmXCttXc25HtY62DocDtrj1adtXrad77TOzVbppfY+7atonvdPKv8Nq36P+s3jUX9wCWpPb0FVyQlUPrqLyuflqK6uQ3V9C6qa3Kh2hFHjiqHWE0e1K4ZqVxTVLX5U1dtRXVOPyrLnqHj6BJVlZahqcqHWGUZ1owtV9bbkp6bBjmrTNf/zntkP/7/sPUscDe3De5l4qxts4MecZl6nprm7cVQTkw7C6/ieFavuxqFw78M4VHimctRl1j7N3ctbKnY6PDPG+p65bHmvY/wYbytWrLv2IGpdEVVXWa8rSp+govQpqspKUVn6FBXPnqHq5nnU7l2IppW/Rcusb6GFApvTW6kokRyyXjd6zewdt95T7UldG+YnS/trbZtt7bltJbzqlaS2Z/ZUTPc69JOt/bSaaylfVE/9fxry5+P/10jz6NdgZw/o479A89zvopr5bHLDF+ibBZeDTgQ37jxC9vR8hCNtu0fOK1iH7ftOWKX9C66a7C7UNrvh8wfg2jEezpl/b2izc74Naub646CGm3KP17yv/fCX96gNt7uX8q7SmJP3vgNH67uOee3ffXEc34F76Y/RUvR72IsnIXhuFYIX18N9cB6a1n4IF+38XLE599twLPg+mpb9Ep7iHARO5Ktl/cHH51B75yJcNc8R8HrgjwG+OFBlC6DZG4U/CvgjgD+cQE2zGw12L3zBCHyBMBxuHypqm+HxB+ELhOALhuH2hVDR4IQ7EIU/klDveQNh5c/h8hn+6DcQQmV9C1ocnuQ9/q+styWv6cfu8qGythleHUcgBJfHr8JzewNJvx5fUN1zuv3Je3ynsq4FNqc3ea/Z7lZCW6W3NR12l1f5M8fh1HH4WvMWCMHtCxhxeNriqG92orbRkQyf4TbZ3IrgzHEwDUyL12/knc+YVoWfKQ4Kz0abyxJeXbMDdU3WOBoZR4MVKwO/Fsu7xJxxmPPG95hGc/pqmxyob7bG0dDiQk2j3eKv2eGx4KcxtpswZrgU0E32lDga7WhodlrC47UZP5Yp00v8dfpUHLXNYDnpe/yl4DfXH95jeplusz/mi/nT99ws27oWuHwh+MNxVU+9oTgqG91w+iJGvY22toNGJxwVDxF+fFYNLIcfnkLj5X1wXD8M/ufHc+coai/uQUhdn1TTmr1HFqJp3cdwrfiFGmfjRntaPnTUnju6Z5YjfJ4qfygrlAwyyymLHPmOavds+7bZ34R9xt/BxW1XHM1odPpR22h/gWTs/qNBJ4J7j55h7LQlFmabm78O2/Yc63YuWFn5US4WUYOndpsddXUN6j8XN/HjcTlRXVOXvEczBzVkj8uVvEd/fM9ht1vuNTY2obmp2XLP1mJDfX1j8l4k6EdlVS2CPk/yHrtwVdV18KbEUVtbD6fDkfTHbZQbWpxocXHOtOGCUSihGosYeWLaVBy1TQhF2o4SpImmstmPQFS/afxSK3P7rBoDhR4Fs3bsTVG4JUzztGPRmLoXjca0N9VRp79QqI2w+ZACiY1cOwpzam5mFwhFUFXXYr4Fhs3wYnFTPhIJdS8ctmaEwoICQDsKGgoLs/MHw0qomO9FIlEVXty01008EVf3+Ey7FqcHTS3WE80oxCjczI5poHA0O6ZV4WeKgwKfBGt2zQ43mm3Wjdkcbr8iB7M/EjIxNTtizjjMjkKRaTS7JpsLLQ5rHCxrlrnZsU6wbpgdMfYHrHZpChmXt60+0j/rqM3pMb+qrim4tWOZMr0RS/2BqgOBoDUOpoN1xuxS6yifMV/Mn3Yd1VHWYcbbro42OuANW9ch1LqjcLRVKTCXFbaQqRUAoYTR/iLhMBLRkGqrUd3Gvd1p4w1wmuSIz+VWskCZdVplUsjnUTKD7VrLqUjAp+6FfN7kPS1HfG4X0Dp+oOpok7WOanx6+jvoRFBT14gPxuVapo2On70UR05d6nZeSALUwMzO7gmhrsVaYT2BiDJxaH+sGlWNLnhSJCjfc3hNtQRAo8OHZqe14dncQdTbvDo4ULRQkw5G2yqdEtKNLngp1U2OPRinz9ooGmwetDjbBEgwHENlvR2xtuAQjQMV9Q4LEcTjCdXI/CZhyajYyFIbMhsZNVvtWAHYeMwCWQvQsElYxlsbd2pDptDy+NqEBYV0KhEoIV3XAqZTO4adKixiMUOABE1kw3EGCikz2bA3kUoEFNL0R//aaZKLxtrIJhozCIjPtKOG3GgSZLxPQZ5KBEwDicAUBZhWhZ8pDhIBNV+zU8pKChFQSNOv2bHHkkoExJxxmPEjEaSSDdsAe0tmx7JOJQLWCTMRaIx9fmudJxGkko1SVhzWdkWN3kwEJACmN2SpP53XUdYZs0uto3zGfJnbeEd1VBNQV3WU4SmyNilE/mCoHcYh5qPeDpPOBapGqo1H2uoZ/1V22MY9cJrkiC8YU/7a3gRC0YQKzywdVBtvcCJkuqnj8IXalDNVR1PqjxnHnvwfdCKggJk2fyUOHr+g0t3U4sCkucvR1GzVWF6UqQ6JoINGRoFlbmQElw07VSPpSKPrTiOjwGEDCJqEjG5kZkHGvHTcyKjRtTWyjoSM1qRDJq1ZiACqxyBEIETA9tdnRPASyorRxh1wmnqGJNpu1VFNpKY2ruWIuWc8pIiAgN19UKqE/+mL17F0TTGOnLr8Irnf7hkFMDU9s6N2mdo1Jemk3uO1WdNiGLxn1pB5j+GbNUveYxxm8wk1RWoqZq1Uh9etOKLWOBiOER5DMVzbPbNeYcTb3TiYbu1oNlFx6Bs0Aul7ZtWXuESiMJtZ+IqBnym8DjDWcZii6DCO7uLHskktR+Y99V5bPtpibrvXhp+qPylmjJeJQ9UfE8aM3aijbTjxXnfraEf4qThMZjUjDmv90XGY66i61wF+DK+79Se1HaTi1xHGjFfVH1OvUN1T8VpxYXrNdZT+DPza2nhHcbBEu1NHdbzmODrCuMM4XqKNv0wd1Wk2l1FHdZT+euMGvUegE11eVYdte4/j5t3H+pb8CgKCgCAgCAwAAmlDBAOQV4lCEBAEBAFBoAMEhAg6AEVuCQKCgCCQSQgIEWRSaUteBQFBQBDoAAEhgg5AkVuCgCAgCGQSAkOKCDjKX9/IBSXW+fk9KdDHpRVobOne1NVwOIJ9R85i/faD2LTzCDYWH8bew2fh9VnXG6TGzxXQHW237XR5sPvQaew/dh7+TpaO2xwuOJzWueIM/9yVW1izZT8ultxJjS55HQyGFT4pk4HU80vX7mLdtgOdDtYzbS1268IkhnPq/DWs3bpf/abO3OIMjiOnL6vnnBFmdvR7/OxV9ezE2auWhTz019RiR/H+kwpbLjrUjjO/Tl+4rtJKzBn3tVsP9GP1Sz8nVboO4Ojpy+C1dsFQGMfOXFFYHT55CZGoabI2ALvTrbY32bL7KGrq2p+ixQVprGMMJ9U9fV6FddsPYt/Rc2qVe+pzXjfbHHhUWtHuEevMzgOnsKn4MJ5X1iSfc73D3tQ6doR1zDr3ni+wbjx4Yt2nn2V+6MRFFbY9ZbFZMhJAxVld22i+hZv3Hit8j58taTcrz+zR4/XBXEb62e37T1X5cd8w82wX/Zy/VTUNeF5pPZnu6o37WLv1AA4evwifabEi/RPjjTsOqbbGdrfn8BkL1heu3lZ1Y//Rc+3KiOncfegM1u84qHDesONQEmu2yWRbLj6s0l36vCqZ1Mqa+mQb37D9kKqbTrcx1Zv1i3lkXdx9+Aw83vbtn5NhNu86qsoidb0PI2lstncqNwKBIA6euIBNOw+jqqZtT7Zk4gCUV9UqLM33evJ/yBDB3YelmLNkPSbPW4FA0LowpruA2OxO/H7MbNx5WNqtV55X1CBn5lJVuBSIO/afwKKVW+FPqbw6MAp3LpT7eOICVYH1ff5S0E5tXU9BMli8ciuCpnxQ+LDicvHdg8dlyVdJftt2H8Oew2dx+fpdcJ+mXQdPWwQrhQkFI/d0IlmZiYCVeMe+E6piX75+D/81aiZKTIKVmwJyNtefx83D1ZttApfT7dgQC9cWg+/Rz6pNe5JTZ5n2LbuOKEHM51Pnr1KNmwnjdiJb9xzDoZMX1bsz89ZgxYbdSYFdXdugdqMlqZ29fBMjJy3EhZLbKs8ut1c1SAr442euKOyflrU1WJJP8f4TOHDsvAqbq9QLVu9QYZN8uMstCYZYUfCu3LgnSQZc3JhftF3lnyQxcc4yVJg2Q+Q059lL1mFq7sp2dYxpZf6vKCG2HwsKNyEYal8Pc5duwLJ1O5Plxz+sdwWrt+PK9Xs4ea4E42cX4uHTcuWnTNWxAoWVqmP7TmDxqq0dKgpLVm1D3ootybCJRe7SjSCpkZCJBcsz1QWDQXw0YT5OXWgja67rISkRJ4ZbtGlvuymdOpx1W/dj+sIifal+OQWcigWF+ofjc0HBnOo4fZPby7DuakcliBixzhw8cRHcmdgsOFnuuw+eVkrE4VOXcLHkNli/Y7EY9h87h10HT+HKjXvIX71dlZV565qnZZWq/lMBoTLAsBqbjVXcJCMSzPEzxjO2U7Y57c5cvI4d+0+qeI+euoyzl26AZ6io9kOFZdsBlWamiTLA5WlbUHjr3mMsXbMD124/xPQFRapt63BLn1cjf/UOjJmyGE3N1sWF9EPyWrauWLVfkt4fsmar+qLf5y8V308mLlRpM9/vyf8hQwRujxcnzpVgwqzCdppAdwChcFy7ZT/e/2hahxpbR2GQ5am5akcyepiikeln/GXFb2i2qYqeuqker+flr096n7VoDagpa0cNlJWV23HcfdimIVOjnTC7EPda75WWVxtbdvjbNEZWVmqiS1fvwOpNxnbfOtzrtx8pga6v2TOg9qMdGxm1tvGzluJSyV19WwnI7BkFoGCmIyFNW7AqeZbE1Zv38cmkhUn/lTUN+HjCAqXJUmul4NHz23keBXeg1Q2PApUCWTtqtGxAdBRkZqLSfvQvBegH4+YhEDS2LbA7XCpsxsEdbldu3K29ql8KTk0kFMRUJLRbvn6XEob6mnWMgmLC7GUIha09AhLMum0HtVclzG/ft56rce32A7z/4VRs3nUk6Y9/SOzjZhQkSXTzziNJsqiorkNzS5uAuPOgFA+fWrV+hnHn/lP85pPpBtm2hn7u0k1wJ1/tlq/bqUhUX+vf3QdP4ed/nqwEmb7Hunj0tHHQPJWUMVMWddhDotZM4WQuL5KXIrtWjeP2g6cdtgsK4p//eRLY46Bzu70KB76vHYngWGs6eO/CldtJnLQf/rL39sfsOcn2GIlEMGpSXrJd0M+jp+Xteh86jCdllXj6rE2h0Pf176WSOxZC0vebW+xKyEdNPUsqNSQyOvb0SAK6N1Zd16jIVb/Pnt2NO48VEZjLWT+nsmLuTVNRYO/F7Nhj/PmfJuPCC6wBZv8d/R8yRMDMUZDMWbJOMXVHmX3RPR6GQ2FMDdcsaF/0DgWsdixQdt+6Y5bac+iM0sL1u1wYMn5WodIG9T1qzHNNxKDvL1qxGRQGZkeTgDYlsRGNmboY/oC1stA/NaF1Ww+YX8WaLfuUJkgC4XNnq2C3eAJAIWI2O1HwkKzMbtXGPar7ynskrUUrtoKCmK6uoVlp0iQ0/mcDZyOio3CfkrsCDpfR1T554ZrSJrU54fSFa0qr136pddO8wvTWmbQ2PmcdoHBnHHQutwdT5q1QhEWcKOi1KYLkRdLRBMSyazZpzCs27FJaogqo9auuvlnVMXNvjY+ouZlNdiROMxE4XG6ljVI7Z+/J7LjdBoma6aGjH9ZDOmsd8xt1zLRynX4YN80G2/Yctwh6HvJErV47arFjp+cr7Vnfo5a8ZddRhQPNKtpR+LtbzwQhhqMn56G23moqC4fDKq3sYRVt3qdfVeZR3qutb1bEqcsi6aHVJETTHnsTmnCILXcVMJtW9x09q+qKfvfytbuq/Nh74YmG2tFMw140NWw6KhnT5q9KljXv0ezLtn3t1kOcuXTDIlBJaDRl3bj7WJkeianZsWfzrLxG9QT4vnZM68y81Urb1/fYcyfp0FGusEdKPNkr78gsyDbBnrzunehwaNmYV7Be5YG9iY625n9WXq1MTkWb9uHspZv61R7/DikioCZLQNll64ljhaftkNrtsrU72wna7oR1/upt1bXvjl+aYvjRjkJ77HSrpk+zyZTcldpL8ndB4cYO08eucXVdA1Zu2I1zlzuuENSszURAIUOyWbh8Mw4cP6+EyKjJi5IacjJSQJkuzERATZWEo7vAtEWzt7Js3S7za8n/1Op2HTiVvDb/ocbT2SaDFI7UtvVCw/qGZixfvxOnLlxTDWDGwtW496jNVGYOl/8p3MzCkBo9NdhNu44os9OjUqPBmt9jfeC4Q37RNrTYrXtYVVTVqTqWSgT6fY6j7DtyMs5WWAAADSVJREFUDhuKD1mUApqx2GgpgGie68hRmSB5UKClCl36Z7nS7JHqaDKigGFvjuNE2k1fsMrSq7x59xFGTc5LCkD29mhuIEFSeJ293P4MEPZ4STIc96DCYnbUkik82RPWxMXnrIMsF5p5SHo0SWoNmc9Z7/YfOafGyajxsq7TOV1eZE1dgmetPQKW/fylGy3tgKRFfGkCoglp+94TFlOnCoi7FTwsBRUTM5FSgBMf4kUFYH7hJnBLGzoK7KLNe1W94kmJ8wo2WJSMXQdOK1MixwAXLt+C9dsOJsdNuIPyH8fOVWTIsTqGpbGiSY7ku+uQ8T577+a2z7hZ30gmqURQ39Si2tjabQeUqZM9C5olNUnR9EelkkoEe5Fm057Gobu/GU8ErGxk6rIKY8CK7K3ts90GMRgCtceGRuuukZ29n0oELNjRU/Lw5FnbICIbB00tqa4zIqCApOAiEZaZBhvN76cSASvSb0fOUNt6aH+05TIOcwPiM9qwzURA3NgYWDHZ4E+eL1ENnuMGqY4aN4mmo7Eb7ilFe76vg8FPhnPnwVMLsbGHwR6BdodPXlQaOtOT6ijgaDdmQ9OutKwK+4+ex9yC9fjd6FngiXipjsREU9Sm4kPghACzexER0BxBbZ69Gwp87ah1s0tPx7q2dXfHO+tSyHO8hAIptfvPHh9NVTRxmV1ZZa2yd/MeSW/99kPJx5PmLsM5k3C/efehKiPdeyRxcNyDjgOdl65ZSYamsKJNezB1wSpVDsmAuVdWfZMan+E9lhHrv3bZM/KVZs/6RUdT3qQ5y5MmW5I6TYd0JIpjZw0TFK8PHrugzFkkKJYD61du4Ubll1/ESJsjWa5UXMzjOPRDLZ1lTAFpdtToHz5pI34SrhbKNPNq8yrfIbGRALW7fvthkjTY28iatgT3W8fqiAWtARwb+PXH03DRZEJlj/v9j6Ymx2Yo7KlAmScidEYE7KX826/G4IxJ088t2KDyxnSxl3Kz9VhftrvzV9p6dDrd3f3NeCKg0KfdmNoagacAOHDsgsUu2xWYHBdgN7y7LpUIQqGQ0hpor9eOgpMCJdV1RgTaH+3dM/LWJCutvs/fVCKgXZONVjdK+uFBQZPnrWxnA08lAvql7KWmx4E3zrQidhzgMztqXKcuXrd09/Vzas/UYlymjbn0M/4+eVapwjfvCWN+zv8UstSyfCmmMHbFGbbDtGUyZ1ZQ89WOphI2Ss7YSHUkFpouONPD7F5EBNofGzYHaakpUmhQQ2bZ0my3fvsBZbrieAV7cR25PYdOY9WmvUlTEf3cf1SmzvU2+6dGz0FcCgSGzbEHxkvBSMxoutObOfK9G3ceqkFF7ivU0NiizH00l7DuU7vesvtY0kxmjof4zMhbrUwjvE8lgYKHA/mMl+mduWiNMmFQ+M/JX4c9R9oGgFk3cmYWqp4HzX/sdXNchPFyIHr1ln2KWDSXs5fBwXra06kF62NszWnS/2ctWq0IUF9zlhEJpL4bShmxofDuyB0/e+WFbXrh8k1qTNLt9SkS1eR6/9EzjJy4UOWN4W7dfVT1uHUc3DNp6oIiZYLS9zojApowOa5mNjnuPHhane3OCQbL1+5UPUHiSLnA+lrX0DbArcPvzu+QIoKq2oYejxFQ+C9bW6xmrVDj+sOY2Zg0dwUu9OCoTM5SWVK0rTt4Kz87D5xUM1f0CxQ61AQ5fU07amjcgC/V5S3bZBnDoMbKBmmuANS+OHCe6o6cvKS0eH2f8bIHwZkO2lFbY08kVUgVrt2hTA/aX+ov7dwjJ+UpO6x+ximynD2ixx2YVj3tkgNjjJfTNemoTZt7DJyOyG62HifQM7HY7aaZQvdY2IsiEejBYYbFngAFiZ7uSuFEgXz4xEXLDBX6LSjakbS9UjhTq9bTYJ89r8LH4+cnx1/on344DpVqGuLMEJojtGMZL1y2Wc2Qoma5Yv0uVcc4ePvncbmqV6CFB8uO9l09vtTQ1KIGvJkP7bbvO54cJ9H3uO8+BQ3rLQcoicOfxs5VhEAsSRJmTZ0zYTh7i469NBIU3+Png5xcpYxwAJf1grZ4ChjtKLA37DB6ezR77Dx4Sg0I813Odvv9mFlqXIdCjVow6692bJecXcdplSQCml50vJztQnMVe6IdEf7E2YVJ2zfJnT0uPabD8DlbiTOb6Bg386jHJBierjd8zrxdNvV6WI/Yi6Zje2F9045+FyzbpC7ZO+P4S0VV2yQKKn7nr95ShMb8mh3TqM2gp86XWHr2NKFOnLvcMs2XuMxetKadaYi939GTF6GyuiEZPOsSTYus25zxpnH8MCdX9VKYf5ZfT92QIoLahqbk7JKeAqH90zTEWTI9cZyWR5tidx0HgnfuP2nxTvtv1tTF6h6nHdLGSo041c1ZvNYy4GSzu/DzP03Cg8fGTBIXZ3hMXZzstprfpwZkHiPgM9pL2Uj1fHpW4g0dmHc4uJs6W4d2cL1TLO221Ea1bZSVmz0QPYbAuNitJzlQk+Uzu7NN0DFsCgw6Clv2MrSjf+LDKavU6LUw43MKHPN0TApoNgbzbK7rdx4prZ/kkrd8S1LgEmeOkXDGCB0nC3w8Yb6OVqWRtluSiHY1tY0d1jEODlPwasdxFwqPVMd8aHOEfsbBUk7b1Y6DghNnL7MQ0JwlazF/2WbtpcNf9uw2FbfNSOKAJQW8NqVQeF281jbzyxyIWkNy76m6RcKmYOc0SToSIwdxOYWyI8d4zLOxSIifTFygCJn+KQxZfzR5m8PgoDIVGe0OnbiAjcVGr435MQaPjYkP1JB/88mMJBGwN0ISoVCkInLibInl7HOWtx60pXBkGRXva2t3nDjANSl0HI8z9xZnLCxSygSfsUf025Ez8aR1mjKvOaWZdYxTnVmHqKFrR9LU5MS0UUHSZiemmfFqOz/foXLECQ0kslRHeUTC1o6KG3uAqY5TXzmg3Fs3ZIiAlYbT+n70/lglGDiY2RNHbYNmgJ/+LkdpVnpwsjthUABq7eFF/qlZcHDsFx9MUesVOO2LQo6OGjjZnpVo8aptOHrGuhU3F/tQ4P3o/SxMnLPcYq9nZaZNkxWGFed4Sm+AUx2p/XA84P2Pp6neiLZBU8ixAcxavFbZpqllmGfO0KbJAbb//O04pXHQ3KIdiYVzxJet36XSbJ7Bw/EETolk155TC2fkFWH6QkOoEls+Y1qpkc1avAaTc1ck7eI0O1DY811+ONimGykbFk0YXLjFPBN3s4bIwVYV7+rtKmxq7xPmLEs2Mo5HcI758nW7VLrM+eHsJRILBxL5W7C6GFxboB3HJji7i3WM75OwtONYQ+HanaoMiCEXLZl7OPRHkwXXgfz6k+lqkZjWgEmWLHsKUw4MLinarkwuOmz+zsvfYFkjYH7G/yQPate/+nCKGpjUxE5bOUmJWFPomqc58j32SjhRgsoEhaqeOUSzFnuk1DhZ77g2RffOzHGX3LyvzIs/++NERXw6zxw3YhmyTrIMU+34nN9/4PgFVR853VePoZTcfKB6NUbZbk4KX8ZJYc4xFmJE8xLrrJ5Jw94LFRrWNfbOaSqhHb/eZCqh2XTd9gOqfKkQsF7rHioHqFmnOD5DcxEHmnWPTeF79TbWbjOUDq4lMSsqJDKu7WDPbOnaYtXr1L1KvktFZPK85QpHpo29Wu04zsA6+m+/HKNMUXrcQT/nOAfNdjp8yg9dtvRDxYdmuF98MFmVPxWN3rghQwTsDnJ+OrUGgqm1oO6Cwm45Z15wQIn2y9QR/BeFQyY32/E680sTBbV8mqNYKfmrhYF+h9PfOiIxxsF8MX+cR24ebOK77MVwvrbuFuvw+EuSYUOh5ss4KbT0QJ72x/RQk9MNQ98nYRBXajKcYWNeY0A/bODUvKiRmR0H7JhXppl40o/GlN11psX8zCzMSUQcd+Fz5efJ86QgZxxsZEwT06vNKTpursJkXsxhp2LCngenHpoFuX6fjYz2eL5vFgR83lUdozLBMmAZdtQ9ZxkRe6PsrX7Y22GeiVNHK1NVHXO1X1Gu0017Ou39Rt2qhFn7Zj4ZZ0eO+dXp4XiZmfhYXrTXd1QfdVh1jc1K62b9Yv0w9574HvFg2lMde44Uvoyb6TYTBesC4zVPIzW/r8rv3hOLAkBlh23XXO70l1oOTAunX5snZuiwGR+fdTSTjH5Y/hTixDrVsZfANHMadkeOz/lu6o4CrOtMMwer+WtWwnQ47KGxruueq77PX+LNMmedY+8ndXW42e+L/g8ZInhRJuWZICAICAKCQOcICBF0jo08EQQEAUEgIxAQIsiIYpZMCgKCgCDQOQJCBJ1jI08EAUFAEMgIBIQIMqKYJZOCgCAgCHSOgBBB59jIE0FAEBAEMgIBIYKMKGbJpCAgCAgCnSNgIYJgygZbnb8mTwQBQUAQEASGCgKU/eU1zfhUVb0dTo8fZAb5CAZSB6QOSB3InDrg8vhRWWfDp2oa7ahusCtWIDPIRzCQOiB1QOpAZtQBkkB1nQ3/P7uQoVlffewbAAAAAElFTkSuQmCC;" vertex="1" parent="1">
          <mxGeometry x="168.73" y="295" width="150.51" height="85" as="geometry" />
        </mxCell>
        <mxCell id="hm0pcYK8jrE48RgcLdMb-12" value="" style="shape=image;verticalLabelPosition=bottom;labelBackgroundColor=#ffffff;verticalAlign=top;aspect=fixed;imageAspect=0;image=data:image/png,iVBORw0KGgoAAAANSUhEUgAAAYIAAADaCAYAAACrUEWnAAAgAElEQVR4Ae2993tcyXUmrH9hf/1299v15CBpR7Ilr4MkB8m25LUte7VrW7ZlS7KiNTOcIQESzDkABAESIAkGEAAJ5gBmEswkSDCCmQQzcmp0zuj07vPWxb19u9EA0QgEiD71PMDtW7fiW1XnnDoVzhc6up1otTjxosUif4KB9AHpA9IHMqgPtHTa0W5x4AutXU443F74gz3yJxhIH5A+IH0gg/qAw+1DS6cDX+BMINATgjhBQBAQBASBzEKAtJ88QDECzgbECQKCgCAgCGQWAqT9wggyq82ltoKAICAIJCAgjCABDnkRBAQBQSDzEBBGkHltLjUWBAQBQSABAWEECXDIiyAgCAgCmYeAMILMa3OpsSAgCAgCCQgII0iAQ14EAUFAEMg8BIQRZF6bS40FAUFAEEhAQBhBAhzyIggIAoJA5iEgjCDz2lxqLAgIAoJAAgLCCBLgkBdBQBAQBDIPAWEEmdfmUmNBQBAQBBIQEEaQAIe8CAKCgCCQeQgII8i8NpcaCwKCgCCQgIAwggQ45EUQEAQEgcxDQBhB5rW51FgQEAQEgQQEhBEkwCEvgoAgIAhkHgLCCDKvzaXGgoAgIAgkICCMIAEOeREEBAFBIPMQEEaQeW0uNRYEBAFBIAEBYQQJcMiLICAICAKZh4Awgsxrc6mxICAICAIJCAgjSIBDXgQBQUAQyDwEhBFkXptLjQUBQUAQSEBAGEECHPIiCAgCgkDmISCMIPPaXGosCAgCgkACAsIIEuCQF0FAEBAEMg8BYQSZ1+ZSY0FAEBAEEhAQRpAAh7wIAoKAIJB5CAgjyLw2lxoLAoKAIJCAgDCCBDjkRRAQBASBzENAGEHmtbnUWBAQBASBBASEESTAIS+CgCAgCGQeAsIIMq/NpcaCgCAgCCQgIIwgAQ55EQQEAUEg8xAQRpB5bS41FgQEAUEgAQFhBAlwyIsgIAgIApmHgDCCzGtzqbEgIAgIAgkICCNIgENeBAFBQBDIPASEEWRem0uNBQFBQBBIQEAYQQIc8iIICAKCQOYhIIwg89pcaiwICAKCQAICwggS4JAXQUAQEAQyDwFhBJnX5lJjQUAQEAQSEBBGkACHvAgCgoAgkHkIDJkRxGKxftEa8rd+U5QPgoAgIAgIAqOFQNqMoK3TgtJtB7B0VTm27j2OQKDHKFs4HEHV0bNYvmYLtu09Dn8gaHyLRKI4VH0B+WsqsWX3UXi9fuNbNBrD0VOXsHxNJcp3HILL7TW+yQ9BQBAQBASB0UUgLUbg8wcwa+la1D9thNfnx8r127B51xGjhJW7jyKveDNcHi+27TuOkoq9xrddB05iceEmReT3HDqFoo07EI1G1ff9R89ifv4GOFweHDh+HgUl20CmIk4QEAQEAUFg9BFIixG43B6s2rAT7Z3dqmS37z/G9MVr1G9K8Z/PWoEnz5vVu8PpxuTZK9DWYUGwJ4TJcwpw/9Ez9Y1MZMrcArxoagNnCtnzVuLm3UfqG8NmzVuJB49fqHf5JwgIAoKAIDC6CKTFCJKLcuRkDVaUbFXedx48weezV8DnC6h3rhPkLCxGzdXbaGrpwKSZ+QkqH84sTl64qpjKpzOWw2p3GcnPz1+PfYfPGO+D+cH85E8wkD4gfSCT+sBgaONgwgyJEXR0dWP3wVPIL6mEze5U+dRcvonZy0oMdQ8bY27eepyrrcO9+meYuWQNQqGwUaZFBZtw/MxlPH7WiJyFRQgE42sNucUV2Ln/hBH2ZT+4xtDSaUdjWzea2q3yJxhIH5A+kBF9wExTX0YnB/o+JEZAdc+B4xewtnwPrtTdU+lfICPI7YcRPHyqMYJwX0bwaAQYATcwef1BeHwB+RMMpA9IH8iYPqCvsw5E5AfzbUiMQE+4ta1LzQI8Hh/u1z/D53MKwAVlOs4Ipi0swoUrt9DY3I5Js/qqhk6cvwruQqJqyOZIVA3tOXRaz0aegoAgIAgIAqOIQFqMoLXDgoJ129BlsakiRSNRfDI9Dw8ePVdbRT+blY/nDS3qm9PtwdT5q9DablFqn89nF+DhE20B2O8PKibxvLEN4UgEWXMLcef+ExWPU53pi4pVmqNYb0laEBAEBAFBoBeBtBhBU2sHfpm1GE9fNKMnFMK5S3VYVFAKd+++/4odh9Q5Ac4KuF2UZwJ0x+2kPHvAb1VHz2H9ln36J1D6X7hio9qSevjkRawp24NYtP8Da0ZE+SEICAKCgCAwbATSYgTM7eHjF1i1cQdyizejbPshdPTODviNzIGLyHmrN2N71Ql4vD6jgOFwGPuOnFXfKvccU2cN9I+RSAQHjp1H3uot2LzrMJwuj/5JnoKAICAICAKjjEDajIDl4QLFQKvVAx0GG+q3UcZBkhcEBAFBIGMRGBIjyFi0pOKCgCAgCExABIQRTMBGlSoJAoKAIJAOAsII0kFLwgoCgoAgMAEREEYwARtVqiQICAKCQDoICCNIBy0JKwgIAoLABERAGMEEbFSpkiAgCAgC6SAgjCAdtCSsICAICAITEAFhBBOwUaVKgoAgIAikg4AwgnTQkrCCgCAgCExABIQRTMBGlSoJAoKAIJAOAsII0kFLwgoCgoAgMAERGBIjqLlySxmnP3upLgGS540t6tZRXjy3o+oEjp2+BH9As0/AgLRRvPvQKcM+sTkyzVnyFtLrtx+aveW3ICAICAKCwCgjkBYjoO2AqqNnsffwGZypuY5FhZuwbvM+wzzl0VMXsX3fcRysPo99R7QwwR7NBOWtu48wJ3cdTl24hsJ123D8dK1RNZqy5LeT569i1YYdOHSixvgmPwQBQUAQEARGF4G0GEH90wZ8OjMfgUBQlcpiteOTGXloaulU7zRXmcrxmuk5y9bh+BmN+De3dSJ73krYe62SLcjfiIPHz6uonRYbsuatREeXNVVS4icICAKCgCAwwgikxQha27uwZGUZ+KRze7xKkifxprt07TaaWztRe/0uHj1tVH7819DUho+n56Hb5lB+tDFMg/WXrt2B3enCxzl5aO+ME/6ZS9cYTMNI5CU/gj1hBHtC8icYSB+QPpAxfYAmgUfCpcUIkjO8fONughWyHVXVOHD8HLbtPY4lK8tx8PgFFeXmnXrkLCxWJiv1NBauKMXRM7XgusLUBavg9cXXEpYVlYNpDdZFozE0d9jQ0GpBY1u3/AkG0gekD2REHxjILsxg6SfDDZkROFxu7D92zlDvMLELtTdhd7hV/harA5PnFMBqd+HG7QeYsXg1qCLS3aIVpag+e0XZMebsgNbNdJdbXK4WnfX3wTzDkaiyf6w9+Vv+BIPx2wcikWifbh2JauVNJeTpbZkciWH5LZXT48hz/PaD4bZNqr6Sqi+8zG9IjIA2irlYzDWC/lwMMSzI34C7D5/i8bNGZM9fpewV6+HnL9+IY2dq0djSjilzC+H2xM1aLllVhh37T+hB5SkITDgEorEYrty4h5XrtysTrdxEobtuqwObth1EwbptygZ4S5u2BsfvT543qc0WBSVbUbnnqLFed63uPpatqkBx6S6sKNmK2mt39OTkKQi8FIG0GQHtCXPHj76YSymf9ohJyLmjqKs7zhzm528Adws5nG61RtDe2a0KRGkoe/5K3LhTr+waawvOHUZhcxYV43xt4tZU46P8EAQmAAI+fwAHqy/g6Ytm3H3wFD/9bAGu33qgalZ3px5Xb95HS3sXNmzZp2bWZBxkEJxZX7t1X63T5a/ZgtKtB1ScjZVVyCvejLYOi4rncnsnAEpShVeFQFqMoKcnhOqzlw0mwELeuf8EJPCU7NmZu7q1hePnja29qiGnqktuUQW27j2mfnOWsHjlJmPNgNJN2faD6tujZ43g+oHH61fv8k8QeB0QiNha4DuSh57bR4ZU3LzVm7H7wMk+ca/U3VPjiFu3eQ7n51MWw+7U1K/rN+9D4fptKk75jkNpq1P7ZCYeGYtAWozg9v3HmL54tZJS1lXsVVPQmUvWwul0g6vXh0/UYPPuI2pau3hlGU7XXDeAbW7twLLiCrW4zCkvmYHuKMVQminbfkhNhzmLECcIvC4IxCIhuMt+ge7P/itsMz9CuOFGWkUPBnuQNXclLl+/q+IFgj1qLG3afhDTFhSh7m69kd6W3Ufwq+ylWFexT6mNrHZN0Nqy6wg+zskFn5yZ94TCRhz5IQi8DIG0GIHH68Pt+09w7eZ9XLv1AFfq7oOSv9k9ft6Ei1dvqxmC2Z+/qT7ilFefNZi/cwbAbx1dmvrI/E1+CwLjGYHQ00uwzfwfsE3/IqxZb8FbNS+t4m7afkCtp0Wj2qJvKBzGnQdP1Tiq2HkYnC1w7FHYqj5bix9/Mhf/8h+zMWVOIZ42tKi8eCbn5t1H4E6+5au3ILe4AiHTBoy0CiSBMw6BtBhBxqEjFRYEBoGAZ/d0xQBss74CW86HcOT+GaJuyyBiAqfOX8Xns1co/X9/ET6ZnqeELqqJpi4ogr/3QCevcpk0K9941+NzR9+/f7ZAqZJ0P3kKAgMhIIxgIHTkmyDwEgQi3S9gX/RNWHM+hGIEnBlMex/BqztfEhO4dPW22jHX0qYd0NQjPHnRDH1/ODdl/HzyIjxraFHqIjIC3VH6nzRzObgw3NQa32zBGTvVRNzCLU4QGAwCwggGg5KEEQT6QcB/ei2sWW8rJqCYwcyP1OzAXfFrINK/nt7r9eHTGcvVbroNlVXaHVvV2gHM/UfPYf7yDcpv9rIS45Q9T+FzYwVP9xeu344FKzYqVS1VRpW7jyh/3tXFOPcfPe+nxOItCPRFQBhBX0zERxAYFAKxgAfOwu/DOu192KZ/Ca41P4Rt3tfVb/vcryPcHl/kTU6Q266p1++wWMGbdxua2xPWzrh1lH7JZ3VI9HmNS0NzG5ymLaLc0dfYm45sHU1GW95fhoAwgpchJN8FgX4QCN48oFRCZAT2JX+CcNNtOEv+WTEG69R34a8u7CemeAsC4wsBYQTjqz2kNK8JAtqW0V8qtZA16x1wwZjOR1XRlDdhnfoenKv+DrFg/MT8a1I1KWYGIiCMIAMbXao8fATCzbdhm/VVtWWUW0e5hZQu3Hoftvm/p6mLZnwZPQ9ODT8zSUEQGGUEhBGMMsCS/MREwLt/HqzZ74IqINf6HwGR3ksTY1G4K34F69R31KKxZ1cOMFI3g01MKKVW4wABYQTjoBGkCK8XArxOwrH0T421gEDSVtFg3T7Ycj5Q6wf2Rd9CxJ546PL1qq2UNhMQEEaQCa0sdRxRBAIXyrS1ganvwZH/l4i640aVmFHUZYEj9zuwkhlMex+BS1tGNH9JTBAYaQSEEYw0opLehEYg1uOHa80/KJUQF4R9R/NS1td7YKG2aJz9Dlwbf4xYWLPdnTKweAoCY4xA2oyAtghoKyB/7VZs3Lo/wTAN63K65ppxOCbZ+Ma52joUbdyJqqPnjJOTev1rrtxW3/YcOg3d4L3+TZ6CwHhBINxWD9vsr/SeJP6qWhxOVbbQ09reQ2YfwDb7qwi9iNsbSBVe/ASBsUQgLUbAi6/Wbd6nLp3j1dO8LXRO7jrDOEbVkbNYVFCq7kPnPembd8Wv5D1ysgbzlq8Hj9Nv3nUYpVv3G4toJ85eUachm1o7sW3fcZRU7AXNT4oTBMYbAsG6KnVgzDr1fTgK/wYxv3b7Z59yhnvgXPtDWKe9B+vkN+A/v7FPEPEQBMYLAmkxgnv1z/Czzxequ01YAb8/gKx5hepkJKV4mqa8X/9M1c1is2PKnAJYuu0IhSPImrcSNLhBR+M2U+YWKKbAk5I0ValfwUuDHbRYRoMd4gSB8YaA7/ASTS2U9TY82z4HYqnNRLLc/mP56jwBdxd5tk8Zb1WR8ggCBgJpMQIaxNhz+LRxFN7SbVN3opAhPHz8Qt2EqBuU4ZW6vCCr9vod0NQe71VxuDxGxjOXrMGZi9fRabGBtyt22+IXZM3NW6fsIRuB5YcgMB4Q4NbQTT/XFoonv4HA6dUDlip0/6Q2I8j5AI7l30UsoBmUGTCSfBQExgCBtBhBcvlOnr+KwydrlPfFK7eUeie+LhDD3Lz1OHvphroAa8aS1QnGMhYVbFI2i2mDlTMC/WpdJsa71NOxWUw1UpvFgZYOK1o7bfInGIx4H2ixetD+rB7W5d+DneqeGV9Ge81etNgCKfNqsXrR9ug2uuf/gdpKapv9O+i4fR4tVl/K8NJvZdwOpQ/QTPBIuCEzApqmPHHuirHoSxvDs3NLlPEMFowqHzICLhDTJitnAOFwxCgzGcHxs5dR/7QBOYuKEOzpPZDTywh2pmG8nnk5PX44XF443D75EwxGvg94e2C/ew7WmV+Bbdp7sC/+Izgb7sPhC6XOyxuE02aFo+RHsGW/A+v0D2E7van/8NJmqXEUXAbEJS54G6R1SD+GxAh4+yElfZrY0x31/9Tt65I9ifP0Ratx/vJNZSCDxjc8nvi9K3OWrVP2j1vbu5RKSbfDyvQWrtiI3Qf72m/V85KnIDAWCISu7+69R+hdOIv/DxCLCzb9lcd3YIFaLOb9Q77dOf0FE39BYEwRSJsR8GrcY6dr4Q9oTMDvDyoTlLSdSiMZZBJ0Xp9fLSQzPBeAJ83Mx7NGzawer8ydOn8VHj1rQk8opCw01T9uUPF4PW/OomJldm9MkZHMBYEkBLz7FxgHyby7piV9Tf0avL5XM2GZ/Raca/8RUVknSA2U+I4pAmkxAt6fTvN4tDkcCUcUsT9+uhaNTe2qEmvL9mD1pt3qNw3Zcxuo7rhdlEbr6ahS4nkCfYsoDW7TeD1nEZxpMJxZjaSnIU9BYMwQiITgWvtPvddK8LTw5kEVJdx6D/b5v692D/EyusgANgoGlaAEEgRGAYG0GMHdB0+Urn/pqnLwj5aQaCXJ5wuoovGcQdn2g1i+Zgs2bTsIqy2+x5qzAp4r4DdaZOrqthvVCQSCqNxzTH3jOQWa5xMnCIwnBKKOdtgX/qFmfyDng0EfEOOJYmfh32gMJPtt0IaBOEFgvCGQFiPgllBuD+U2UJ4F4JOqnWRHfT+l+1TO4XSD6aRy/DZSix+p0hc/QWCoCPTUn1MnhHlAzLHs24ja2wadlHfPTO08wdR34T20ZNDxJKAg8KoQSIsRvKpCST6CwHhDwH92vUbMs96Ge9PP0ro7KHBlu7a2MO19ddoY0ZcvMo+3+kt5JjYCwggmdvtK7UYIAc+OLG3H0JQ30pbqw403tfuJaNJy0TcR6W4coVJJMoLAyCAgjGBkcJRUJjACUb8TztV/D2v2O7DlfIjgNW1DxGCrHHV3w7nyb7X4sz5Cz93qwUaVcILAK0FAGMErgVkyeZ0RCHc8gn2BtvPHvuD3lJH6tOrDqykqP+2dUbwJ3/H8tKJLYEFgtBEQRjDaCEv6rz0CPbwziKeDp/HOoL8Y0p1B/rMlvWsMb8Fd8WsgOjJXA7z24EoFxgUCwgjGRTNIIcYzAr6TRRojmPoe3OW/GlJRQ08uwTb7txUzcOT+GaKOwe86GlKGEkkQSAMBYQRpgCVBMxMBdxmN0b+nmIHvZPGQQOA6gX3JHyvzlVxnCD27PKR0JJIgMBoICCMYDVQlzQmDAK+OpjqItoepHuq5d2JodYtF4Sr7hWHiMnChdGjpSCxBYBQQEEYwCqBKkhMHgXBDHezz/6eyK8CTxeH2R0OunO/EKliz3lKzC/eW3ww5HYkoCIw0AsIIRhpRSW9CIRC8ulNtGbVmvw3n6n9A1O8acv3UojNnFlPfgyP/e4j64saYhpyoRBQERgABYQQjAKIkMXER8NI05eQ3YJ3yBjw7s4dV0Uj3C3U9BU1X8gK68Ivrw0pPIgsCI4XAkBkBbRH4/MGEcrR1WECrZacuXFU3jF66dgcBk80Ci9Wuvj9r0K6jNkfmBXWnLlzD4+dNZm/5LQiMHQKRsNrqqalz3oX/9JphlSUWDsK57l/A2YU16x0EaiuHlZ5EFgRGCoG0GUFLexd27K/GvOUb0NjSkVCOIycvqqunt+w+om4f3X/snGGo5vGzJiwsKMWeQ6eRv7YSl67eNuI+b2xV33jF9Yq1lTh3qc74Jj8EgbFCIOrqgrPgr5QqxzbrK+i5e3zYRfFWzdO2ok7+rbSvqhh25pKAINAPAmkzAofLjfO1N/GbacvQ2KzZIdDTvnD5ZspbR3nb6MIVpdh35IwK+vRFM6YtKILL7VXvy1aVY0eVduy+qaVDGa0xX2Gtpy9PQeBVIhBpewDbrI/U1dP2ef8TEcuLYWfPWYBt+hfVJXTusl8C4cRZ9bAzkAQEgSEgkDYj0PNYVlSBF42t+qt6Xrp2G50WG+qfNKC9s9v41tzWgY+n5ymDNvSkQZppC1bh6s37ihl8Mj0PrW1dRvgZi1fj9IVrxrv8EATGAoHQ3WOwTn1fnSh2Ffw1ENbsbgynLJGnl2Cb+ZHahcQFY3htw0lO4goCI4LAkBgBTU0uWVnWhxHsPXQaVAfRMhlnALqK59bdekxdUGSoiVjyBfkbcexMrbJnnD1vpbJzoNeIRm/0GYLuN9BTjNf7BjRw7RAD4Onj4wnAcSQftmnvwzb1PdjKfwOnywuH259+Wjr+3iDsTU9gnft12GjMfvZvw9lwHw5vz9DT1NOWZ0ZiOFL2W0aUEdBspW5drLmtE5PnFCoDNtdvPQClfNoj1h0ZRfXZK3j45AVyFhYlGLjJLSrHrgODN17PGUabxYGWDitaO23yJxgMrw902dHa7UHXhp/DPu092LPfhuXAcrRa3Gjlt6Hi2+1Ga3MzrCv+Brac92Gb/iW0X9qPFqt36GkOtSwSb0JgHg6PzJ1VI8oIdCLPJ6X0ecvX4/6jZ0pV1HdGUIqjakbQiuz5iTOCZUXpzQjM+cpvQWBEEAj5NROTU99Vu3x67hwdkWQRi8Kz9bNeQzUfIHBh08ikK6kIAsNAYEiMINQTUjaLzWsEtFt85uJ1WO1xO8ULV2xE3Z16ZbtYWyPQ7BRTgp86fxWu1HGNwKPWD1rbLUY1pi8uxqnzV413+SEIvGoEwu31sC/+lroSws49/03xXW7DLYvveIF2NoGmK/fMGG5yEl8QGDYCQ2IEzJVrBJ0mI/OPnjXip5MWoMuiLX5xsXjynAK1eMzwNHJfdfSsKjB3Dc3P32CsC3BNYOd+7Q4X7hqal7cBtF8sThAYKwR67lXDNuPLaqsnjc9H3XFBZbhlCl7dpV01kf02XCX/jJiYrhwupBJ/mAikzQiaWztRsfMwvv+vk1FculOpfVgGGrHfUXUCuw6ewt7DZ8BdRVw41t2jp42KGfBbwbptuHzjrv4JPGBGRrH38GkUrt+Oi1dGTvoyMpEfgkAaCPjProN18m8pFY5r08/TiPnyoKEnF2Gb8ztK5eTI/0tEnZ0vjyQhBIFRRCBtRkAVTvXZy+CZAT6fJJ0EvnGnHoeqL+Dew2d9is2tpYzzoilx2ykDdlsdavGYswVxgsBYI+DZlQNr1pvgdRC+g4tGtDiRrue9V028oyyfhZtujWj6kpggkC4CaTOCdDOQ8ILA64ZALOiBa+0PFRPg4a90bRS/rL6xUADOoh8otZNt2nsjcmL5ZXnKd0FgIASEEQyEjnzLSAQi9hbYF/yBOlHMqyVCTXdGHAdaOlPmLye/Af95sU0w4gBLgmkhIIwgLbgkcCYgEOLp3xlfUtbEHEv+CDFP/JT8SNXfdyxfO7Wc9TY83DkUi41U0pKOIJA2AsII0oZMIkx0BAI15Wo2YJ36LtwbfwLeGjrSLnjzQG8e72k7h0LDv75ipMso6WUOAsIIMqetpaaDRMC7Z6ZmUnLKm/AeGNmFYr0Ioabb6mSxNecDdV4h6rHqn+QpCLxyBIQRvHLIJcNxjUA0ApduM2DKmwhcGh2bAVFHG+yL/0jZQuadQ+Hm+HbqcY2PFG5CIiCMYEI2q1RqqAhE7a1w5H9X29Ez+6sIPbow1KQGjBcLeJRKiAvGPLgWvHlwwPDyURAYTQSEEYwmupL2a4dA+NkV2Od+TTECR+53EOluHJ06xADPzqmwTnlTGb7xnVg5OvlIqoLAIBAQRjAIkCRI5iAQvL5HI87Z78C5+v8C0ZG53TEVgr7qldrp5Slvwr31s1RBxE8QeCUICCN4JTBLJq8LAr6jeb1S+rvw7Mga1WIHb+zTdg5lvQXn2n9CLKhZ7BvVTCVxQSAFAsIIUoAiXhmKQCQEd9kvtB1D0z6A//zGUQUi9OI6eLMp1wkcuX+GSHfDqOYniQsC/SEwLEZAmwOpnNPtSWm7mGH5jTaMUznaMB4pizup0hc/QWAgBGJ+J7guwC2d1pwPEXp0fqDgw/4WdXXBnvtnao1AnWB+IeZZhw2qJDAkBNJmBCTk9+qf4WD1BbR1JF7N6/X5Ub7zEJavqcT6Lftgc7iMQvkDQWzZfRT5aypRUr4Xlm7NNgEDBIM92Lb3uIq3etNuw8qZEVl+CAKvAIFwW712K2jOB7DRWP2oS+gxONf8g2IE1qy30CM7h15BK0sWqRBImxHQBGXp1v34t4/ngrYDzK6kfA+KS3cpr0MnLiB/bSViUW3WsGnbARSs26pmCtXnLoNWyMJhzXTllt1HkFtcoWYKZy/dwKKCTQj2hMxJy29BYNQRCNYd6LVB8C6cxX+PmC8uyIxW5p5dU3sZwdvwVReMVjaSriAwIAJpMwKmRuP1iws3JRivt1jtmDQzH829zMHj9WHy7BVobG6Hzx/EpFkr8LShRRUmGAwha24hHj1rQigUVuEePn6hvtGucfb8Vbh599GABZePgsBII6AWimmacsqb8GyfQoOrI51Fn/T8Z0s0RsDrLCo/6fNdPASBV4HAkBgBDSbTqpjZVGXd3XpMmVsIqoDouH4wffFqnL98Ey+a2vD57BVwe3xGneYsW4fqc1fQ2t6lGIjdZJGMJi53HzxlhB3Mj3AkinAkAu3J3/InGKTRBwI+uNb9qzIWQ0bgPVmMcBSj24+iMfhvH+1dnFRxL4gAACAASURBVH4fjoK/RjgYGN08ZVxMKHz7WaYdDMlMCDMkRsAZAU1VmhnBhdqbmJ1bYiwSkxHMzVuPc7V1uPvwKWYuWWOoglgCqn+On72MR08bkLOoKEEVlFtcYZiuTChtPy+0gdzcYUNDqwWNbd3yJxik1Qcaun1ouXUR1rlfh50LxbN/By1Xq9Fg8aaVTrp9r8HiQ/PtS7DN+gi26R/COu930XrrEhq6PKOab7rllPDjl6ZQozISbsQYwcUrtzB7WYlp14/GCKjzv//oGWYsWYMeU6HJCI6dqVUWznIWFoEF0R0ZwY5eG8a638uewZ6wYiZcW5A/wSCtPhCOwX2+XLMjPO19OAq/j6DXjWAoMrp9iem7HXCW/Is2E8l+B66jhQhGMLr5yhiZMPj2t3PzZfQy+fuIMYI7D59i0qx8eL1+lQe3iFLXf+n6HXCB+dMZy+F0eYz8ZyxejdM119FpseKT6XnotjmNb3NySwxD94an/BAERhEBT/kvNV39KJimfFmx/SeLNSM12W/Dve5fgJA2hl4WT74LAiOFwJAYAblQbvFmNLfGdw25uTg8pwAP6p+rsnXbHJi+qFhtE+X0JWveSty8W6++8bzA9EWrQfvHTGvagiJcuXFPffP5AyCToEF7cYLAq0CAF83ZF39TOz8w7X301J99FdkaefDmUdvcr6uzC7aZHyHUeNP4Jj8EgVeBQNqMIBAIov7JC/z0swXKgL2ndwbAwu47fEbtJuICcNn2g9h1IL7gS4P28/M3oKW9S50n2Lr3mFG/6jOXwVkAZw7bq6pRseOw8U1+CAKjjYC6Xyjni2pG4Mj/HqKuztHOMjH9WBSu9f+qWSzLfge0XiZOEHiVCKTNCB48foHlq7eoheBlRRW4dC3RnuvJ81dRsG4bjp66lLA4zEqdvXgDheu2gUwheZHjwuWbKFy/XamEuBgtThB4JQjEYvDsmqbdL5T1Jjy7pr+SbJMzCdRUGGsUzpV/Cxq4FycIvCoE0mYEr6pgko8g8CoQiDo74Vj+XVinvQfb9C8ieH3vq8i2Tx7h9kewL/h9NSuwjaIdhD4Zi4cgAKjNOi9aLPgC/5EriBMEMgkBrgfYpr2v9PP2xd9CxN46NtWPhOEu/xWsWW/DOvkN+A4tHptySK4ZiYDMCDKy2aXSOgLe/QtgzX5XrQ+4K36te4/JM3ipErZpH2hrFSv+F2Je25iUQzLNPASEEWRem0uNexGI9fjhLPy+shvMS98CtdvGFJuorQX2hd/QbBTkfPjKdy+NaeUl8zFFQBjBmMIvmY8lAqGntbDP+R3FCGgXINz6YCyLo+428mz9TFMPTX0Xnt05Y1weyT5TEBBGkCktLfXsg4D/5Kpes5Rvw7Xhx4iFx36NTFkt48V3096DY/mfI+pKvOq9TyXEQxAYAQSEEYwAiJLE64dArMen7d3Pfkdd+jZejMdH7W2acZyp78KW84HYKHj9utZrWWJhBK9ls0mhh4tApP2RMkLDy97Uds2GuuEmOWLxPTuztSsneB32zmkjlq4kJAj0h4Awgv6QEf8JjYC/pky7W2ja+2rBOBaMX5E+1hUP3j2mXXcx/UPYF30Dke7GsS6S5D/BERBGMMEbWKrXFwESfcNE5JQ34D28tG+gMfThtlFH3p9ru5l45cTRvDEsjWSdCQgII8iEVpY6JiCgFmR7D5Epo/HPLid8Hw8vvpNFxpUT6qCbpWE8FEvKMEEREEYwQRtWqpUagZjPDufK72tqIV77XDkJiEVTBx5D34itBY5lf6qpiLLegu/Y8jEsjWQ90REYUUZwr/4pSir2Yv2WKqwt26OMy3h98bvVb99/jI2V+3Gm5nofXO8+fIaNW/eDl9aNvqXYPtmLR4YgoK0NvAvr9C/CPu93EWpOvDRxPMHgP7FSWzTO+RD2Jd9CxNY0noonZZlACIwoIzh+phYnzl5G7fU7qLlyC7fuPUIorJlSO19bhzm563D7/hOUVOzBLpMFstrrdzFr6VrcvPcYGyqrsHVP/IrqCYS1VGWMEVAXzOV/T9O90y7xvtljXKKBs4862mBf+qew8tqJ7LfhOyqzgoERk69DRWBEGQGvkk4lzvNa6ZyFxai5ekuV02K1K0P3nRbtLhUygdMXrqlvtGI2ZW4hmlriRm+GWjmJJwiYEfBVF2oHyChhL/xDRDoemT+Py98+HnrLfltdjOdY/Eeyg2hcttLrX6gRZQQXr97Go6eNOHj8PPhbd09fNOHj6XmwO1y6F2YsWo3zl2+Clsw+zslDV7fd+DY7twSHT9QY7/JDEBguAsoK2ZI/1u7xyX4bgeMrhpvkK4kfc7bDmfttdbiMN5PKWsErgT3jMhlRRrBl1xFFwI+drlXGabbsPqoAvXH7oTJNSYPiutON1z9taMa0hUXwBYL6Jyjj9VXVxvvLfkSjMXRZXWi3ONDRLX+CgakPWF3osPtg3zMXtux3FEG1LPgmOp7cR4fdO877ixMdrhA6qpbBxlkBD78t/hYszx+gwxEY52U3tYGMyVFrq3A48jLyOKjvI8oIbt97DNocpnN7fIb6p+5OvbJDHI7EC01GcPzsFWX2MmdREcxMgoxgp2kN4WU1od1jq9MDi92NbvkTDMx9wB2E5VEdLHO+rpiAbep7cFSvhtXdg26HZ9xjZXEFYW9+Cseybyv1EBlC156F6PZFx33ZZSyOPj2KmGjqy+jkQN9HlBEkZhTDwoJStWD89EWzYgrmHUTz8taDi8vNrR34fHYBnG6PEX1xYWlajMCIKD8EgRQI+PdM1270nPYBHMv/AjFvXA2ZIvi49PKdKNLWCnI+gHPRNxDrfDwuyymFej0RGDFGYLE6sLGyCu2d3QYSc/PW486DJ/B4ffh0xnI0tWoLwJzOTJ2/EtwyGggEMWlmPp69aFHxKN1zYfnKjXtGOvJDEBgqAj0PzsA248uwTf+SMkATqN061KTGNF7E0QbHkj/RdhBNfQfu0p9hPF2LMabgSObDRmDEGMHzxlb8YspidPQyAjKArHkr4XJ7VSFXbdiBdZv3qd/cLrp8zRaEevVbJeV7UFy6U327cechlhVVIChmM4fduJmeQMzvhLPoB5oFsux34Vz7T4gFtf74OmITrK1UB+EUU8t6GzxnIE4QGAkERowRsDDcKcRDYQUl27B0VTlu3o1vz7PZnVi9aTeKNu5EcekuNDS3GeV3ON1YW74HqzbuUH/PGrTZgRFAfggCQ0DAf3qtpk6Z/iXYZn6E0JOLQ0hlHEWJhKBuJs3iwvGXwOsxeh6eHUcFlKK8rgiMKCMgCNwG+uR5M0jckx1VQi+aWo0FZfP3SCSKF01t8HjjJ5HN3+W3IJAOAuG2B7DN/z1Yp38Ia9ab8FbNSyf6uA0bdbbDUfDXyoaClQvfed9F1NE+bssrBXs9EBhxRvB6VFtKOZERiEXCcG/5JH5pW+53QIMvE8X1PK6BbfZvq2syeLaA5i1ZZ3GCwFAREEYwVOQk3rhFIFi3X10jwUVi67T3Eby2a9yWdagF859eo9Y+bDO+pMxaBi5WDDUpiScIQBiBdIIJhUDU1QXH8u/BOvV9tWXUXf4LIBI/yDhhKhvugavsF6qONl6ZMedrCN4+MmGqJxV5tQgII3i1eEtuo4lANALvnplqgdia8yFsc7+OcHP8qpPRzHos0o50N8C+7NtqvYDMwDbrI/jPl45FUSTP1xwBYQSveQNK8XsRiEbgO7RY214548vonvImfMdej/uEhtOGPQ9Oqeu0uXBMZsCn99BSxMLxK1uGk77EzQwEhBFkRjtP7FqSCRxc2Ksz/7JaJHbxzIDPObHr3Vu70PNrcOT9hbJdoB2ceweeyk/Bi/bECQKDQUAYwWBQkjDjFwHFBBbBOvUddYLYmvUWXGv+AbTwlUku0vkErrU/VExQLZJnvwtH7p/Bf3Y9uOVUnCAwEALCCAZCR76NWwRiPT5EWu/Du28WbNPeMzGBfwQNumSii3q61UzAOuVNzfhOzgdqMdmx/Lvwn1mHmNuSibBInQeBgDCCQYAkQcYBAtEIwk23ELi2C569M+Eo/BvY5/beKDqzVx205h8QzbCZQHLLxEJBcGupfemf9C6af6AdPst+R6mPuG4SfnENkHMHydBl9Lswgoxu/vFf+aitGYGaMrg2/Bts835XOySW/bZ2+VqvCcfuz/8buCaQqTOBVK0YsTbDf2KVtqsoi3i9D6uaIbylDqO51v0L/Oc2KItnsUhPqiTEL4MQEEaQQY09HqvKLZDBO0cRuFSJQG3in2f3dNgXfUPdw2/NfkcjZlPfUztjrFPfhW3e1+Eq+Sd4j+WD9ojF9UUgYm+F/2QxHMv+VLt8j/iRKfTiaV/w+3CX/xK+k6vRc/8kovbMWlvpi1hm+owbRuD3B3Hz3iN0dFkzsyUyoNbU60ddnQg334H/TAncpf+uESjeB/T5f+/7R0mWWyIpyU55E7bZX4Vz1f+Gt2ouem4fBhdIY8G4HYsMgHDIVeQOIjJazqzsc7+m2W5Ws4QPNaYw+Q3YZn4Zjrw/h2vjT+E9tBiBmnL03D2m2itieYGo24JYj9wFNuRGGMcRxwUj6OyyIn9tJUq3HlDXU5tvLR3H2GVO0WIxoM9fFFGPFeH2Rwg9rgGvdQje2IfgjSrtr64Kwet74T+7Dr7DS+DZPgWuDT+GI/976iZQJZVOfdeQ7nlnDnf8JPzRPGPOB2r3i/fAAvTUn0MsLGqMYXW8WAyh51fhO5YPZ/5fQruioneGwFkC2yT7XXVtBRmwbfoX1Z993u/CWfDXikl49syEr3qlmmlwtqH9FaknmQ1nFuHGW+BsJDbQqe4+fSpFPxtWZSXyYBEYF4ygcN02lG7dr8pc/7QB0xcWG3YMBluR5HCxaBhRr13pQCMdT0BdM++nVwQtKXDM71KLjJHOp4h0PYv/dT5BuPEmuE879OL1+uu5cwz+C2XwHlqidpJ4Kj8Bian/3EYEbx9GuOE6wo116Hl4BjTWQsJAYu3Z8hswrPrbOgmuTT+Ds/D7cBb8DZyFiX+UHu2LvgnbnK8ZBEMnHHwqaX7KG7BO/i1NAiVh5w4f2t6lNEopf8aX4Sz4K7jLfp74V/rvqtw9dftlt0tSfx2p15jXhvDzK2px2VPxazhX/CXssz6CdcobsGW9pdl4ZnuRIfCPaiWuz3BXUqoZHP2ospv1FVDlxFPPjhV/BVfpT40+qPWtT+Fa/2+KsST3KeOd/W3l38Jd9gt4980FrxQP1h1QTCzSXh8fo73jlbPM0R6n4db76mzGcGxaUJChAMUZFukNb44dD7OsMWcE3VaHsl7W2Bzf65yzqBgXLt9Mq79TuIhGwoqoeXZkw1X+SzhX/z0cy74D+8I/1Ka8a38I9+bfwLtvDnyHl8FbNQfuLR8rPTO32FEfbV/8zd6/b8G+8BuKwCl9qpJeKcG+Tn+6Pj35+S5s0yjt8SSqLpUnhxnM+7uwceDTKHz227BnvQH7lN+CfQqfvX9Zb8LOPf68AmHm/4Bt1ldhnft1ONb+E7zHCxF8cBoRRwdiwMv/YjHQgp38jQAGKfAOO9oRrD8HX00FPIeXwbXtc2XMx7b0T1WbUTXHGYR92nuwZ78Fe9Zb2pO/TX/sCza2+bD6Vqr+p/VV+/zfg33xtxLGKpnPaI9TCjyc0brW/QieHVPg3T8/rT/PzqmaYFX0AziW/LGiN44V/wuujT8Bvw0qvb2z1FbgSMCjxkFaRHKAwGPOCB4+fq7sGbs8cctRS1aWpWWzmIbvm7ucaGzpROeqf4T1V/8J1s//G2yURqlu4JSXT0qmn///6P70P6N70n9RT74rfz2cImokbO8YC2pWEs1eqUipNCjNTnu/fz/uZukNM2A46r4HCKeIdVIYIz1TvLifOb33NOmbg5FqF0pyrBslPFNc/lbvDKfjpAZ4r6pmSlxdY2caSn3zpnp2z/wI1kXfgmX5XyncOzb8Ep1ln6Cr7BN0lH7c+/cf6Ng6He0HC9FyaguaLh9D4706NDa3odXqQ7O9B00WN5rarWhqt6Gl046mDlvvO/2saOmwoVl9196bOzQ/LU6vX284s58e92V+TI9/5nDDyaOZ5U2RXmq/xLqynqyvuSyp6qEwGcE8iHuzxYNme1D9NXW50NzejaamVjQ+f67arKn2MNqqN6J990J0qDb+jWrjzk0fq3Znm3eu/TG6Cv43rEu/je7ZX9P6FGcQFAj0/qPetX5FP84+zCpBxUiydb8U/Zaqq15mo/os01WL4L3jdAjjL9VYU2NDjb/ecaXG0luwTf4tdE/6r+j+9P8z/qykKaZ3/qaf1eRnnfRftJmUoktavYiLbfJ/76VHg0jv1/8JXQu/haanj9HY5YLXHxiAvA/+05gzghu3H2LagiL0hOI3ROYWl2PngZODrkWXzYlWixNefxCuw7lwLPwD2JZ9R3VGnq7U/+wJft9R/uyw9NfD8Ek/xu/jt/TbCX7Jedh749pz+8YdSh6J5dXq8fI8tLxda/4RltJfw1G1AIELm5SaiLMga/nHsK76P1o9ln0b9hV/Bcu6n8Kzb7ZSEVAV479/Gq0Xq+C7ewI9D06rv+D9U8rPc7s67vfsKlrvX4O9tQE+jxu+MNDtBxptPfDGYPzZgkBjtw+eEFQYXwhw+kJoaLPC5fGrdmPbub0BNLRa4HD5DD+PL4DGtm5YHR7Dz2JzKULJOPqfzelR4Rhe93O4fSo9lzfu5/L6tTzc8TzaLQ60dtqNeIzfZSUhtCb4sQwsi8cXz5dlZZlZdj1fEvxOq9Yfdb82ix1tXYl5dDKPjsQ8uu1uNLZ3G2kxvt3pVXmY68Z4LKOePp+tXXa0WxLz6Oh2oqXTlhDOYtcYrx5Xx9hmYNwDbyCE5k4HLE4/fD0xsM3Yvq32ADpcYXij8fbtcEfQ6gyr9vYFQvDYutD84CY8T6+jp/4seB8S+0/bxSq4bx03+g/7VvulA3DWHUvw67x8ENbrR1S8wOVt8B0vgG3L5+gu/qE6C+HI/Q44xtTYHeRYe9n4Sz3W9DziNESnD6nSS+VnpiODzWPAMb7oG3CW/hw+uwWdDh9aO22DppMDBRxzRnD34VNMnb8qgbMtKyrHjqrqgcqd8K3L5gL/lItGEAsFYLPa0NbWoX7znX9upwPNLW2GXzQUQHNzG9xOp+HHcIxnt9kS/Do7u2DpsiT4WbutaG/vNPxCAR8am1oR8LoNv2iPH03NbfAk5dHa2g6H3W6EY74dHV3otnQbfgGPW6UXDvgMv5Dfq/yCXo/hFwn6leTmc7kMPx4YotTo9McZLPEh0bNaHUY4v9eDxlYLIiZEaeKkwRqEOSZVN/RLlj+arT54glEjNgkiJWKz8wdDaGrrNnuB1upIVCPReFyqfOjX05NoZIUSMYmW7sg8SNzMzhfoUczB7BcKhVV6UeoNe100FlV+/Ka7bocbXd2J9xKRiZA5mB3LQOZgdiwry8yy644E3+6Kz3Dpb7G7YLH29tHegHaXTzEHPR6fbh/xS8wjGAypPMzhSPRZRrPrsjrRbU/Mw+b0qjY3hyNjZN8wO2Ls8ycuxJPIOD2Ju4Q6rA7FlM1xySA7THVT/afLA3NqRKfRGkRiakCzPQRXvClUsu3uCKxJHY3Mq9PCMRlUfTfk86hx0OOLj4NwUBt/fnd8HHBcccxz7PO3/qfGuDU+xn1ul0qPY0kPE+zNg2NO9+NYVGPcM5gx3gGHiY54nS5FC0gT9PSCXm2Mk3bofqnGuE5HvC4n0LthQvXRrsQ+am6XdH6POSNoaevExzl5CdtGZyxZjWOnLw26HmQClMDMzuYOoq070Vym2x9CU1c8HDtnU6cTbn9iT2Q8uydOeJhup90LiyNx4FldAbRb49sX1QDocCAQjhMFNQA6nfAEEvNotbjg8JqHCtBh86LbGR8qgVAMDR2ORCIdhfILmpIjKW3scMAXNJNzoKXTAac3sR7t3S5YXfE8/KEoGtptiMSLDJ2A9piIZTSqEVB/ILHMJFpuk3lREulkRqCIdFs3otF4JkybBDQUjpeZ5krpFwjGWRAJLIkUpVbdOd2+PoyARJrhzASZKkOmF47EmU04ojEgftOdIjJJjICEPJkRsAxkBCaar8rKPFh23ZERcIZidkpYMRFLfiORZliz44wlmREQc+Zhxo+MIJnZcAxwtmR2JNJk/mZH4m5mBDrGXl9iXyEjSGY2Hd0OcNZidnznzEN3bFOWN5jQf2JKGPCZGDrDsxzsM2anhBVHIn4Wuwed9rhfKKKNg55491HjhOPF3xNvC6bLMc+xb3ZqjLvj9fX1RNS4MsfkcGJ6IZMns6Mfx6bu+h/jbjhMdMQbiKCx06nWwvS4wbA2xk3DGeEUY1zPw2sa46qPJvUfPd10n2POCEhg5i9fj8MnalTZafN49rISdFkSJZaBKpaSEaQYZCRY5kFGcDmwKcWaXSqJbjCDjASHAyBgIjL6IDMTMuaVepBRoosPMhLEZCKjS9JBk9RMAkGJO9UgS5bokgcZO4DKwySZCyOAIrLCCMYRI0gS9lL1Uc4u2ZdfJqxw/Kkx7ozP2nyBoIprZrZkZExvKMKKNsbtcJhmhmS0gxJWdEZqGuM6HTHPjCcUIyBgd+4/UcT/zMXrWL1pN46drqX3oB0JMCU9s6OEZm5AfiPTSfbju7nxGY5+ZpUF/Zi+WbKkH/MgYdYdJUV2ULNUym+DziOcmAfT0dLTc+DuV90vLpGoPELhwdWDdTNJr1SbqDziWQych1kcNuoWF5lSYaznYcoiZR6DxY9tk9yObMNkvzhW8ZzjfnH8VP8xtSNDDycP1X9MGDM9rY/GcVJ5DLKPpsJP5WFi3loeif1Hz8PcR5VfCvyY3qDGQVIf1fJNHgfp9VH2GbNjec191MjDNMZTtSNblH3ZrApkXK1uiXkkt1EqjFPmMYwxPpw+Gq9HvN+m6qNmHNP5PeYzAr2wL5rasGP/CdTdqde95CkICAKCgCDwChAYN4zgFdRVshAEBAFBQBBIgYAwghSgiJcgIAgIApmEgDCCTGptqasgIAgIAikQEEaQAhTxEgQEAUEgkxCYUIyAq/ztnd0IBhP3uqfToPVPGtDZPbitqz09IRw4dg4VOw+jcs8xbNl9FPuPnoPHm3jeIDl/r8+fcG5C/+5wurHvyBkcrL4AXz9Hx612J+yOxL3ijH/+8k1s2nYQF6/e1pPr8wwEehQ+SRt/VLhL1+6gfMehfhfrWbZuW+J+dKZz+sI1lG0/qJ7JO7e4g+PYmVr1nTvCzI5hT5y7or6dPHclYW81w3V127D74CmFLQ8d6o47TM7UXFdlJebM+9rN+/pn9WSYU6pch3D8TK3aLaYHCAR7UH32ssLq6KlLCIXNO7gBm8OlrjfZtu84Wtq69GjGkwfS2MeYTrJ7/LwJ5TsP48Dx82Abp3IWqx0PnzT0+cQ+s+fQaVTuPornjXGbADzvsD+5jx1jH+ubPvvG/UfPE9Jmmx85eVGlbUs6bGYOyDybWxNtOtTdrVf4njh3tc+uPHNct8cLcxvp327de6zaj/eGJe9I0sM0tXTgeWOr/qqeV27cQ9n2Qzh84iK8pvMj/EiMt+w6osYax13V0bMJWNdcuaX6xsHj5/u0Ecu578hZVOw6rHDevOuIgTXbyxjLu4+qcj953mSUq7Gl3Rjjm3ceUX3T4dK2erO/sY7si/uOnoXb03f8czPM1r3HVVskb/NmJjws1x/d8PsDOHyyBpV7jqKpJX4nm1E4AC+aWkEsh+omDCO48+AJlq6qwJzcdfAH4gdF0gHGanPgl1lLcPvBk0FFe97QgumLVqvGJUHcdfAkCtdvhy+p8+qJkbjzoNykWfmqA+v+fJLQzus9T0FmsHL9dgRM9SDxYcfl4bv79c+MqGR+O/ZVo+roOdRevwPe07T38JkEwkpiQsI4ZW6hGkBmRsBOvOvASdWxa6/fxc8nL8JVE2HlpYDczfWbnFxcqYsTXG6340BcU7YbjMcwGyqrjK2zLPu2vccUIeb3ecs3qMHNgvE6ke1V1Thy6qKKu6hgE9Zt3mcQ7ObWDnUbLZnaudo6fD57BWqu3lJ1dro8akCSwJ84e1lh//hZfMCS+ew+eBKHqi+otHlKvbh0l0qbzIe33JLBECsS3vVbqgxmwMONRRt3qvqTScxauhYNpssQuc15yapyzMtb36ePsays/2VFxA4if00lAsG+/TBv9WasLd9jtB9/sN8Vl+7E5et3cer8VcxYsgYPHr9QYZ6pPlassFJ97MBJrNywPaWgsGrDDhSs22akTSzyVm8BmRoZMrFgeya7QCCAT2cux+maOLPmuR4yJeLEdDdW7u+zpVNPp3z7QSxYsVF/VU9uAadgQaL+yYw8kDAnO24R5fUy7Lu6oxBEjNhnDp+8CN5MbCacbPd9h88oIeLo6Uu4ePUW2L8jkQgOVp/H3sOncfnGXRSV7lRtZb665vGzRtX/KYBQGGBanRbtFDeZERnMibPaN45Tjjndnb14HbsOnlL5Hj9di3OXboA2VNT4ocCy45AqM8tEGuB0xw+/3bxbj9WbduHarQdYkL9RjW093SfPm1FUugtZc1eiy5J4uJBhyLzWlu9W45dM71fZS1R/0ePzScH3s1krVNnM/un8njCMwOX24OT5q5i5eE0fSWAwgJA4lm07iJ98Oj+lxJYqDXJ5Sq66IzN6kCSR6d/4ZMfvsFhVR9+5/4T5k5JCc4sqDL/FhZtASVl3lEDZWXkdx50HcQmZEu3MJWtwt9fvyYtm7coOk0TKzkpJdHXpLpRWatd96+lev/VQEXT9nTMDSj+64yCjpDFj8WpcunpH91YEctrCYpAw05Ehzc/fAN2WxJW6e/hs9gojfGNLBybNzFeSLKVWEh59fzvtUXw6Y7kx8EhQSZB1R4mWA4iOhMzMqPQw+pME9OOcXPgD2iFBm92p0mYevOF2/ZZ9nFgQLgAAEVZJREFUelD1JOHUGQkJMQUJ3ZVU7FXEUH9nHyOhmLlkLYI9iTMCMpjyHYf1oIqY37r3yHjnj2u37uMnn8zD1r3HEvzJ2HMWFhtMdOueYwazaGhug6U7TiBu33+CB48TpX4mdvveY/z7Zws0Ztub+vlLdeBNvrorKd+jmKj+rj/3HT6NH/1mjiJkuh/74vEzl9UrhZSsuYUpZ0iUmkmczO1F5qWYXa/Ecev+45TjgoT4R7+ZDc446Fwuj8KB8XVHRlDdWw761Vy+ZeCkh+GTs7dfT1tqjMdQKITJswuMccEwDx+/6DP70NN49KwRj5/GBQrdX39euno7gSHp/pZumyLyYdPMkkINGRkdpXwyAX021tzWqZirHp8zuxu36xUjMLez/p3Cink2TUEhebbJGeOP/mMOagbQBujp9fecMIyAFSQHX7qqXHHq/ircnz8JGIkzJVwzoe0vPP1JYHXHBuX0bTBqqaojZ5UUrsflwZAZi9coaVD3o8S8zMQYdP/CdVtBYmB2VAnoqiQOoqx5K+Hz91UdUBIq337IHBWbth1QkiAZCL87egl7QiAAJCJmtRMJD5mV2W3YUqWmr/Qj0ypctx0kxHRtHRYlSZOh8TcHOAcRHYn73Lx1sDu1qfapmmtKmtTVCWdqrimpXg9LqZvqFZa3zSS18Tv7AIk786BzutyYm7tOMSziREKvqyLIvMh0dMmPbWcxSczrNu9VUqJKqPdfW7tF9THzbI2fKLmZVXZknGZGYHe6lDRK6ZyzJ7PjdRtk1CwPHcOwH9Il9jGf1sdMJ9cZhnlTbbCj6kQCoV++ZksCI6MUO3VBkZKeVeJUtTxrxLa9xxUOVKvojsTf5dZO3hLDKXMK0NqeqCrr6elRZeUMa+PWA3pUpR6lX2u7RTFOvS2MALz2oaVDlZWzCZ3hEFveKmBWkRw4fk71FT1u7bU7qv04e6FFQ91RTcNZNCVsOgoZ85dvMNqaflT7cmxfu/kAZy/dSCCoZGhUZd24U69Uj8TU7DizefqiRc0EGF93LOuiglIl7et+nLmT6dCRrnBGSjw5K0+lFuSY4Exen53o6VCzkVtcoerA2USqq/mfvmhWKqeNlQdw7lKdHjXt54RiBJRkCSinbOk4dnjqDindri3b04fQDiatC1duqan9YMJSFcM/3ZFoT12QKOlTbTI3b70exHjmr9mSsnycGje3dWD95n04X5u6Q1CyNjMCEhkymxUlW3HoxAU1MCfPKTQkZCNTQKkuzIyAkioZjj4Fpi6as5W15XvN0YzflOr2HjptvJt/UOLp75JBEkdK2/pBw/YOC0oq9uB0zTU1ABauKMXdh3FVmTld/iZxo4pDd5ToKcFW7j2m1E4Pn2gDVv/OJ/sD1x2KNu5Aty1+hw6/NTS1qT6WzAj0+FxHOXDsPDbvPpIgFFCNxUFLAsS1pFSOwgSZBwlaMtFleLYr1R7JjiojEhjO5rhOpLsF+RsSZpV1dx5i8pwCgwBytkd1Axkkide52r42QDjjJZPhugcFFrOjlEziyZmwzrj4nX2Q7UI1D5keVZK6hMzv7HcHj51X62SUeNnX6RxOD7LnrcLT3hkB23756i0J44BMi/hSBUQV0s79JxPuflIJ8baCB09AwcTMSEnAiQ/xogCwfE0leKUNHQn2xq37Vb+ipcTc4s0JQsbeQ2eUKpFrgCtKtqFix2Fj3YQ3KP966jLFDLlWx7R0rKiSI/Pde0SLz9m7eewzb/Y3MpNkRtDe1a3GWNmOQ0rVyZkF1ZI6k6Lqj0IlhQjOIs2qPR2HwT4znhGws5FTP2vQFqzIvXX97KBBDARB6bGjM/HWyP7iJzMCNuyUuQV49DS+iMjBQVVLsuuPEZBAknCRET4zLTaa4yczAnakn32+UF3roYejLpd5mAcQv1GHbWYExI2DgR2TA/7UhatqwHPdINlR4iajSbV2wzulqM/3plj8ZDq37z9OYGycYXBGoLujpy4qCZ3lSXYkcNQbc6Dp7smzJhw8fgHLiivwiymLQYt4yY6Miaqoyt1HwA0BZjcQI6A6gtI8Zzck+Lqj1M0pPR372vZ9qW/WJZHnegkJUvL0nzM+qqqo4jK7Z42tSt9NPzK9ip1HjM+zl63FeRNxr7vzQLWRPnsk4+C6Bx0XOi9dS2QyVIVtrKzCvPwNqh2MhHlXVnuXWp+hH9uI/V930xYWKcme/YuOqrzZS0sMlS2ZOlWHdGQU1ec0FRTfD1fXKHUWGRTbgf0rb80WFZb/iJGujmS7UnAxr+MwDKV0tjEJpNlRon/wKM74yXB1okw1r65eZRwyNjJA3V2/9cBgGpxtZM9fhXu9a3XEgtoArg38dNJ8XDSpUDnj/smn84y1GRJ7ClDmjQj9MQLOUv7ux1k4a5L084o3q7qxXJyl1N3VZkUcdxcux2d0erkH+8x4RkCiT70xpTUCTwJwqLomQS/7MjC5LsBp+GBdMiMIBoNKaqC+XncknCQoya4/RqCHo757YcEmo9Pq/nwmMwLqNTlo9UHJMDQUNCd3fR8deDIjYFjSXkp6XHjjTitixwU+s6PEdfri9YTpvv6d0jOlGKfpYi79G5+Pnjaq9JPvnTGHIZGllOVNUoVxKs607Y74JX7cWUHJV3dUlXBQcsdGsiNj4a4k7vQwu4EYgR6OA5uLtJQUSTQoIbNtqbar2HlIqa64XsFZXCpXdeQMNlTuN1RFDHPv4TNl19scnhI9F3FJEJg21x6YLwkjMaPqTr/MkfFu3H6gFhV5z05HZ7dS91Fdwr5P6XrbvmpDTWbOh/gsLChVqhH6U0gg4eFCPvNleRcVblIqDBL/pUXlqDoWXwBm35i+aI2aeVD9x1k310WYLxeiS7cdUIxF5+WcZXCxnvp0SsG6GVtzmfTfiwtLFQPU37nLiAykfRBCGbEh8U7lTpy7POCYXlFSqdYkXR6vYqI6c7338Ck+n7VC1Y3pbt93XM249Tx459S8/I1KBaX79ccIqMLkuppZ5bjn8Bll250bDErK9qiZIHEkXWB/beuIL3Dr6Q/mOaEYQVNrR9prBCT+a8t2q10rlLh+lbUEs5etQ00apjK5S2XVxh2DwVuF2XPolNq5okcg0aEkyO1ruqOExgv4kl3B2sqENQxKrByQ5g5A6YsL58nu2KlLSorX/ZkvZxDc6aA7SmuciSQTqTVlu5TqQQ+X/KSe+/PZBUoPq3/r6LKqCwT1dQeWVd92yYUx5svtmnSUps0zBm5H5DRbXyfQd2Jx2k01hT5j4SyKjEBfHGZanAmQkOjbXUmcSJCPnryYsEOFYYs37jJ0ryTOlKr1bbBPnzdh0ozlxvoLwzMM16GSVUPcGUJ1hO7YxivWblU7pChZrqvYq/oYF29/k5OnZgU68WDbUb+rry91dHWrBW/WQ3c7D5ww1kl0P9opIKFhv+UCJXH4j6nLFEMglmQSZkmdO2G4e4uOszQyKMbj38fT85QwwgVc9gvq4klgdEeCvXmXNtuj2mPP4dNqQZhxudvtl1mL1boOiRqlYPZf3XFccncdt1WSEVD1oufL3S5UV3Emmorhz1qyxtB9k7lzxqWv6TB97lbiziY65s066msSTE/vN/zOutWaZj3sR5xF03G8sL/pjmHz11aqV87OuP7S0BTfREHB78KVm4qhsb5mxzLqatDTF64mzOypQp21rCRhmy9xWVK4qY9qiLPfKXMK0dgc3xbKvkTVIvs2d7zpOH4yPU/NUlh/tl+6bkIxgtaOLmN3SbpA6OGpGkp3Py635VGnOFjHheA9B08lBKf+N3veSuXHbYfUsVIiTnZLV5YlLDhZbU786D9m4369tpPEyR0e81Ya01ZzfEpA5jUCfqO+lINU30/PTrw5hXqHi7vJu3WoB9dviqXeltKorhtl5+YMRF9DYF6c1pM5UJLlN5sjTuiYNgkGHYktZxm6Y3jiwy2rlOh1YsbvJDjm7Zgk0BwM5t1c128/VFI/mUtByTaD4BJnrpFwxwgdNwtMmrlcz1aVkbpbMhHdtbR2puxjXBwm4dUd111IPJId66GrI/RvXCzltl3dcVFw1pK1CQxo6aoyLF+7VQ+S8smZXeXu+I4kLliSwOuqFBKvi9fiO7/MiagzJHcfKy8ybBJ2bpOkI2PkIi63UKZyzMe8G4sM8bNZ+YohMzyJIfuPzrzNaXBRmYKM7o6crMGW3dqsjfXRFo+1jQ+UkP/9s4UGI+BshEyERJGCyMlzV1Xf0dNie+uLtiSObKPdB+LjjhsHeCaFjutx5tniwhUblTDBb5wR/ezzRXjUu02Z79zSzD7Grc7sQ5TQdUemqTMnlo0Ckq52YpmZr67nZxwKR9zQQEaW7EiPyLB1R8GNM8Bkx62vXFAeqpswjICdhtv6fvCTqYowcDEzHUdpg2qAf/zFdCVZ6YuTg0mDBFCXHgYKT8mCi2P/+vFcdV6B275I5OgogZPbsxOt3LADx88mXsXNwz4keD/4STZmLS1J0NezM1OnyQ7DjnMiaTbArY6Ufrge8JNJ89VsRNdBk8hxACxeWaZ005QyzDtnqNPkAtvf/yxHSRxUt+iOjIV7xNdW7FVlNu/g4XoCt0Ryas+thQsLNmLBCo2oElt+Y1kpkS1euQlz8tYZenGqHUjsGZd/XGzTBykHFlUYPLjFOhN3s4TIxVaVb+lOlTal95lL1xqDjOsR3GNeUr5XlctcH+5eImPhQiKfxaW7wbMFuuPaBHd3sY8xPhmW7rjWsKZsj2oDYshDS+YZDsNRZcFzID/9bIE6JKZLwGSWbHsSUy4Mrtq4U6lc9LT5zC3anHBGwPyNv8k8KF3/+JO5amFSZ+zUlZMpEWsSXfM2R8bjrIQbJShMkKjqO4eo1uKMlBIn+x3PpuizM3PeV+vuKfXiP/96lmJ8ep25bsQ2ZJ9kGybr8bm//9CJGtUfud1XX0O5WndfzWq0tt1qEF/mSWLONRZiRPUS+6y+k4azFwo07GucnVNVQj1+u0lVQrVp+c5Dqn0pELBf6zNULlCzT3F9huoiLjTrMzaF75VbKNuhCR08S2IWVMjIeLaDM7PVZbvVrFOfVTIuBZE5uSUKR5aNs1rdcZ2BffTv/i1LqaL0dQf9O9c5qLbT0yf90NuWYSj4UA33rx/PUe1PQWMobsIwAk4HuT+dUgPB1KWgwYLCaTl3XnBBifrL5BX8gdIhJzfr8foLSxUFpXyqo9gp+dSJgR6H299SMTHmwXqxftxHbl5sYlzOYrhfW58W6+nxSSbDgULJl3mSaOkLeXo4loeSnD4wdH8yDOJKSYY7bMxnDBiGA5ySFyUys+OCHevKMhNPhtEx5XSdZTF/MxNzMiKuu/C7CvPouUHImQcHGcvE8urqFD1vnsJkXcxpJ2PCmQe3HpoJuR6fg4z6eMY3EwJ+f1kfozDBNmAbppqes42Ivdb2iWE422GdiVOqk6mqjzn7nijXy019OvX9Wt9qhFn6Zj2ZZyrH+url4XqZmfGxvaivT9Uf9bTaOi1K6mb/Yv8wz54Yj3iw7MmOM0cSX+bNcpsZBfsC8zVvIzXHV+1391GCAEBhh2PX3O4Ml9wOLAu3X5s3ZuhpMz9+S7WTjGHY/iTixDrZcZbAMnMbdirH74zLGbHZsa+zzFys5tMshOnhOENjX9dnrro/n8Sbbc4+x9lP8ulwc9iBfk8YRjBQJeWbICAICAKCQP8ICCPoHxv5IggIAoJARiAgjCAjmlkqKQgIAoJA/wgII+gfG/kiCAgCgkBGICCMICOaWSopCAgCgkD/CAgj6B8b+SIICAKCQEYgIIwgI5pZKikICAKCQP8IJDCCQNIFW/1Hky+CgCAgCAgCEwUB0v4XLRZ8oandBofbB3IG+RMMpA9IH5A+kDl9wOn2obHNii+0dNrQ3GFTXIGcQf4EA+kD0gekD2RGHyATaG6z4v8BRdpYGrSdJ4YAAAAASUVORK5CYII=;" vertex="1" parent="1">
          <mxGeometry x="168.73" y="425.5" width="150.51" height="85" as="geometry" />
        </mxCell>
      </root>
    </mxGraphModel>
  </diagram>
</mxfile>
